<?xml version="1.0" encoding="UTF-8"?><svg id="_レイヤー_2" xmlns="http://www.w3.org/2000/svg" viewBox="0 0 1288 644"><defs><style>.cls-1{font-size:74.94px;glyph-orientation-vertical:0deg;letter-spacing:.35em;text-orientation:upright;writing-mode:tb;}.cls-1,.cls-2,.cls-3,.cls-4,.cls-5,.cls-6,.cls-7,.cls-8{fill:#3e3a39;}.cls-1,.cls-8{font-family:ShipporiMincho-Bold, 'Shippori Mincho';font-weight:700;}.cls-2,.cls-4,.cls-5,.cls-6,.cls-7{font-family:ATC-72695fc379d17814-83pv-RKSJ-H, ATC-72695fc379d17814;}.cls-9{letter-spacing:.25em;}.cls-10{font-size:60px;}.cls-11{font-size:72px;}.cls-12{letter-spacing:0em;}.cls-4{font-size:42.71px;}.cls-5{font-size:88.08px;}.cls-6{font-size:22.37px;}.cls-7{font-size:22.37px;}.cls-13{letter-spacing:-.03em;}.cls-8{font-size:35.91px;}</style></defs><text class="cls-1" transform="translate(443.19 64.38)"><tspan x="0" y="0">モノに</tspan><tspan x="-112.41" y="0">こころを</tspan><tspan x="-224.82" y="0">あずけて</tspan><tspan x="-337.23" y="0">おりまして</tspan></text><path class="cls-3" d="M847.74,99.79c.12-.17.26-.38.41-.65.16-.26.29-.46.4-.58.11-.12.21-.18.3-.18.19,0,.72.41,1.6,1.24.88.83,1.41,1.43,1.6,1.81l.04.14c0,.19-.1.34-.29.45s-.41.16-.65.16h-4.78v2.01c1.75.6,3.04,1.33,3.86,2.21s1.24,1.74,1.24,2.6c0,.55-.16,1.01-.48,1.38-.32.37-.72.56-1.2.56-.43,0-.88-.16-1.33-.47-.07-.07-.13-.19-.18-.36-.22-1.41-.85-3.03-1.9-4.85v8.58c.05,2.99.14,5.73.29,8.22,0,.14-.04.26-.11.36-.31.31-.77.59-1.37.84-.6.25-1.28.38-2.05.38-.33,0-.6-.07-.79-.22s-.29-.31-.29-.5c.1-1.22.17-2.43.23-3.63.06-1.2.1-2.71.13-4.52v-4.45c-1.53,2.3-3.39,4.35-5.57,6.14-.14.12-.28.12-.4,0l-.04-.04c-.12-.12-.14-.25-.07-.39,1.27-1.8,2.38-3.91,3.34-6.34.96-2.43,1.71-4.94,2.26-7.52h-1.62c-.81.02-1.64.17-2.48.43h-.11c-.1,0-.18-.06-.25-.18l-.61-1.15s-.04-.11-.04-.18c0-.12.08-.17.25-.14,1.15.1,2.3.17,3.45.22h1.87v-5.64c-1.44.22-3.2.41-5.28.58-.19,0-.3-.08-.32-.25v-.07c0-.1.06-.18.18-.25,1.77-.65,3.61-1.48,5.51-2.51,1.9-1.03,3.43-1.99,4.58-2.87.14-.12.28-.12.39,0l3.99,3.66c.07.07.11.15.13.23.01.08-.03.14-.13.16-.19.1-.44.14-.75.14-.36,0-.78-.08-1.26-.25-.86.24-1.89.49-3.09.75v6.32h.54l.83-1.4ZM865.52,109.23c.07-.17.19-.41.34-.74.16-.32.28-.56.38-.72.09-.16.19-.23.29-.23.14,0,.48.2,1.02.59.54.39,1.04.82,1.51,1.27.47.46.7.77.7.93s-.07.32-.22.45c-.14.13-.32.22-.54.27l-4.49.9v3.41c.07,2.85.16,4.98.25,6.39,0,.14-.04.25-.11.32-.24.33-.69.65-1.35.95-.66.3-1.31.45-1.96.45-.36,0-.62-.07-.79-.22-.17-.14-.25-.31-.25-.5.14-2.11.24-4.25.29-6.43v-3.59l-10.74,2.16h-.11c-.1,0-.18-.06-.25-.18l-.25-.47s-.04-.07-.04-.14c0-.12.07-.19.21-.22l11.17-2.19v-13.72c0-2.73-.14-5.06-.43-7,0-.24.11-.33.32-.29,1.89.43,3.18.77,3.88,1,.7.24,1.04.46,1.04.65,0,.1-.1.2-.29.32l-.61.43v17.85l.29-.07.72-1.65ZM851.76,102.7c.07-.07.18-.09.32-.07,2.15.26,3.75.81,4.79,1.65,1.04.84,1.56,1.74,1.56,2.69,0,.6-.19,1.1-.56,1.51-.37.41-.83.61-1.38.61-.48,0-.92-.14-1.33-.43-.1-.05-.17-.16-.21-.32-.21-.89-.62-1.81-1.2-2.78-.59-.97-1.23-1.8-1.92-2.5-.14-.14-.17-.26-.07-.36ZM852.44,93.83c.07-.07.18-.1.32-.07,2.13.34,3.71.94,4.72,1.81s1.53,1.79,1.53,2.75c0,.6-.19,1.11-.56,1.53-.37.42-.82.63-1.35.63s-.97-.17-1.4-.5c-.1-.05-.17-.16-.21-.32-.19-.91-.57-1.87-1.13-2.87-.56-1.01-1.18-1.87-1.85-2.59-.14-.14-.17-.26-.07-.36Z"/><path class="cls-3" d="M893.06,102.77c.81-.77,1.53-1.52,2.15-2.26.05-.1.11-.14.2-.14s.15.04.2.11l2.12,2.33c.36-.89.81-2.2,1.37-3.95h-21.19c.03.22.04.53.04.93,0,1.05-.19,1.97-.56,2.75-.37.78-.84,1.35-1.42,1.71-.43.29-.89.43-1.37.43-.53,0-.98-.17-1.37-.52s-.57-.83-.57-1.46c0-.45.14-.86.41-1.2.28-.35.63-.64,1.06-.88.62-.41,1.15-1.04,1.58-1.9.43-.86.65-1.79.65-2.8,0-.26-.01-.46-.04-.57v-.07c0-.07.02-.13.07-.18.05-.05.1-.07.14-.07.17,0,.29.07.36.21.41,1.01.69,1.89.86,2.66h14.76l.65-1.26c.48-1.03.93-2.16,1.37-3.39.43-1.23.74-2.34.93-3.32.05-.22.18-.29.39-.22,1.89.74,3.19,1.29,3.9,1.65.71.36,1.06.62,1.06.79,0,.07-.05.12-.14.16s-.16.05-.18.05l-.68.18c-2.01,2.11-4.06,3.89-6.14,5.35h5.31l1.04-1.19c.12-.14.29-.33.5-.56.21-.23.38-.4.5-.5s.23-.16.32-.16c.19,0,.81.5,1.85,1.49,1.04.99,1.68,1.72,1.92,2.17.07.1.05.2-.07.32-.12.12-.26.2-.43.23-.17.04-.43.07-.79.09-.72.55-1.62,1.14-2.69,1.78-1.08.63-2.1,1.17-3.05,1.6l.93.9c.07.05.11.11.11.2s-.04.15-.11.2c-.12.07-.28.13-.48.18-.2.05-.45.08-.74.11-1.92,1.05-4.07,2.06-6.46,3.02l.43.04c.24.05.32.16.25.32-.12.31-.49.53-1.11.65v2.37h7.47l1.08-1.58c.12-.17.29-.4.5-.7.22-.3.39-.53.52-.68.13-.16.25-.23.34-.23.21,0,.88.47,1.99,1.42,1.11.95,1.78,1.62,1.99,2.03.07.12.07.24,0,.36-.14.26-.46.39-.93.39h-12.96v6.32c0,1.1-.14,1.99-.41,2.66-.28.67-.82,1.21-1.63,1.63-.81.42-2.04.71-3.66.88h-.07c-.12,0-.2-.08-.25-.25-.07-.67-.19-1.22-.34-1.65s-.4-.8-.74-1.11c-.38-.33-.86-.62-1.42-.86s-1.34-.46-2.32-.65c-.19-.05-.29-.14-.29-.29,0-.12.07-.18.21-.18.43,0,1.51.05,3.23.14,1.53.1,2.41.14,2.62.14.31,0,.52-.05.63-.14s.16-.28.16-.54v-6.11h-7.69c-1.53.02-3.24.18-5.14.47h-.11c-.1,0-.18-.06-.25-.18l-.65-1.22s-.04-.07-.04-.14c0-.12.1-.18.29-.18,1.29.12,2.74.2,4.35.25h9.23c0-1.37-.07-2.59-.22-3.66,0-.09.02-.17.07-.23.05-.06.12-.08.21-.05l2.95.43c1.32-1.46,2.36-2.73,3.12-3.81h-8.01c-1.53.02-3.24.18-5.13.47h-.11c-.1,0-.18-.06-.25-.18l-.65-1.26s-.04-.07-.04-.14c0-.12.08-.18.25-.18,1.32.12,2.78.2,4.38.25h9.84ZM877.98,90.45c.1-.07.22-.08.36-.04,2.04.46,3.53,1.13,4.49,2.03.96.9,1.44,1.83,1.44,2.78,0,.65-.19,1.19-.57,1.63-.38.44-.88.67-1.47.67-.46,0-.93-.18-1.44-.54-.1-.05-.17-.16-.21-.32-.12-.93-.42-1.92-.9-2.96-.48-1.04-1.03-2-1.65-2.89-.12-.19-.13-.31-.04-.36ZM885.75,90.08c.01-.06.04-.1.09-.13.1-.07.21-.07.36,0,1.82.58,3.15,1.31,4,2.19s1.28,1.78,1.28,2.69c0,.67-.21,1.24-.63,1.71-.42.47-.93.7-1.53.7-.55,0-1.13-.24-1.72-.72-.1-.1-.14-.22-.14-.36-.03-.96-.19-1.95-.5-2.98s-.7-1.99-1.15-2.87c-.05-.1-.07-.17-.05-.23Z"/><path class="cls-3" d="M941.33,119.43c.14.02.21.1.21.21,0,.17-.1.26-.29.29-.77.17-1.43.54-1.99,1.13-.56.59-1.01,1.32-1.35,2.21-.07.22-.2.26-.39.14-3.16-1.49-5.77-3.34-7.83-5.57-3.3,2.61-7.36,4.5-12.17,5.67-.19.05-.31,0-.36-.14-.02-.02-.04-.06-.04-.11,0-.12.06-.2.18-.25,4.31-1.84,7.82-4.35,10.52-7.51-1.99-2.87-3.42-6.36-4.31-10.45h-.76c-.21.02-.47.12-.75.29-.19.14-.32.12-.39-.07l-.79-1.47c-1.03.91-2.44,2.01-4.24,3.3v11.71c0,1.03-.1,1.86-.3,2.48-.21.62-.62,1.12-1.26,1.51s-1.59.65-2.86.79h-.07c-.17,0-.25-.08-.25-.25-.07-1.22-.28-2.08-.61-2.59-.21-.31-.5-.56-.84-.75s-.82-.36-1.42-.5c-.17-.02-.25-.12-.25-.29,0-.14.07-.22.21-.22l1.87.07,1.33.07c.24,0,.41-.04.5-.12s.14-.25.14-.49v-8.66l-2.08,1.4c-.07.41-.26.71-.57.9l-.14.04c-.12,0-.21-.06-.25-.18l-1.54-4.27s-.04-.07-.04-.14c0-.12.07-.19.21-.22l4.42-1.33v-6.64h-1.33c-.62.02-1.3.16-2.05.39-.17.07-.29.02-.36-.14l-.61-1.18-.04-.14c0-.17.1-.23.29-.18.6.1,1.48.17,2.66.21h1.44v-1.33c0-2.73-.14-5.06-.43-7,0-.24.11-.33.32-.29,1.87.43,3.14.77,3.82,1.01.68.24,1.02.46,1.02.65,0,.1-.1.2-.29.32l-.65.4v6.25h.29l.79-1.4c.1-.17.22-.38.38-.65.15-.26.28-.45.38-.57.09-.12.19-.18.29-.18.12,0,.38.19.79.57.41.38.83.81,1.26,1.29l-.4-.75s-.04-.07-.04-.14c0-.12.1-.18.29-.18,1.29.12,2.74.2,4.35.25h2.73c0-2.51-.12-4.6-.36-6.25,0-.24.11-.33.32-.29,1.92.43,3.22.75,3.91.97.7.22,1.04.42,1.04.61,0,.1-.1.2-.29.32l-.61.43v4.2h3.2l1.01-1.47c.1-.12.25-.33.45-.63.2-.3.37-.52.5-.66.13-.14.24-.22.34-.22.22,0,.84.45,1.87,1.35,1.03.9,1.65,1.54,1.87,1.92.07.12.07.24,0,.36-.14.26-.44.4-.9.4h-8.33v6.36h1.65l1.11-1.18c.17-.14.41-.38.72-.7.31-.32.54-.48.68-.48.19,0,.78.47,1.78,1.4s1.61,1.62,1.85,2.05c.07.1.06.2-.04.32-.12.14-.28.25-.49.31s-.51.11-.91.16c-1.34,3.76-3.26,6.94-5.75,9.55,2.49,1.65,5.49,2.98,9.01,3.99ZM925.46,104.03h2.23v-6.36h-2.34c-1.22.02-2.57.18-4.06.47.14.17.26.35.36.54.03.05.04.11.04.18,0,.17-.09.31-.27.41-.18.11-.39.16-.63.16h-4.2v5.39l3.99-1.36c.21-.07.33-.05.36.07l.04.18-.07.04c1.27.14,2.79.24,4.56.29ZM933.54,105.07h-9.34c1.1,3.21,2.9,5.95,5.39,8.22,1.77-2.49,3.09-5.23,3.95-8.22Z"/><path class="cls-3" d="M947.86,108.12c-1.17,1.22-2.29,2.23-3.34,3.02-.14.1-.28.08-.39-.04s-.13-.25-.04-.4c1.24-1.72,2.42-3.84,3.52-6.36,1.05-2.39,1.7-4.53,1.94-6.39.02-.12.06-.19.12-.22.06-.02.14-.01.23.04,2.99,1.6,4.49,2.57,4.49,2.91,0,.1-.11.17-.32.22l-.68.11c-.72,1.17-1.48,2.27-2.3,3.3.96.7,1.44,1.17,1.44,1.44,0,.12-.12.24-.36.36l-.54.22v7.61c.05,2.99.14,5.73.29,8.22,0,.14-.05.26-.14.36-.29.26-.74.51-1.37.75-.62.24-1.25.36-1.87.36-.34,0-.6-.07-.79-.21-.19-.14-.29-.31-.29-.5.1-1.41.18-2.78.25-4.11s.12-3.07.14-5.23v-5.46ZM949.61,89.84c.06-.02.14-.01.23.04l2.41,1.47c1.36.67,2.05,1.14,2.05,1.4,0,.12-.13.2-.4.25l-.65.11c-1,1.27-2.25,2.54-3.73,3.83-1.48,1.28-3.04,2.38-4.67,3.29-.14.1-.26.08-.36-.04-.12-.12-.12-.25,0-.39.77-.93,1.56-2.06,2.37-3.38.58-.98,1.1-2.05,1.58-3.2.48-1.15.82-2.2,1.04-3.16.02-.12.06-.19.12-.22ZM971.82,91.89c.12-.17.27-.38.45-.65.18-.26.32-.45.43-.57s.21-.18.31-.18c.19,0,.75.41,1.67,1.22.92.81,1.49,1.41,1.71,1.8l.04.14c0,.19-.09.34-.27.45-.18.11-.4.16-.66.16h-7.54c.02.1.04.22.04.36,0,.41-.11.76-.32,1.06-.21.3-.5.51-.86.63l.79.61c.88.74,1.3,1.09,1.26,1.04.12.17.14.3.07.4-.14.24-.41.36-.79.36h-5.75v14.76c.05,2.97.14,5.72.29,8.26,0,.12-.04.23-.11.32-.26.33-.71.65-1.35.95-.63.3-1.26.45-1.88.45-.34,0-.6-.07-.79-.21s-.29-.31-.29-.5c.1-1.41.18-2.78.25-4.11s.12-3.07.14-5.23v-9.37c-.14.05-.25.07-.32.07-.96,5.82-2.55,10.21-4.78,13.18-.12.17-.25.19-.4.07l-.07-.04c-.14-.07-.19-.2-.14-.4.55-1.82,1.03-4.12,1.44-6.89.19-1.41.29-2.96.29-4.63,0-.77-.05-1.7-.14-2.8v-.04c0-.09.03-.16.09-.2.06-.04.12-.04.2-.02l3.84.68v-4.31h-1.54c-.81.02-1.64.17-2.48.43h-.11c-.1,0-.18-.06-.25-.18l-.61-1.15s-.04-.11-.04-.18c0-.12.08-.17.25-.14,1.01.12,2.04.19,3.09.22h1.69v-.32c0-2.73-.14-5.06-.43-7,0-.24.11-.33.32-.29,1.8.41,3.03.73,3.7.97.67.24,1.01.46,1.01.65,0,.1-.08.2-.25.32l-.61.43v5.24h1.33l1.47-1.83c-.1-.1-.14-.2-.14-.32-.05-.65-.19-1.32-.43-2.01-.24-.69-.53-1.33-.86-1.9-.07-.17-.06-.29.04-.36.14-.1.28-.11.39-.04,1.63.5,2.74,1.17,3.34,2.01h3.41l.9-1.37ZM963.02,102.63c0-.12.06-.2.18-.25h.04c.17-.07.3-.05.39.07,1.53,1.48,2.64,2.95,3.32,4.4.68,1.45,1.02,2.81,1.02,4.08,0,1.05-.21,1.92-.63,2.6-.42.68-.9,1.02-1.46,1.02-.48,0-.9-.27-1.26-.83-.07-.14-.11-.25-.11-.32.05-1.67-.04-3.48-.25-5.42-.21-1.94-.62-3.69-1.22-5.24-.02-.02-.04-.06-.04-.11ZM968.84,102.48c-.58.02-1.19.16-1.83.39-.17.07-.29.02-.36-.14l-.61-1.22-.04-.14c0-.14.1-.19.29-.14,1.08.12,2.18.19,3.3.21h1.72l.97-1.44c.1-.14.24-.36.43-.65.19-.29.35-.5.47-.63.12-.13.23-.2.32-.2.21,0,.81.44,1.79,1.31.98.87,1.57,1.5,1.76,1.88.05.1.07.16.07.18,0,.17-.1.31-.3.41-.2.11-.43.16-.66.16h-2.26v16.3c0,.98-.11,1.78-.32,2.41-.22.62-.65,1.14-1.29,1.56s-1.59.7-2.84.84h-.07c-.17,0-.25-.08-.25-.25-.05-.6-.11-1.1-.18-1.49-.07-.4-.19-.72-.36-.99-.5-.58-1.29-.98-2.37-1.22-.17-.02-.25-.12-.25-.29,0-.14.07-.22.21-.22.53,0,1.15.04,1.87.11l1.37.07c.24,0,.41-.05.5-.16.1-.11.14-.27.14-.49v-16.2h-1.22Z"/><path class="cls-3" d="M1011.22,103.15c.5.49.98,1.02,1.44,1.58.46.56.68.93.68,1.1-.03.38-.32.57-.9.57h-4.2v7.4c.05,2.99.14,5.73.29,8.22,0,.14-.04.26-.11.36-.26.31-.69.59-1.28.83-.59.24-1.29.36-2.1.36-.34,0-.6-.07-.81-.22-.21-.14-.31-.31-.31-.5.1-1.41.18-2.78.25-4.11.07-1.33.12-3.07.14-5.22v-7.11h-3.41c-.05,2.56-.31,4.85-.79,6.86-.48,2.01-1.42,3.92-2.84,5.71-1.41,1.8-3.46,3.34-6.14,4.63-.17.1-.29.08-.36-.04-.1-.14-.07-.26.07-.36,1.68-1.46,2.97-3.06,3.88-4.81.91-1.75,1.53-3.57,1.85-5.48.32-1.9.5-4.08.52-6.52h-1.15c-.5.02-1.02.16-1.54.4l-.14.04c-.12,0-.2-.06-.25-.18l-.75-1.51v4.85c.05,2.99.14,5.73.29,8.22,0,.14-.05.26-.14.36-.29.24-.77.47-1.44.7s-1.26.34-1.76.34c-.41,0-.66-.18-.75-.54,0-.14.01-.26.04-.36.03-.1.04-.2.04-.32s.02-.29.07-.5v-.86h-2.98v1.11l.11,1.87c.02.12.01.24-.04.36-.19.29-.55.55-1.08.79-.53.24-1.16.36-1.9.36-.26,0-.48-.07-.65-.21s-.25-.31-.25-.5c.17-2.15.28-4.53.32-7.11v-3.95c-1.03,1.44-1.88,2.51-2.55,3.23-.1.14-.23.16-.39.04l-.04-.04c-.14-.1-.18-.23-.11-.39,2.25-4.36,3.78-10.47,4.6-18.35h-1.33c-.62.02-1.3.16-2.05.39-.17.07-.29.02-.36-.14l-.61-1.22s-.04-.07-.04-.14c0-.12.08-.18.25-.18,1.32.12,2.78.2,4.38.25h4.6l1.94-2.55c.1-.14.23-.16.4-.04l3.09,2.66h11.74l.97-1.44c.1-.12.24-.32.43-.61.19-.29.35-.5.47-.63.12-.13.23-.2.32-.2.22,0,.81.43,1.78,1.29.97.86,1.56,1.49,1.78,1.87l.04.14c0,.19-.09.34-.27.45-.18.11-.4.16-.66.16h-3.27v11.06h.14l.79-1.47c.1-.14.22-.35.38-.63.15-.27.29-.48.39-.63s.21-.22.3-.22c.14,0,.47.25.97.74ZM997.1,105.36v-11.06h-2.48c-.17,0-.25-.01-.25-.04l-.04-.04h-5.57c-.48,3.26-1.23,6.26-2.26,9.01l.57.25h2.16l.79-.93c.1-.09.22-.23.38-.41.16-.18.28-.31.38-.39s.19-.13.29-.13c.22,0,.76.34,1.62,1.02.86.68,1.4,1.2,1.62,1.56.07.1.05.2-.07.32-.24.24-.56.39-.97.47v.07c.74.14,1.62.24,2.62.29h1.22ZM986.61,116.02h2.98v-11.49h-2.98v11.49ZM1000.91,105.36h3.41v-11.06h-3.41v11.06Z"/><path class="cls-3" d="M1036.97,108.44c.12-.12.27-.29.45-.5.18-.22.32-.38.43-.49s.21-.16.3-.16c.22,0,.8.39,1.76,1.18.96.79,1.54,1.38,1.76,1.76.07.1.05.2-.07.32-.24.19-.58.32-1.01.4v7.11c0,.24.05.4.14.47.1.07.32.11.68.11h3.55c.17-.02.3-.07.41-.13.11-.06.21-.16.3-.31.29-.5.75-1.76,1.4-3.77.02-.17.11-.25.25-.25.12,0,.18.1.18.29l.11,3.88c.5.22.84.46,1.01.74.17.28.25.63.25,1.06,0,.89-.47,1.55-1.4,1.99-.93.44-2.48.66-4.63.66h-2.66c-1.08,0-1.89-.11-2.43-.32-.54-.21-.9-.57-1.08-1.08s-.27-1.26-.27-2.26v-8.51h-4.67c-.67,3.21-2.15,5.88-4.44,8.01-2.29,2.13-5.81,3.73-10.58,4.81-.17.02-.29-.01-.36-.11l-.04-.07c0-.12.07-.2.22-.25,3.4-1.41,5.94-3.16,7.61-5.24s2.74-4.46,3.2-7.15h-3.16c-1.53.02-3.24.18-5.13.47h-.11c-.1,0-.18-.06-.25-.18l-.65-1.26s-.04-.07-.04-.14c0-.12.08-.18.25-.18,1.32.12,2.78.2,4.38.25h4.85c.05-.72.07-1.29.07-1.72,0-1.29-.1-2.49-.29-3.59v-.11c0-.14.08-.2.25-.18l5.75.47c.1,0,.17.03.22.09.05.06.06.14.04.23-.19.43-.6.68-1.22.75-.03,1.2-.14,2.55-.36,4.06h4.09l.9-1.15ZM1043.07,93.5c.09-.1.24-.26.45-.48s.37-.4.5-.5c.13-.11.24-.16.34-.16.19,0,.78.49,1.76,1.46.98.97,1.6,1.67,1.87,2.1.07.14.04.26-.11.36-.12.1-.28.16-.49.2s-.45.05-.74.05c-.65.5-1.46,1.04-2.44,1.6-.98.56-1.92,1.04-2.8,1.42-.17.05-.29.04-.36-.04-.1-.09-.11-.21-.04-.36.31-.79.7-1.95,1.15-3.48h-4.2v5.13c0,.24.05.4.16.47.11.07.35.11.74.11h2.48c.96,0,1.58-.01,1.87-.04.1-.02.21-.04.36-.04.31-.05.54-.14.68-.29.31-.31.7-1.04,1.15-2.19.07-.14.17-.22.29-.22s.18.1.18.29l.11,2.16c.5.21.85.45,1.04.7.19.25.29.57.29.95,0,.6-.19,1.07-.56,1.4s-1.02.57-1.96.72-2.25.22-3.95.22h-3.02c-1.1,0-1.93-.1-2.48-.29s-.92-.52-1.11-.99-.29-1.17-.29-2.1v-6h-3.16c-.6,3.09-1.94,5.55-4.02,7.38-2.08,1.83-5.06,3.15-8.94,3.97-.21.05-.34,0-.36-.14v-.11c0-.1.06-.17.18-.22,2.75-1.2,4.8-2.67,6.14-4.43,1.34-1.76,2.17-3.91,2.48-6.45h-3.77c.02,1.25-.17,2.31-.58,3.2-.41.89-.96,1.53-1.65,1.94-.38.24-.81.36-1.29.36-.6,0-1.13-.19-1.58-.57-.46-.38-.68-.92-.68-1.62,0-.48.15-.92.45-1.31.3-.4.7-.72,1.2-.99.72-.33,1.37-.89,1.94-1.67.57-.78.9-1.63.97-2.57,0-.19.07-.29.22-.29.17,0,.26.07.29.21.21.65.42,1.4.61,2.26h7.87c0-1.8-.08-3.29-.25-4.49,0-.24.11-.33.32-.29,1.87.41,3.16.72,3.88.95.72.23,1.08.43,1.08.59,0,.1-.08.19-.25.29l-.57.36v2.59h7.61l1.01-1.11Z"/><path class="cls-3" d="M1082.84,99.07c.8.65,1.3,1.14,1.49,1.47.07.1.05.2-.07.32-.24.19-.6.32-1.08.39-.12.93-.28,1.64-.48,2.12-.2.48-.54.85-1.02,1.11-.57.31-1.47.49-2.69.54l1.04.86c.17.12.18.25.04.4-.24.22-.57.37-1.01.47v3.48c.07,2.9.15,5.08.25,6.54,0,.14-.05.26-.14.36-.29.24-.8.48-1.54.72-.74.24-1.4.36-1.97.36h-.39c-.19,0-.29-.09-.29-.29v-1.19h-10.56l2.12,1.72c1.24.74,1.87,1.23,1.87,1.47,0,.12-.22.2-.65.25l-.97.07c-1.53.84-3.53,1.57-5.98,2.19-2.46.62-4.94,1.03-7.45,1.22h-.07c-.12,0-.21-.07-.25-.22v-.07c0-.12.07-.2.21-.25,1.92-.62,3.77-1.41,5.57-2.37,2.3-1.24,4.02-2.59,5.17-4.02h-2.01v.86c0,.14-.17.32-.52.54-.35.21-.79.4-1.33.56-.54.16-1.06.23-1.56.23-.26,0-.49-.07-.67-.22s-.27-.31-.27-.5c.09-1.24.17-2.47.23-3.66.06-1.2.1-2.71.12-4.52v-4.45c-1.41.53-3.15.99-5.21,1.4h-.07c-.12,0-.2-.06-.25-.18v-.07c0-.07.07-.14.21-.21,4.19-1.41,7.04-3.33,8.55-5.75h-3.05l-.29,1.22c-.02.14-.1.25-.21.32-.46.19-.95.29-1.47.29-.43,0-.97-.07-1.62-.22-.19-.05-.26-.17-.22-.36l.04-.14c.26-1.08.48-2.26.66-3.56s.28-2.43.3-3.41c0-.26.11-.33.32-.21l3.91,1.65h3.12c.05-.81.07-1.42.07-1.83v-.65h-2.8c-1.48.02-3.12.18-4.92.47h-.07c-.12,0-.21-.06-.29-.18l-.65-1.22-.04-.14c0-.12.08-.18.25-.18,1.29.12,2.74.2,4.35.25h4.17c0-1.12-.05-2.06-.14-2.8,0-.24.11-.33.32-.29,1.7.43,2.86.75,3.48.97.62.22.93.41.93.58,0,.07-.1.18-.29.32l-.57.36v.86h3.48c0-1.12-.05-2.06-.14-2.8,0-.24.11-.33.32-.29,1.72.41,2.91.73,3.56.97.64.24.97.44.97.61,0,.1-.1.2-.29.32l-.61.4v.79h3.38l.79-.93c.12-.12.29-.31.5-.57.21-.26.39-.4.54-.4.22,0,.79.35,1.71,1.04.92.7,1.49,1.22,1.71,1.58.07.1.05.2-.07.32-.27.26-.63.44-1.12.54v1.04l.11,1.69c.05.17.02.28-.07.32-.24.24-.68.47-1.33.7s-1.23.34-1.76.34h-.4c-.19,0-.29-.1-.29-.29v-.9h-3.7v2.41h5.75l.75-.83c.1-.1.25-.26.47-.48.22-.23.4-.34.54-.34.22,0,.72.32,1.53.97ZM1061.78,99.75c.34-.74.6-1.54.79-2.41h-3.77c-.21,1.01-.37,1.81-.47,2.41h3.45ZM1079.77,100.76h-5.96v.86l.11,1.33.04.14c0,.26-.36.53-1.08.79s-1.46.4-2.23.4c-.53,0-.79-.24-.79-.72.05-.43.07-.73.07-.9l.07-.72v-1.18h-5.21c-.98,1.44-2.41,2.66-4.27,3.66l1.69.72h12.46l1.65-1.87c.1-.14.23-.16.4-.04l1.72,1.36c-.02-.5-.17-.96-.43-1.36-.31-.33-.85-.6-1.62-.79-.17-.02-.25-.13-.25-.32,0-.14.07-.22.22-.22.33,0,.81.02,1.44.07l.83.04c.36,0,.62-.06.79-.18.17-.12.29-.48.36-1.08ZM1061.96,108.59h13v-2.44h-13v2.44ZM1061.96,112.14h13v-2.55h-13v2.55ZM1061.96,115.74h13v-2.59h-13v2.59ZM1066.2,97.35c-.14.77-.42,1.57-.83,2.41h4.63v-2.41h-3.81ZM1066.52,94.55c0,.65-.05,1.25-.14,1.8h3.63v-2.48h-3.48v.68ZM1069.86,118.39c0-.19.11-.29.32-.29,3.11.05,5.63.27,7.54.66,1.91.4,3.28.86,4.09,1.4.81.54,1.22,1.11,1.22,1.71,0,.48-.25.89-.74,1.24-.49.35-1.06.52-1.71.52s-1.28-.2-1.83-.61c-.93-.79-2.14-1.58-3.63-2.37-1.49-.79-3.17-1.46-5.06-2.01-.14-.05-.21-.13-.21-.25ZM1077.51,93.86h-3.7v2.48h3.7v-2.48Z"/><path class="cls-3" d="M1124.7,106.4c.1-.17.24-.39.43-.68.19-.29.35-.5.47-.65.12-.14.23-.22.32-.22.19,0,.79.46,1.79,1.36,1.01.91,1.62,1.56,1.83,1.94.07.12.07.24,0,.36-.14.26-.44.39-.9.39h-9.59c1.2.98,2.77,1.75,4.71,2.32,1.94.56,3.9.92,5.89,1.06.19.05.29.14.29.29v.07c0,.12-.06.24-.18.36-1.32,1.15-2.08,2.51-2.3,4.09-.05.22-.17.28-.36.18-1.84-.79-3.59-1.93-5.22-3.43-1.64-1.5-2.97-3.14-4-4.94h-7.79c-1.2,1.94-2.87,3.63-5.01,5.06-2.14,1.44-4.64,2.62-7.49,3.55h-.11c-.12,0-.22-.05-.29-.14l-.04-.04s-.04-.07-.04-.14c0-.1.06-.18.18-.25,1.65-.96,3.13-2.14,4.44-3.54,1.3-1.4,2.38-2.9,3.21-4.51h-2.55c-1.53.05-2.98.2-4.35.47h-.11c-.1,0-.18-.06-.25-.18l-.65-1.22s-.04-.07-.04-.14c0-.12.09-.18.29-.18,1.29.12,2.74.2,4.35.25h3.48v-12.32h-2.12c-1.22.02-2.43.17-3.63.43-.19.05-.31,0-.36-.14l-.65-1.22s-.04-.07-.04-.14c0-.12.1-.18.29-.18,1.24.12,2.66.2,4.24.25h2.26c0-1.75-.08-3.22-.25-4.42,0-.24.11-.33.32-.29,1.87.41,3.15.73,3.84.97.7.24,1.04.44,1.04.61,0,.1-.08.2-.25.32l-.61.43v2.37h8.26c0-1.75-.08-3.22-.25-4.42,0-.24.11-.33.32-.29,1.89.41,3.2.73,3.91.97.72.24,1.08.44,1.08.61,0,.1-.1.2-.29.32l-.65.43v2.37h1.51l.9-1.44c.12-.17.27-.38.45-.65.18-.26.32-.46.43-.59.11-.13.21-.2.31-.2.21,0,.8.43,1.76,1.28.96.85,1.53,1.47,1.72,1.85.07.12.07.24,0,.36-.14.26-.44.4-.9.4h-6.18v12.32h2.12l.97-1.51ZM1117.77,114.16c.12-.14.27-.35.45-.61.18-.26.32-.45.43-.57.11-.12.21-.18.3-.18.22,0,.8.41,1.76,1.22.96.81,1.53,1.4,1.72,1.76.07.12.07.24,0,.36-.14.26-.44.4-.9.4h-6.18v5.14h5.75l1.11-1.58c.14-.17.32-.4.54-.7.22-.3.39-.52.52-.66s.25-.22.34-.22c.21,0,.92.48,2.1,1.44,1.19.96,1.9,1.64,2.14,2.05l.07.14c0,.17-.1.3-.29.41-.19.11-.43.16-.72.16h-21.83c-1.53.02-3.24.18-5.14.47h-.11c-.1,0-.18-.06-.25-.18l-.65-1.26s-.04-.07-.04-.14c0-.12.08-.18.25-.18,1.32.12,2.78.2,4.38.25h7.61v-5.14h-2.26c-1.32.05-2.57.2-3.77.47h-.11c-.1,0-.18-.06-.25-.18l-.61-1.22s-.04-.07-.04-.14c0-.12.08-.18.25-.18,1.32.12,2.78.2,4.38.25h2.41c0-1.7-.1-3.26-.29-4.67,0-.24.11-.33.32-.29,1.89.38,3.2.69,3.91.93.72.24,1.08.44,1.08.61,0,.07-.08.17-.25.29l-.57.39v2.73h1.47l.94-1.36ZM1117.48,98.96v-3.38h-8.26v3.38h8.26ZM1117.48,100h-8.26v3.41h8.26v-3.41ZM1109.22,104.42v3.48h8.26v-3.48h-8.26Z"/><path class="cls-3" d="M1164.12,119.81c.78.9,1.26,1.55,1.45,1.96.02.12.01.24-.04.36-.14.26-.43.39-.86.39h-25.64c-1.53.02-3.24.18-5.13.47h-.11c-.1,0-.18-.06-.25-.18l-.61-1.22-.04-.14c0-.17.1-.23.29-.18.65.1,1.6.17,2.87.22h1.54v-3.59c0-2.61-.13-4.93-.39-6.97v-.07c0-.19.1-.25.29-.18l4.27,1.69h14.58l.75-1.11c.1-.12.22-.29.38-.5s.28-.38.38-.48c.1-.11.19-.16.29-.16.21,0,.86.38,1.94,1.13,1.08.75,1.75,1.31,2.01,1.67.07.1.06.2-.04.32-.24.29-.71.48-1.4.58v7.69h.14l.79-1.51c.07-.12.19-.33.36-.63.17-.3.3-.52.41-.67.11-.14.21-.21.3-.21.19,0,.68.45,1.46,1.35ZM1134.18,104.28c-.1,0-.17-.07-.22-.22l-.83-3.27v-.11c0-.14.08-.22.25-.22,1.29-.07,2.21-.13,2.77-.18v-3.84c0-1.22-.06-2.43-.18-3.63v-.07c0-.1.02-.16.07-.2.05-.04.12-.03.21.02l3.52,1.47h.25c.1-.79.14-1.78.14-2.98v-1.08c0-.14.11-.22.32-.22,1.65.26,2.79.49,3.43.68.63.19.95.36.95.5,0,.07-.05.13-.14.18-.17.12-.26.18-.29.18l-.47.25c-.77.81-1.69,1.64-2.76,2.48h3.16l.65-1.01c.07-.1.17-.25.3-.45.13-.2.25-.35.34-.45.09-.1.19-.14.29-.14.21,0,.75.36,1.62,1.08.86.72,1.4,1.27,1.62,1.65.07.1.05.2-.07.32-.26.22-.61.37-1.04.47v3.88l1.22-.11h.11c.12,0,.18.08.18.25v.14c0,.12-.07.2-.21.25l-1.29.32v6.86c0,.86-.09,1.56-.27,2.08s-.54.95-1.08,1.27-1.35.54-2.42.67h-.07c-.12,0-.2-.08-.25-.25-.05-.98-.2-1.66-.47-2.05-.21-.29-.48-.53-.79-.72-.24.14-.53.26-.86.36-.34.1-.63.14-.9.14h-.21c-.19,0-.29-.09-.29-.29v-2.69c0-1.1-.05-2.04-.14-2.8,0-.24.12-.32.36-.25,1.34.43,2.17.76,2.48.99.31.23.36.41.14.56l-.32.22v3.02l1.15.04c.21,0,.37-.05.45-.14s.12-.24.12-.43v-5.67c-1.6.43-3.44.9-5.49,1.4-.14,2.06-.62,3.93-1.42,5.62-.8,1.69-2.16,3.14-4.08,4.36-.12.07-.24.05-.36-.07-.12-.12-.12-.25,0-.39.91-1.2,1.57-2.51,1.97-3.95.41-1.44.66-3.04.75-4.81l-1.08.25c-.12.31-.35.54-.68.68l-.14.04ZM1139.28,95.08v5.03l5.42-.43v-4.6h-5.42ZM1140.04,95.7c.12-.07.24-.09.36-.07,1.05.21,1.84.54,2.35.97.52.43.77.89.77,1.36,0,.38-.14.71-.41.99-.28.28-.61.41-.99.41-.34,0-.66-.12-.97-.36-.12-.1-.18-.22-.18-.36-.02-.46-.12-.92-.3-1.38s-.39-.87-.63-1.2c-.1-.17-.1-.29,0-.36ZM1141.4,121.48h2.62v-8.08h-2.62v8.08ZM1165.53,107.87c.19.05.29.12.29.22-.02.17-.11.26-.25.29-1.2.48-1.99,1.56-2.37,3.23-.07.17-.19.24-.36.21-2.85-.84-5.11-1.93-6.79-3.27-2.42,1.27-5.27,2.15-8.55,2.66h-.07c-.12,0-.21-.07-.25-.22-.02-.02-.04-.07-.04-.14,0-.12.07-.19.21-.21,2.82-.89,5.18-2.08,7.07-3.59-1.08-1.17-1.95-2.63-2.62-4.38h-.57c-.12.02-.26.1-.43.21-.14.19-.28.18-.39-.04l-.72-1.37-.39.18c-.17.07-.29.04-.36-.11-.07-.12-.06-.25.04-.4.81-.93,1.34-1.93,1.58-3,.24-1.06.36-2.28.36-3.64v-1.8c0-.38-.02-.91-.07-1.58,0-.12.03-.2.09-.25.06-.05.14-.05.23,0l3.59,1.54h1.65l.72-1.04c.07-.09.19-.25.34-.45s.28-.35.38-.45.19-.14.29-.14c.19,0,.66.35,1.42,1.04.76.7,1.23,1.23,1.42,1.62.07.12.05.24-.07.36-.26.17-.56.29-.9.36v2.84c0,.19.02.3.07.34.05.04.17.05.36.05h1.54c.21,0,.38-.09.5-.29.26-.53.59-1.45.97-2.76.03-.17.12-.25.29-.25.12,0,.18.1.18.29l.11,2.8c.36.17.6.35.72.56.12.2.18.46.18.77,0,.65-.32,1.13-.97,1.44-.65.31-1.68.47-3.09.47h-.32c1.72,1.44,2.59,2.35,2.59,2.73,0,.12-.12.22-.36.29l-.65.14c-.81,1.32-1.87,2.5-3.16,3.55,1.77.55,3.96.95,6.57,1.19ZM1147.58,121.48h2.77v-8.08h-2.77v8.08ZM1158.28,101.62l1.72-1.65h-.68c-.79,0-1.37-.08-1.72-.25-.36-.17-.6-.44-.72-.81-.12-.37-.18-.93-.18-1.67v-3.81h-2.48v1.04c0,3.14-1.44,5.44-4.31,6.9,1.34.12,2.84.2,4.49.25h3.88ZM1158.17,102.66h-5.53c.84,1.1,1.99,2.06,3.45,2.87.84-.91,1.53-1.87,2.08-2.87ZM1153.93,121.48h2.69v-8.08h-2.69v8.08Z"/><path class="cls-3" d="M1177.91,120.33c-.04-.07-.05-.18-.05-.32,0-.29.08-.43.25-.43h.43c.91,0,1.64-.2,2.19-.61.55-.41.83-1.17.83-2.3v-18.96c0-1.12-.28-1.89-.83-2.28-.55-.39-1.28-.59-2.19-.59h-.43c-.1,0-.16-.04-.2-.11-.04-.07-.05-.18-.05-.32,0-.29.08-.43.25-.43l8.01-.04c2.71,0,4.57.01,5.6.04,1.58.02,3.04.29,4.38.79,1.34.5,2.41,1.23,3.21,2.17.8.95,1.2,2.04,1.2,3.29,0,1.6-.66,2.9-1.99,3.9-1.33.99-2.99,1.73-4.97,2.21,2.35.5,4.34,1.31,5.98,2.42,1.64,1.11,2.46,2.58,2.46,4.4,0,1.48-.46,2.78-1.38,3.88s-2.15,1.95-3.68,2.53c-1.53.59-3.2.88-4.99.88l-5.96.04-7.87-.04c-.1,0-.16-.04-.2-.11ZM1187.12,105.79c3.16,0,5.3-.51,6.43-1.54s1.69-2.42,1.69-4.17c0-1.48-.5-2.7-1.49-3.65-.99-.95-2.5-1.42-4.51-1.42-1.05,0-1.81.17-2.26.52s-.68.93-.68,1.74v8.51h.83ZM1190.03,119.36c2.04,0,3.66-.53,4.87-1.58s1.81-2.61,1.81-4.67c0-1.92-.69-3.44-2.06-4.56s-3.88-1.69-7.52-1.69h-.83v10.24c0,.86.23,1.46.68,1.78s1.22.48,2.3.48h.75Z"/><path class="cls-3" d="M932.53,162.32c-.57-.37-1.27-.98-2.11-1.85-.84-.86-1.63-2.09-2.38-3.68-.75-1.59-1.12-3.45-1.12-5.57s.37-3.98,1.12-5.57c.75-1.59,1.54-2.81,2.38-3.68.84-.86,1.54-1.48,2.11-1.84.12-.08.21-.11.25-.11s.09.02.12.06c.04.04.06.08.06.13s-.05.14-.16.27c-.61.64-1.19,1.37-1.74,2.18-.55.81-1.05,1.94-1.51,3.4-.46,1.46-.69,3.18-.69,5.17s.22,3.65.67,5.09c.44,1.44.94,2.57,1.48,3.39.54.83,1.12,1.56,1.73,2.2l.14.16s.03.07.06.1.04.07.04.1c0,.05-.02.08-.06.11-.04.03-.08.05-.12.05s-.13-.04-.25-.11Z"/><path class="cls-3" d="M935.31,163.51c-.46-.21-.83-.48-1.09-.8-.26-.32-.39-.64-.39-.96,0-.37.11-.65.33-.86.22-.21.47-.31.74-.31.43,0,.84.18,1.24.53.21.17.51.49.89.96.2.23.37.41.52.53.15.12.29.18.45.18.12,0,.26-.05.41-.14l.16-.16c.3-.31.53-.87.66-1.68.14-.82.21-1.99.21-3.52v-11.8c0-.73-.18-1.23-.54-1.48-.36-.25-.83-.38-1.41-.38h-.3c-.11,0-.16-.09-.16-.27,0-.2.05-.3.16-.3h7.43c.12,0,.18.1.18.3,0,.18-.06.27-.18.27h-.27c-.57,0-1.03.13-1.39.39-.36.26-.54.75-.54,1.47l.02,11.94c0,1.59-.31,2.86-.92,3.82-.61.95-1.34,1.63-2.19,2.02-.85.39-1.66.58-2.44.58-.6,0-1.13-.11-1.59-.32Z"/><path class="cls-3" d="M949.97,159.36c-.2-.09-.39-.14-.57-.14-.2,0-.4.06-.61.18-.21.12-.44.31-.7.55-.06.06-.11.08-.16.07-.04-.02-.08-.06-.09-.14l-.98-4.24-.05-.21s.02-.06.06-.09c.04-.03.08-.05.11-.07.04-.01.06-.03.08-.04.03-.02.08-.02.14-.02s.14.06.25.18c1.71,2.6,3.78,3.9,6.21,3.9.98,0,1.8-.25,2.46-.76.67-.5,1-1.25,1-2.25,0-1.16-.63-2.02-1.9-2.59-.63-.28-1.47-.58-2.52-.92-.14-.05-.48-.16-1.03-.34s-1.04-.38-1.47-.6c-1.8-.92-2.71-2.29-2.71-4.12,0-.69.16-1.41.48-2.16.32-.75.88-1.39,1.68-1.94.8-.54,1.87-.81,3.2-.81.47,0,.94.05,1.39.16.45.11,1,.27,1.64.48.24.09.46.14.64.14.37,0,.73-.19,1.1-.57.12-.12.21-.11.25.05l1.1,3.71.02.05c.03.11.02.18-.02.23-.03.03-.08.06-.16.09-.09.03-.16.05-.21.05-.08,0-.15-.05-.23-.14-.18-.31-.51-.72-.98-1.25-.47-.53-1.11-1.02-1.91-1.49-.8-.47-1.7-.7-2.69-.7-.89,0-1.57.19-2.04.56-.47.38-.79.78-.94,1.2-.15.43-.23.79-.23,1.1,0,.98.5,1.73,1.51,2.27.32.17.74.35,1.27.54.53.19,1.07.38,1.62.56,1.28.41,2.25.76,2.89,1.05,1.08.52,1.86,1.15,2.31,1.89s.69,1.54.69,2.4c0,.95-.23,1.8-.7,2.57-.47.76-1.15,1.37-2.05,1.81-.9.44-1.98.67-3.23.67-1.14,0-2.45-.29-3.92-.87Z"/><path class="cls-3" d="M973.43,143.68c.91.36,1.64.86,2.19,1.51.55.65.83,1.42.83,2.33,0,1.08-.34,1.97-1.02,2.65-.68.68-1.51,1.17-2.48,1.47s-1.96.47-2.97.52c-.41.02-1,.02-1.77.02h-.89v5.36c0,.72.18,1.21.53,1.47s.82.39,1.4.39h.28c.11,0,.16.08.16.25,0,.2-.05.3-.16.3h-7.43c-.11,0-.16-.1-.16-.3,0-.17.05-.25.16-.25h.3c.57,0,1.03-.13,1.39-.39.36-.26.54-.75.54-1.47v-12.08c0-.72-.18-1.2-.53-1.46s-.82-.38-1.4-.38h-.3c-.11,0-.16-.1-.16-.3,0-.18.05-.27.16-.27h8.39c1.05.06,2.04.27,2.95.63ZM972.24,150.35c.62-.71.93-1.68.93-2.92,0-.87-.22-1.59-.65-2.15-.44-.56-.96-.97-1.57-1.21-.61-.24-1.19-.37-1.74-.37-1.25,0-1.88.49-1.88,1.47v6.35h1.72c1.51-.06,2.58-.45,3.2-1.16Z"/><path class="cls-3" d="M981.46,159.36c-.2-.09-.39-.14-.57-.14-.2,0-.4.06-.61.18-.21.12-.44.31-.7.55-.06.06-.11.08-.16.07-.04-.02-.08-.06-.09-.14l-.98-4.24-.05-.21s.02-.06.06-.09c.04-.03.08-.05.11-.07.04-.01.06-.03.08-.04.03-.02.08-.02.14-.02s.14.06.25.18c1.71,2.6,3.78,3.9,6.21,3.9.98,0,1.8-.25,2.46-.76.67-.5,1-1.25,1-2.25,0-1.16-.63-2.02-1.9-2.59-.63-.28-1.47-.58-2.52-.92-.14-.05-.48-.16-1.03-.34s-1.04-.38-1.47-.6c-1.8-.92-2.71-2.29-2.71-4.12,0-.69.16-1.41.48-2.16.32-.75.88-1.39,1.68-1.94.8-.54,1.87-.81,3.2-.81.47,0,.94.05,1.39.16.45.11,1,.27,1.64.48.24.09.46.14.64.14.37,0,.73-.19,1.1-.57.12-.12.21-.11.25.05l1.1,3.71.02.05c.03.11.02.18-.02.23-.03.03-.08.06-.16.09-.09.03-.16.05-.21.05-.08,0-.15-.05-.23-.14-.18-.31-.51-.72-.98-1.25-.47-.53-1.11-1.02-1.91-1.49-.8-.47-1.7-.7-2.69-.7-.89,0-1.57.19-2.04.56-.47.38-.79.78-.94,1.2-.15.43-.23.79-.23,1.1,0,.98.5,1.73,1.51,2.27.32.17.74.35,1.27.54.53.19,1.07.38,1.62.56,1.28.41,2.25.76,2.89,1.05,1.08.52,1.86,1.15,2.31,1.89s.69,1.54.69,2.4c0,.95-.23,1.8-.7,2.57-.47.76-1.15,1.37-2.05,1.81-.9.44-1.98.67-3.23.67-1.14,0-2.45-.29-3.92-.87Z"/><path class="cls-3" d="M1006.28,146.76c.08-.11.16-.24.26-.41.1-.17.18-.29.25-.37s.13-.12.2-.12c.12,0,.46.26,1.02.79.56.53.9.91,1.02,1.16l.02.09c0,.12-.06.22-.18.29-.12.07-.26.1-.41.1h-3.05v1.28c1.12.38,1.94.85,2.46,1.41s.79,1.11.79,1.66c0,.35-.1.65-.31.88-.21.24-.46.36-.77.36-.28,0-.56-.1-.85-.3-.04-.05-.08-.12-.11-.23-.14-.9-.54-1.93-1.21-3.09v5.48c.03,1.91.09,3.66.18,5.25,0,.09-.02.17-.07.23-.2.2-.49.38-.87.54-.38.16-.82.24-1.31.24-.21,0-.38-.05-.5-.14-.12-.09-.18-.2-.18-.32.06-.78.11-1.55.15-2.32.04-.76.06-1.73.08-2.89v-2.84c-.98,1.47-2.16,2.77-3.55,3.92-.09.08-.18.08-.25,0l-.02-.02c-.08-.08-.09-.16-.04-.25.81-1.15,1.52-2.49,2.13-4.04s1.09-3.15,1.44-4.8h-1.03c-.52.02-1.05.11-1.58.28h-.07c-.06,0-.12-.04-.16-.11l-.39-.73s-.02-.07-.02-.12c0-.08.05-.11.16-.09.73.06,1.47.11,2.2.14h1.19v-3.6c-.92.14-2.04.26-3.37.37-.12,0-.19-.05-.21-.16v-.05c0-.06.04-.12.12-.16,1.13-.41,2.3-.95,3.52-1.6,1.21-.66,2.19-1.27,2.92-1.83.09-.08.17-.08.25,0l2.54,2.34s.07.1.08.15c0,.05-.02.09-.08.1-.12.06-.28.09-.48.09-.23,0-.5-.05-.8-.16-.55.15-1.21.31-1.97.48v4.03h.34l.53-.89ZM1017.63,152.79c.05-.11.12-.26.22-.47s.18-.36.24-.46.12-.15.18-.15c.09,0,.31.13.65.38.35.25.67.52.96.81.3.29.45.49.45.6s-.04.2-.14.29-.21.14-.34.17l-2.87.57v2.18c.04,1.82.1,3.18.16,4.08,0,.09-.02.16-.07.21-.15.21-.44.42-.86.61s-.84.29-1.25.29c-.23,0-.4-.05-.5-.14s-.16-.2-.16-.32c.09-1.34.15-2.71.18-4.1v-2.29l-6.85,1.38h-.07c-.06,0-.12-.04-.16-.11l-.16-.3s-.02-.05-.02-.09c0-.08.04-.12.14-.14l7.13-1.4v-8.76c0-1.74-.09-3.23-.28-4.47,0-.15.07-.21.21-.18,1.21.28,2.03.49,2.47.64.44.15.66.29.66.41,0,.06-.06.13-.18.21l-.39.27v11.39l.18-.05.46-1.05ZM1008.85,148.62s.12-.06.21-.05c1.38.17,2.39.52,3.06,1.05.67.54,1,1.11,1,1.72,0,.38-.12.7-.36.96-.24.26-.53.39-.88.39-.31,0-.59-.09-.85-.27-.06-.03-.11-.1-.14-.21-.14-.57-.39-1.16-.77-1.78-.37-.62-.78-1.15-1.22-1.59-.09-.09-.11-.17-.05-.23ZM1009.28,142.95s.12-.06.21-.05c1.36.21,2.36.6,3.01,1.16.65.56.97,1.14.97,1.75,0,.38-.12.71-.35.97-.24.27-.52.4-.86.4s-.62-.11-.89-.32c-.06-.03-.11-.1-.14-.21-.12-.58-.36-1.19-.72-1.83-.36-.64-.75-1.19-1.18-1.65-.09-.09-.11-.17-.05-.23Z"/><path class="cls-3" d="M1041.85,148.9c.32.31.63.65.92,1.01.29.36.44.59.44.7-.02.24-.21.37-.57.37h-2.68v4.72c.03,1.91.09,3.66.18,5.25,0,.09-.02.17-.07.23-.17.2-.44.37-.81.53-.37.15-.82.23-1.34.23-.21,0-.39-.05-.52-.14-.13-.09-.2-.2-.2-.32.06-.9.12-1.78.16-2.62.05-.85.08-1.96.09-3.33v-4.54h-2.18c-.03,1.64-.2,3.09-.5,4.38-.3,1.28-.91,2.5-1.81,3.64-.9,1.15-2.21,2.13-3.92,2.96-.11.06-.18.05-.23-.02-.06-.09-.04-.17.05-.23,1.07-.93,1.89-1.96,2.47-3.07s.97-2.28,1.18-3.5c.21-1.21.32-2.6.33-4.16h-.73c-.32.02-.65.1-.98.25l-.09.02c-.08,0-.13-.04-.16-.12l-.48-.96v3.09c.03,1.91.09,3.66.18,5.25,0,.09-.03.17-.09.23-.18.15-.49.3-.92.45-.43.15-.8.22-1.12.22-.26,0-.42-.11-.48-.34,0-.09,0-.17.02-.23.02-.06.02-.13.02-.21s.01-.18.04-.32v-.55h-1.9v.71l.07,1.19c.02.08,0,.15-.02.23-.12.18-.35.35-.69.5s-.74.23-1.21.23c-.17,0-.31-.05-.41-.14-.11-.09-.16-.2-.16-.32.11-1.38.18-2.89.21-4.54v-2.52c-.66.92-1.2,1.6-1.63,2.06-.06.09-.15.1-.25.02l-.02-.02c-.09-.06-.12-.14-.07-.25,1.44-2.78,2.41-6.68,2.93-11.71h-.85c-.4.02-.83.1-1.3.25-.11.05-.18.02-.23-.09l-.39-.78s-.02-.05-.02-.09c0-.08.05-.11.16-.11.84.08,1.77.13,2.8.16h2.93l1.24-1.63c.06-.09.14-.1.25-.02l1.97,1.7h7.49l.62-.92c.06-.08.15-.21.28-.39.12-.18.22-.32.3-.4s.15-.13.21-.13c.14,0,.52.27,1.13.83.62.55,1,.95,1.13,1.19l.02.09c0,.12-.06.22-.17.29-.11.07-.26.1-.42.1h-2.09v7.06h.09l.5-.94c.06-.09.14-.22.24-.4.1-.18.18-.31.25-.4s.13-.14.2-.14c.09,0,.3.16.62.47ZM1032.85,150.31v-7.06h-1.58c-.11,0-.16,0-.16-.02l-.02-.02h-3.55c-.3,2.08-.79,4-1.44,5.75l.37.16h1.38l.5-.6c.06-.06.14-.15.24-.26s.18-.2.24-.25.12-.08.18-.08c.14,0,.48.22,1.03.65.55.44.89.77,1.03,1,.05.06.03.13-.04.21-.15.15-.36.25-.62.3v.05c.47.09,1.03.15,1.67.18h.78ZM1026.15,157.12h1.9v-7.33h-1.9v7.33ZM1035.27,150.31h2.18v-7.06h-2.18v7.06Z"/><path class="cls-3" d="M1064.64,146.3c.51.41.83.73.95.94.05.06.03.13-.04.21-.15.12-.38.21-.69.25-.08.6-.18,1.05-.31,1.35-.13.31-.35.54-.65.71-.37.2-.94.31-1.72.34l.66.55c.11.08.12.16.02.25-.15.14-.37.24-.64.3v2.22c.05,1.85.1,3.24.16,4.17,0,.09-.03.17-.09.23-.18.15-.51.31-.99.46-.47.15-.89.23-1.26.23h-.25c-.12,0-.18-.06-.18-.18v-.76h-6.74l1.35,1.1c.79.47,1.19.79,1.19.94,0,.08-.14.13-.41.16l-.62.05c-.98.54-2.25,1-3.82,1.4s-3.15.66-4.76.78h-.04c-.08,0-.13-.05-.16-.14v-.05c0-.08.04-.13.14-.16,1.22-.4,2.41-.9,3.55-1.51,1.47-.79,2.57-1.65,3.3-2.57h-1.28v.55c0,.09-.11.21-.33.34-.22.14-.5.26-.85.35-.34.1-.68.15-1,.15-.17,0-.31-.05-.42-.14-.12-.09-.17-.2-.17-.32.06-.79.11-1.57.15-2.34.04-.76.06-1.73.08-2.89v-2.84c-.9.34-2.01.63-3.32.89h-.04c-.08,0-.13-.04-.16-.12v-.05s.04-.09.14-.14c2.67-.9,4.49-2.12,5.46-3.67h-1.95l-.18.78c-.02.09-.06.16-.14.21-.29.12-.6.18-.94.18-.28,0-.62-.05-1.03-.14-.12-.03-.17-.11-.14-.23l.02-.09c.17-.69.31-1.44.42-2.27.11-.83.18-1.55.19-2.18,0-.17.07-.21.21-.14l2.5,1.05h1.99c.03-.52.04-.91.04-1.17v-.41h-1.79c-.95.02-1.99.12-3.14.3h-.04c-.08,0-.14-.04-.18-.11l-.41-.78-.02-.09c0-.08.05-.11.16-.11.83.08,1.75.13,2.77.16h2.66c0-.72-.03-1.31-.09-1.79,0-.15.07-.21.21-.18,1.09.27,1.83.48,2.22.62.4.14.6.26.6.37,0,.05-.06.11-.18.21l-.37.23v.55h2.22c0-.72-.03-1.31-.09-1.79,0-.15.07-.21.21-.18,1.1.26,1.86.47,2.27.62.41.15.62.28.62.39,0,.06-.06.13-.18.21l-.39.25v.5h2.15l.5-.6c.08-.08.18-.2.32-.37.14-.17.25-.25.34-.25.14,0,.5.22,1.09.67s.95.78,1.09,1.01c.05.06.03.13-.04.21-.17.17-.4.28-.71.34v.66l.07,1.08c.03.11.02.18-.04.21-.15.15-.44.3-.85.45-.41.15-.79.22-1.12.22h-.25c-.12,0-.18-.06-.18-.18v-.57h-2.36v1.54h3.67l.48-.53c.06-.06.16-.16.3-.31.14-.15.25-.22.34-.22.14,0,.46.21.97.62ZM1051.2,146.74c.21-.47.38-.99.5-1.54h-2.41c-.14.64-.24,1.15-.3,1.54h2.2ZM1062.69,147.38h-3.8v.55l.07.85.02.09c0,.17-.23.34-.69.5-.46.17-.93.25-1.42.25-.34,0-.5-.15-.5-.46.03-.28.05-.47.05-.57l.04-.46v-.76h-3.32c-.63.92-1.54,1.7-2.73,2.34l1.08.46h7.95l1.05-1.19c.06-.09.15-.1.25-.02l1.1.87c-.02-.32-.11-.61-.28-.87-.2-.21-.54-.38-1.03-.5-.11-.02-.16-.08-.16-.21,0-.09.04-.14.14-.14.21,0,.52.01.92.04l.53.02c.23,0,.4-.04.51-.11.11-.08.18-.31.23-.69ZM1051.32,152.37h8.3v-1.56h-8.3v1.56ZM1051.32,154.64h8.3v-1.63h-8.3v1.63ZM1051.32,156.93h8.3v-1.65h-8.3v1.65ZM1054.02,145.2c-.09.49-.27,1-.53,1.54h2.96v-1.54h-2.43ZM1054.23,143.41c0,.41-.03.79-.09,1.15h2.31v-1.58h-2.22v.44ZM1056.36,158.63c0-.12.07-.18.21-.18,1.99.03,3.59.17,4.81.42,1.22.25,2.09.55,2.61.89s.78.71.78,1.09c0,.3-.16.57-.47.79-.31.22-.68.33-1.09.33s-.82-.13-1.17-.39c-.6-.5-1.37-1.01-2.31-1.51-.95-.5-2.02-.93-3.23-1.28-.09-.03-.14-.08-.14-.16ZM1061.24,142.98h-2.36v1.58h2.36v-1.58Z"/><path class="cls-3" d="M1085.18,157.01c-.24.91-.4,1.56-.49,1.94l-.21.82c-.02.11-.08.16-.21.16h-10.06c-.12,0-.2-.05-.23-.14l-.07-.16c-.03-.08-.03-.15,0-.23.43-1.15,1.04-2.22,1.85-3.21.8-.99,1.87-2.18,3.2-3.55.82-.87,1.46-1.58,1.89-2.14s.77-1.12,1.01-1.7c.24-.57.36-1.21.36-1.91,0-.99-.26-1.78-.79-2.36-.53-.58-1.28-.87-2.26-.87-.7,0-1.3.15-1.79.45-.49.3-.73.7-.73,1.2,0,.21.05.39.14.53s.23.3.41.48c.2.2.35.38.45.54.1.16.15.37.15.63,0,.47-.16.85-.47,1.12-.31.27-.71.41-1.18.41-.24,0-.5-.08-.77-.25s-.49-.41-.66-.72-.26-.68-.26-1.11c0-.66.21-1.3.64-1.94.43-.63,1.04-1.15,1.83-1.56.79-.4,1.71-.61,2.75-.61,1.16,0,2.17.2,3.01.6.85.4,1.49.94,1.93,1.63s.65,1.47.65,2.34c0,.81-.17,1.51-.51,2.11s-.76,1.1-1.27,1.52-1.22.93-2.12,1.52c-.64.43-1.13.76-1.47,1.01-1.45,1.02-2.71,2.35-3.78,3.96h3.44c1.24,0,2.19-.06,2.85-.19.66-.13,1.2-.37,1.59-.72.4-.35.77-.89,1.12-1.63.02-.08.07-.11.16-.11.03,0,.08.02.14.05.08.03.13.06.17.08.04.02.06.06.06.1,0,.03-.02.08-.04.16-.05.26-.19.84-.42,1.75Z"/><path class="cls-3" d="M1098.35,152.48c.9.77,1.35,1.73,1.35,2.88,0,1.01-.31,1.88-.94,2.62s-1.44,1.3-2.44,1.68c-1,.38-2.05.57-3.15.57s-1.99-.17-2.81-.52c-.82-.34-1.45-.81-1.9-1.39s-.68-1.2-.68-1.86c0-.55.17-.97.52-1.27s.72-.45,1.13-.45c.47,0,.88.12,1.2.35.33.24.49.59.49,1.07,0,.2-.03.37-.1.5-.07.14-.18.31-.33.5-.24.25-.37.48-.37.71,0,.49.24.86.72,1.12.48.26,1.13.39,1.94.39,1.12,0,1.97-.4,2.55-1.21.59-.81.88-1.81.88-3s-.29-2.07-.87-2.76-1.47-1.04-2.68-1.04c-.14,0-.3.01-.5.05-.2.03-.38.05-.53.05-.17,0-.31-.05-.42-.15s-.17-.23-.17-.4c0-.14.06-.25.17-.34s.26-.14.42-.14c.15,0,.35.02.6.05l.57.02c.76,0,1.42-.22,1.98-.67.56-.44.84-1.36.84-2.75,0-1.25-.27-2.14-.81-2.67-.54-.53-1.22-.79-2.03-.79-.5,0-.95.11-1.34.34-.39.23-.58.56-.58.99,0,.25.09.5.28.78.2.29.3.57.3.85,0,.4-.12.72-.37.97-.25.25-.58.38-1.01.38-.5,0-.9-.16-1.2-.47-.3-.31-.45-.76-.45-1.34,0-.52.21-1.04.63-1.56s.99-.94,1.72-1.27c.73-.33,1.53-.49,2.4-.49,1.01,0,1.94.16,2.79.48.86.32,1.54.79,2.05,1.41.51.62.77,1.36.77,2.21,0,.99-.35,1.86-1.05,2.6s-1.75,1.22-3.14,1.43c1.48.24,2.67.75,3.58,1.52Z"/><path class="cls-3" d="M1120.07,159.66c0,.18-.05.28-.16.28h-7.68c-.11,0-.16-.09-.16-.28,0-.2.05-.3.16-.3.49,0,.86-.05,1.11-.16.25-.11.38-.28.38-.53,0-.26-.18-.63-.53-1.12l-2.57-3.32-1.9-2.45-.8.83-.64.66v4.26c0,.72.18,1.2.53,1.46s.82.38,1.4.38h.27c.11,0,.16.09.16.28,0,.2-.05.3-.16.3h-7.43c-.11,0-.16-.1-.16-.3,0-.18.05-.28.16-.28h.3c.58,0,1.04-.13,1.39-.39s.52-.74.52-1.44v-12.08c0-.72-.18-1.2-.53-1.46s-.81-.38-1.38-.38h-.3c-.11,0-.16-.1-.16-.3,0-.18.05-.27.16-.27h7.43c.12,0,.18.09.18.27,0,.2-.06.3-.18.3h-.27c-.6,0-1.07.13-1.41.38s-.52.74-.52,1.46v6.6c1.22-1.28,2.51-2.64,3.86-4.08,1.35-1.44,2.17-2.32,2.46-2.66.23-.27.34-.53.34-.76,0-.29-.16-.52-.48-.7-.32-.18-.76-.26-1.31-.26-.11,0-.16-.1-.16-.3,0-.17.05-.25.16-.25h6.76c.12,0,.18.08.18.25,0,.2-.06.3-.18.3-1.42,0-2.73.58-3.94,1.74-.23.2-1.47,1.47-3.71,3.8l-.41.41,1.19,1.58c2.46,3.33,3.99,5.36,4.58,6.1.47.6.84,1.03,1.11,1.29.27.27.57.47.9.62.34.15.76.22,1.26.22.11,0,.16.1.16.3Z"/><path class="cls-3" d="M1132.6,157.01c-.24.91-.4,1.56-.49,1.94l-.21.82c-.02.11-.08.16-.21.16h-10.06c-.12,0-.2-.05-.23-.14l-.07-.16c-.03-.08-.03-.15,0-.23.43-1.15,1.04-2.22,1.85-3.21s1.87-2.18,3.2-3.55c.82-.87,1.46-1.58,1.89-2.14s.77-1.12,1.01-1.7c.24-.57.36-1.21.36-1.91,0-.99-.26-1.78-.79-2.36-.53-.58-1.28-.87-2.26-.87-.7,0-1.3.15-1.79.45-.49.3-.73.7-.73,1.2,0,.21.04.39.14.53s.23.3.41.48c.2.2.35.38.45.54.1.16.15.37.15.63,0,.47-.16.85-.47,1.12-.31.27-.71.41-1.18.41-.25,0-.5-.08-.77-.25-.27-.17-.49-.41-.67-.72s-.26-.68-.26-1.11c0-.66.21-1.3.64-1.94.43-.63,1.04-1.15,1.83-1.56.79-.4,1.71-.61,2.75-.61,1.16,0,2.17.2,3.01.6s1.49.94,1.93,1.63.65,1.47.65,2.34c0,.81-.17,1.51-.5,2.11s-.76,1.1-1.27,1.52c-.51.42-1.22.93-2.12,1.52-.64.43-1.13.76-1.47,1.01-1.45,1.02-2.71,2.35-3.78,3.96h3.44c1.24,0,2.19-.06,2.85-.19s1.2-.37,1.59-.72c.4-.35.77-.89,1.12-1.63.01-.08.07-.11.16-.11.03,0,.08.02.14.05.08.03.13.06.17.08.04.02.06.06.06.1,0,.03-.02.08-.05.16-.04.26-.19.84-.42,1.75Z"/><path class="cls-3" d="M1145.87,151.89c.62.43,1.12.93,1.5,1.5.38.57.57,1.24.57,2.01,0,1.01-.3,1.88-.89,2.61-.6.73-1.36,1.29-2.3,1.66s-1.93.56-2.97.56c-1.1,0-2.15-.18-3.14-.54-.99-.36-1.8-.87-2.41-1.52-.61-.66-.92-1.41-.92-2.25,0-.92.34-1.7,1.01-2.34.67-.64,1.63-1.26,2.89-1.86-1.05-.54-1.84-1.15-2.35-1.85-.51-.69-.77-1.56-.77-2.6,0-.69.2-1.38.61-2.07s1.01-1.27,1.82-1.72c.81-.45,1.79-.68,2.96-.68.9,0,1.76.16,2.59.47.82.31,1.49.75,1.99,1.32s.76,1.22.76,1.97c0,.87-.3,1.62-.89,2.23-.6.62-1.42,1.18-2.47,1.68.99.5,1.8.97,2.42,1.4ZM1144.35,158.54c.66-.6.98-1.34.98-2.25,0-.57-.26-1.09-.78-1.58s-1.13-.92-1.84-1.31c-.71-.38-1.6-.81-2.67-1.28-1.33.96-1.99,2.22-1.99,3.78,0,.99.29,1.83.86,2.51.57.68,1.44,1.02,2.6,1.02,1.24,0,2.18-.3,2.84-.89ZM1138.68,147.62c.23.34.54.64.93.88.39.25.97.55,1.73.92l1.29.64c.7-.49,1.18-1,1.42-1.55.24-.54.37-1.14.37-1.8,0-.47-.12-.95-.37-1.43s-.61-.88-1.09-1.2c-.48-.32-1.06-.48-1.73-.48s-1.22.15-1.65.44-.74.65-.94,1.08c-.2.43-.3.84-.3,1.24,0,.5.12.93.34,1.27Z"/><path class="cls-3" d="M1160.71,152.48c.9.77,1.35,1.73,1.35,2.88,0,1.01-.31,1.88-.94,2.62-.62.74-1.44,1.3-2.44,1.68-1,.38-2.05.57-3.15.57s-1.99-.17-2.81-.52c-.82-.34-1.45-.81-1.9-1.39-.45-.58-.68-1.2-.68-1.86,0-.55.17-.97.52-1.27s.72-.45,1.13-.45c.47,0,.88.12,1.21.35.33.24.49.59.49,1.07,0,.2-.04.37-.1.5s-.18.31-.33.5c-.24.25-.37.48-.37.71,0,.49.24.86.72,1.12.48.26,1.13.39,1.94.39,1.12,0,1.97-.4,2.56-1.21.59-.81.88-1.81.88-3s-.29-2.07-.87-2.76c-.58-.7-1.47-1.04-2.68-1.04-.14,0-.31.01-.51.05-.2.03-.37.05-.53.05-.17,0-.31-.05-.42-.15-.12-.1-.17-.23-.17-.4,0-.14.06-.25.17-.34.11-.09.25-.14.42-.14.15,0,.35.02.6.05l.57.02c.76,0,1.42-.22,1.98-.67.56-.44.84-1.36.84-2.75,0-1.25-.27-2.14-.81-2.67-.54-.53-1.22-.79-2.03-.79-.5,0-.95.11-1.34.34-.39.23-.58.56-.58.99,0,.25.09.5.27.78.2.29.3.57.3.85,0,.4-.12.72-.37.97s-.58.38-1.01.38c-.5,0-.91-.16-1.2-.47-.3-.31-.45-.76-.45-1.34,0-.52.21-1.04.63-1.56.42-.52.99-.94,1.72-1.27.72-.33,1.52-.49,2.39-.49,1.01,0,1.94.16,2.8.48.86.32,1.54.79,2.05,1.41.51.62.77,1.36.77,2.21,0,.99-.35,1.86-1.05,2.6s-1.75,1.22-3.14,1.43c1.48.24,2.67.75,3.57,1.52Z"/><path class="cls-3" d="M1168.01,159.56c-.25-.45-.38-.96-.38-1.52,0-1.13.28-2.33.84-3.59s1.21-2.44,1.97-3.55c.76-1.11,1.68-2.36,2.76-3.77l1.19-1.6h-5.23c-.87,0-1.56.1-2.06.31-.5.21-.91.52-1.2.93-.3.41-.59,1.01-.88,1.79-.02.06-.04.1-.07.12-.03.02-.07.02-.12.02l-.14-.02c-.09-.02-.15-.04-.17-.07-.02-.03-.04-.07-.04-.11l.05-.23,1.14-5.06c.02-.11.08-.16.18-.16h10.29c.11,0,.18.05.23.14l.12.23c.05.09.03.18-.04.25-1.42,2.15-2.5,3.98-3.24,5.49-.74,1.5-1.27,2.92-1.59,4.24-.32,1.32-.54,2.86-.64,4.62-.03.73-.21,1.29-.53,1.67s-.73.57-1.24.57c-.55,0-.95-.23-1.2-.68Z"/><path class="cls-3" d="M1191.44,155.54v.48c0,.12-.06.18-.18.18h-2.73v1.58c0,1.05.59,1.58,1.77,1.58h.27c.11,0,.16.09.16.28,0,.2-.05.3-.16.3h-6.97c-.11,0-.16-.1-.16-.3,0-.18.05-.28.16-.28h.28c1.16,0,1.75-.53,1.76-1.58v-1.58h-6.74c-.12,0-.18-.06-.18-.18v-.55c0-.08.02-.14.07-.21l8.73-12.31s.07-.06.11-.08.09-.03.14-.01l.62.14c.11.03.16.1.16.21l-.02,12.15h2.73c.12,0,.18.06.18.18ZM1185.72,147.03l-5.89,8.32h5.84l.05-8.32Z"/><path class="cls-3" d="M1193.64,161.98c.61-.64,1.19-1.37,1.74-2.18.55-.81,1.05-1.94,1.51-3.4s.69-3.18.69-5.17-.23-3.71-.69-5.17-.96-2.59-1.51-3.4c-.55-.81-1.13-1.54-1.74-2.18-.11-.11-.16-.2-.16-.27,0-.05.02-.09.06-.13s.07-.06.1-.06c.06,0,.15.04.27.11.58.4,1.29,1.02,2.11,1.87.83.85,1.62,2.07,2.37,3.66.76,1.59,1.13,3.45,1.13,5.57s-.38,3.98-1.13,5.57c-.76,1.59-1.55,2.81-2.37,3.66-.82.85-1.53,1.47-2.11,1.87-.12.08-.21.11-.27.11-.03,0-.07-.02-.1-.05-.04-.03-.06-.07-.06-.11,0-.08.05-.18.16-.3Z"/><text class="cls-8" transform="translate(950.59 212.36)"><tspan x="0" y="0">最終成果報告展</tspan></text><text class="cls-5" transform="translate(917.79 543.14)"><tspan class="cls-13" x="0" y="0">7</tspan><tspan x="34.7" y="0">.</tspan><tspan x="52.32" y="0">31</tspan><tspan x="125.07" y="0" xml:space="preserve"> - </tspan><tspan x="194.73" y="0">8</tspan><tspan x="238.06" y="0">.</tspan><tspan x="255.68" y="0">2</tspan></text><text class="cls-2" transform="translate(919.82 403.03)"><tspan class="cls-10" x="0" y="0">@</tspan><tspan class="cls-11" x="43.32" y="3.72" xml:space="preserve"> BaBaBa</tspan></text><text class="cls-4" transform="translate(817.57 544.13)"><tspan x="0" y="0">2026</tspan><tspan x="80.5" y="0">.</tspan></text><text class="cls-7" transform="translate(967.91 444.52)"><tspan x="0" y="0">高</tspan><tspan x="22.37" y="0">田</tspan><tspan x="44.73" y="0">馬</tspan><tspan x="67.1" y="0">場</tspan><tspan x="89.46" y="0">駅</tspan><tspan x="111.83" y="0">か</tspan><tspan x="134.2" y="0">ら</tspan><tspan x="156.56" y="0">徒</tspan><tspan class="cls-9" x="178.93" y="0">歩</tspan><tspan class="cls-9" x="206.89" y="-1.57">5</tspan><tspan class="cls-12" x="222.48" y="0">分</tspan></text><text class="cls-7" transform="translate(974.94 578.47)"><tspan x="0" y="0">金</tspan><tspan x="22.37" y="0">曜</tspan><tspan x="44.73" y="0">日</tspan></text><text class="cls-6" transform="translate(1146.649 578.4737)"><tspan x="0" y="0">日</tspan><tspan x="22.37" y="0">曜</tspan><tspan x="44.73" y="0">日</tspan></text></svg>