<?xml version="1.0" encoding="UTF-8"?><svg id="_レイヤー_2" xmlns="http://www.w3.org/2000/svg" viewBox="0 0 1196 898"><defs><style>.cls-1,.cls-2,.cls-3,.cls-4,.cls-5,.cls-6,.cls-7,.cls-8{fill:#3e3a39;}.cls-1,.cls-3,.cls-4,.cls-5,.cls-6{font-family:ATC-72695fc379d17814-83pv-RKSJ-H, ATC-72695fc379d17814;}.cls-9{letter-spacing:.25em;}.cls-10{font-size:60px;}.cls-11{font-size:72px;}.cls-12{letter-spacing:0em;}.cls-3{font-size:42.71px;}.cls-4{font-size:88.08px;}.cls-5{font-size:22.37px;}.cls-6{font-size:22.37px;}.cls-7{font-size:89.76px;glyph-orientation-vertical:0deg;letter-spacing:.35em;text-orientation:upright;writing-mode:tb;}.cls-7,.cls-8{font-family:ShipporiMincho-Bold, 'Shippori Mincho';font-weight:700;}.cls-13{letter-spacing:-.03em;}.cls-8{font-size:35.91px;}</style></defs><text class="cls-7" transform="translate(530.44 80.65)"><tspan x="0" y="0">モノに</tspan><tspan x="-134.64" y="0">こころを</tspan><tspan x="-269.28" y="0">あずけて</tspan><tspan x="-403.92" y="0">おりまして</tspan></text><path class="cls-2" d="M756.78,113.01c.12-.17.26-.38.41-.65.16-.26.29-.45.4-.57.11-.12.21-.18.3-.18.19,0,.72.41,1.6,1.24.87.83,1.41,1.43,1.6,1.81l.04.14c0,.19-.1.34-.29.45-.19.11-.41.16-.65.16h-4.78v2.01c1.75.6,3.03,1.33,3.86,2.21s1.24,1.74,1.24,2.6c0,.55-.16,1.01-.48,1.38-.32.37-.72.56-1.2.56-.43,0-.88-.16-1.33-.47-.07-.07-.13-.19-.18-.36-.22-1.41-.85-3.03-1.9-4.85v8.58c.05,2.99.14,5.73.29,8.22,0,.14-.04.26-.11.36-.31.31-.77.59-1.37.84s-1.28.38-2.05.38c-.33,0-.6-.07-.79-.22s-.29-.31-.29-.5c.1-1.22.17-2.43.23-3.63s.1-2.71.13-4.52v-4.45c-1.53,2.3-3.39,4.35-5.57,6.14-.14.12-.28.12-.4,0l-.04-.04c-.12-.12-.14-.25-.07-.4,1.27-1.8,2.38-3.91,3.34-6.34.96-2.43,1.71-4.94,2.26-7.52h-1.62c-.81.02-1.64.17-2.48.43h-.11c-.1,0-.18-.06-.25-.18l-.61-1.15s-.04-.11-.04-.18c0-.12.08-.17.25-.14,1.15.1,2.3.17,3.45.22h1.87v-5.64c-1.44.22-3.2.41-5.28.57-.19,0-.3-.08-.32-.25v-.07c0-.1.06-.18.18-.25,1.77-.65,3.61-1.48,5.51-2.51,1.9-1.03,3.43-1.99,4.58-2.87.14-.12.28-.12.4,0l3.99,3.66c.07.07.11.15.13.23.01.08-.03.14-.13.16-.19.1-.44.14-.75.14-.36,0-.78-.08-1.26-.25-.86.24-1.89.49-3.09.75v6.32h.54l.83-1.4ZM774.56,122.46c.07-.17.19-.41.34-.74.16-.32.28-.56.38-.72.09-.16.19-.23.29-.23.14,0,.48.2,1.02.59.54.4,1.04.82,1.51,1.27.47.46.7.77.7.93s-.07.32-.22.45c-.14.13-.32.22-.54.27l-4.49.9v3.41c.07,2.85.16,4.98.25,6.39,0,.14-.04.25-.11.32-.24.33-.69.65-1.35.95s-1.31.45-1.96.45c-.36,0-.62-.07-.79-.22-.17-.14-.25-.31-.25-.5.14-2.11.24-4.25.29-6.43v-3.59l-10.74,2.15h-.11c-.1,0-.18-.06-.25-.18l-.25-.47s-.04-.07-.04-.14c0-.12.07-.19.22-.22l11.17-2.19v-13.72c0-2.73-.14-5.06-.43-7,0-.24.11-.33.32-.29,1.89.43,3.18.77,3.88,1.01.69.24,1.04.46,1.04.65,0,.1-.1.2-.29.32l-.61.43v17.85l.29-.07.72-1.65ZM760.8,115.92c.07-.07.18-.1.32-.07,2.16.26,3.75.81,4.79,1.65,1.04.84,1.56,1.74,1.56,2.69,0,.6-.19,1.1-.56,1.51-.37.41-.83.61-1.38.61-.48,0-.92-.14-1.33-.43-.1-.05-.17-.16-.22-.32-.21-.89-.62-1.81-1.2-2.78-.59-.97-1.23-1.8-1.92-2.5-.14-.14-.17-.26-.07-.36ZM761.48,107.05c.07-.07.18-.1.32-.07,2.13.34,3.71.94,4.72,1.81s1.53,1.79,1.53,2.75c0,.6-.19,1.11-.56,1.53-.37.42-.82.63-1.35.63s-.97-.17-1.4-.5c-.1-.05-.17-.16-.21-.32-.19-.91-.57-1.87-1.13-2.87-.56-1.01-1.18-1.87-1.85-2.59-.14-.14-.17-.26-.07-.36Z"/><path class="cls-2" d="M802.1,115.99c.81-.77,1.53-1.52,2.16-2.26.05-.1.11-.14.2-.14s.15.04.2.11l2.12,2.33c.36-.89.81-2.2,1.37-3.95h-21.19c.02.22.04.53.04.93,0,1.05-.19,1.97-.56,2.75-.37.78-.84,1.35-1.42,1.71-.43.29-.89.43-1.37.43-.53,0-.98-.17-1.36-.52-.38-.35-.58-.83-.58-1.45,0-.45.14-.86.41-1.2.28-.35.63-.64,1.06-.88.62-.41,1.15-1.04,1.58-1.9s.65-1.8.65-2.8c0-.26-.01-.45-.04-.57v-.07c0-.07.02-.13.07-.18.05-.05.1-.07.14-.07.17,0,.29.07.36.22.41,1.01.69,1.89.86,2.66h14.76l.65-1.26c.48-1.03.93-2.16,1.36-3.39.43-1.23.74-2.34.93-3.32.05-.22.18-.29.4-.22,1.89.74,3.19,1.29,3.9,1.65.71.36,1.06.62,1.06.79,0,.07-.05.13-.14.16-.1.04-.16.05-.18.05l-.68.18c-2.01,2.11-4.06,3.89-6.14,5.35h5.31l1.04-1.19c.12-.14.29-.33.5-.56.21-.23.38-.4.5-.5.12-.11.23-.16.32-.16.19,0,.81.5,1.85,1.49,1.04.99,1.68,1.72,1.92,2.17.07.1.05.2-.07.32-.12.12-.26.2-.43.23-.17.04-.43.07-.79.09-.72.55-1.62,1.14-2.69,1.78-1.08.63-2.1,1.17-3.05,1.6l.93.9c.07.05.11.11.11.2s-.04.15-.11.2c-.12.07-.28.13-.48.18-.2.05-.45.08-.74.11-1.92,1.05-4.07,2.06-6.46,3.02l.43.04c.24.05.32.16.25.32-.12.31-.49.53-1.11.65v2.37h7.47l1.08-1.58c.12-.17.29-.4.5-.7.22-.3.39-.53.52-.68.13-.16.25-.23.34-.23.22,0,.88.47,1.99,1.42s1.78,1.62,1.99,2.03c.07.12.07.24,0,.36-.14.26-.46.4-.93.4h-12.96v6.32c0,1.1-.14,1.99-.41,2.66s-.82,1.22-1.63,1.63c-.81.42-2.04.71-3.66.88h-.07c-.12,0-.2-.08-.25-.25-.07-.67-.19-1.22-.34-1.65-.16-.43-.4-.8-.74-1.11-.38-.33-.86-.62-1.42-.86s-1.33-.45-2.32-.65c-.19-.05-.29-.14-.29-.29,0-.12.07-.18.21-.18.43,0,1.51.05,3.23.14,1.53.1,2.41.14,2.62.14.31,0,.52-.05.63-.14.11-.1.16-.27.16-.54v-6.1h-7.69c-1.53.02-3.24.18-5.14.47h-.11c-.1,0-.18-.06-.25-.18l-.65-1.22s-.04-.07-.04-.14c0-.12.09-.18.29-.18,1.29.12,2.74.2,4.35.25h9.23c0-1.36-.07-2.59-.22-3.66,0-.1.02-.17.07-.23.05-.06.12-.08.21-.05l2.95.43c1.32-1.46,2.36-2.73,3.12-3.81h-8.01c-1.53.02-3.24.18-5.13.47h-.11c-.1,0-.18-.06-.25-.18l-.65-1.26s-.04-.07-.04-.14c0-.12.08-.18.25-.18,1.32.12,2.78.2,4.38.25h9.84ZM787.02,103.68c.1-.07.22-.08.36-.04,2.03.46,3.53,1.13,4.49,2.03.96.9,1.44,1.83,1.44,2.78,0,.65-.19,1.19-.58,1.63-.38.44-.87.66-1.47.66-.46,0-.93-.18-1.44-.54-.1-.05-.17-.16-.21-.32-.12-.93-.42-1.92-.9-2.96-.48-1.04-1.03-2-1.65-2.89-.12-.19-.13-.31-.04-.36ZM794.79,103.3c.01-.06.04-.1.09-.13.09-.07.21-.07.36,0,1.82.57,3.15,1.31,4,2.19.85.89,1.27,1.78,1.27,2.69,0,.67-.21,1.24-.63,1.71-.42.47-.93.7-1.53.7-.55,0-1.13-.24-1.72-.72-.1-.1-.14-.22-.14-.36-.02-.96-.19-1.95-.5-2.98-.31-1.03-.7-1.99-1.15-2.87-.05-.1-.07-.17-.05-.23Z"/><path class="cls-2" d="M850.37,132.66c.14.02.22.1.22.22,0,.17-.1.26-.29.29-.77.17-1.43.54-1.99,1.13-.56.59-1.01,1.32-1.35,2.21-.07.22-.2.26-.39.14-3.16-1.48-5.77-3.34-7.83-5.57-3.3,2.61-7.36,4.5-12.17,5.67-.19.05-.31,0-.36-.14-.02-.02-.04-.06-.04-.11,0-.12.06-.2.18-.25,4.31-1.84,7.82-4.35,10.52-7.51-1.99-2.87-3.42-6.36-4.31-10.45h-.75c-.21.02-.47.12-.75.29-.19.14-.32.12-.39-.07l-.79-1.47c-1.03.91-2.44,2.01-4.24,3.3v11.71c0,1.03-.1,1.86-.3,2.48-.2.62-.62,1.12-1.26,1.51-.63.38-1.59.65-2.85.79h-.07c-.17,0-.25-.08-.25-.25-.07-1.22-.28-2.08-.61-2.59-.22-.31-.5-.56-.84-.75-.35-.19-.82-.36-1.42-.5-.17-.02-.25-.12-.25-.29,0-.14.07-.22.22-.22l1.87.07,1.33.07c.24,0,.41-.04.5-.13.1-.08.14-.25.14-.48v-8.66l-2.08,1.4c-.07.41-.26.71-.57.9l-.14.04c-.12,0-.2-.06-.25-.18l-1.54-4.27s-.04-.07-.04-.14c0-.12.07-.19.22-.22l4.42-1.33v-6.64h-1.33c-.62.02-1.3.16-2.05.4-.17.07-.29.02-.36-.14l-.61-1.19-.04-.14c0-.17.1-.23.29-.18.6.1,1.48.17,2.66.22h1.44v-1.33c0-2.73-.14-5.06-.43-7,0-.24.11-.33.32-.29,1.87.43,3.14.77,3.82,1.01s1.02.46,1.02.65c0,.1-.1.2-.29.32l-.65.4v6.25h.29l.79-1.4c.1-.17.22-.38.38-.65.16-.26.28-.45.38-.57.09-.12.19-.18.29-.18.12,0,.38.19.79.57.41.38.83.81,1.26,1.29l-.4-.75s-.04-.07-.04-.14c0-.12.09-.18.29-.18,1.29.12,2.74.2,4.35.25h2.73c0-2.51-.12-4.6-.36-6.25,0-.24.11-.33.32-.29,1.92.43,3.22.75,3.91.97s1.04.42,1.04.61c0,.1-.1.2-.29.32l-.61.43v4.2h3.2l1.01-1.47c.1-.12.25-.33.45-.63.2-.3.37-.52.5-.66.13-.14.25-.22.34-.22.22,0,.84.45,1.87,1.35s1.65,1.54,1.87,1.92c.07.12.07.24,0,.36-.14.26-.44.4-.9.4h-8.33v6.36h1.65l1.11-1.19c.17-.14.41-.38.72-.7.31-.32.54-.48.68-.48.19,0,.78.47,1.78,1.4.99.93,1.61,1.62,1.85,2.05.07.1.06.2-.04.32-.12.14-.28.25-.49.31-.2.06-.51.11-.92.16-1.34,3.76-3.26,6.94-5.75,9.55,2.49,1.65,5.49,2.98,9.01,3.99ZM834.5,117.25h2.23v-6.36h-2.33c-1.22.02-2.57.18-4.06.47.14.17.26.35.36.54.02.05.04.11.04.18,0,.17-.09.31-.27.41-.18.11-.39.16-.63.16h-4.2v5.39l3.99-1.36c.22-.07.33-.05.36.07l.04.18-.07.04c1.27.14,2.79.24,4.56.29ZM842.58,118.29h-9.34c1.1,3.21,2.9,5.95,5.39,8.22,1.77-2.49,3.09-5.23,3.95-8.22Z"/><path class="cls-2" d="M856.91,121.34c-1.17,1.22-2.29,2.23-3.34,3.02-.14.1-.28.08-.39-.04-.12-.12-.13-.25-.04-.4,1.24-1.72,2.42-3.84,3.52-6.36,1.05-2.39,1.7-4.53,1.94-6.39.02-.12.07-.19.12-.22.06-.02.14-.01.23.04,2.99,1.6,4.49,2.57,4.49,2.91,0,.1-.11.17-.32.22l-.68.11c-.72,1.17-1.48,2.27-2.3,3.3.96.69,1.44,1.17,1.44,1.44,0,.12-.12.24-.36.36l-.54.22v7.61c.05,2.99.14,5.73.29,8.22,0,.14-.05.26-.14.36-.29.26-.74.51-1.37.75-.62.24-1.25.36-1.87.36-.34,0-.6-.07-.79-.22-.19-.14-.29-.31-.29-.5.09-1.41.18-2.78.25-4.11.07-1.33.12-3.07.14-5.23v-5.46ZM858.65,103.06c.06-.02.14-.01.23.04l2.41,1.47c1.36.67,2.05,1.14,2.05,1.4,0,.12-.13.2-.4.25l-.65.11c-1,1.27-2.25,2.54-3.73,3.83-1.49,1.28-3.04,2.38-4.67,3.29-.14.1-.26.08-.36-.04-.12-.12-.12-.25,0-.4.77-.93,1.56-2.06,2.37-3.38.58-.98,1.1-2.05,1.58-3.2.48-1.15.83-2.2,1.04-3.16.02-.12.07-.19.13-.22ZM880.86,105.11c.12-.17.27-.38.45-.65.18-.26.32-.45.43-.57.11-.12.21-.18.31-.18.19,0,.75.41,1.67,1.22.92.81,1.49,1.41,1.71,1.8l.04.14c0,.19-.09.34-.27.45-.18.11-.4.16-.66.16h-7.54c.02.1.04.22.04.36,0,.41-.11.76-.32,1.06-.21.3-.5.51-.86.63l.79.61c.88.74,1.3,1.09,1.26,1.04.12.17.14.3.07.4-.14.24-.41.36-.79.36h-5.75v14.76c.05,2.97.14,5.72.29,8.26,0,.12-.04.23-.11.32-.26.33-.71.65-1.35.95-.63.3-1.26.45-1.89.45-.33,0-.6-.07-.79-.22s-.29-.31-.29-.5c.1-1.41.18-2.78.25-4.11.07-1.33.12-3.07.14-5.23v-9.37c-.14.05-.25.07-.32.07-.96,5.82-2.55,10.21-4.78,13.18-.12.17-.25.19-.4.07l-.07-.04c-.14-.07-.19-.2-.14-.4.55-1.82,1.03-4.12,1.44-6.9.19-1.41.29-2.96.29-4.63,0-.77-.05-1.7-.14-2.8v-.04c0-.1.03-.16.09-.2.06-.04.13-.04.2-.02l3.84.68v-4.31h-1.54c-.81.02-1.64.17-2.48.43h-.11c-.1,0-.18-.06-.25-.18l-.61-1.15s-.04-.11-.04-.18c0-.12.08-.17.25-.14,1,.12,2.03.19,3.09.22h1.69v-.32c0-2.73-.14-5.06-.43-7,0-.24.11-.33.32-.29,1.8.41,3.03.73,3.7.97.67.24,1.01.46,1.01.65,0,.1-.08.2-.25.32l-.61.43v5.24h1.33l1.47-1.83c-.1-.1-.14-.2-.14-.32-.05-.65-.19-1.32-.43-2.01-.24-.69-.53-1.33-.86-1.9-.07-.17-.06-.29.04-.36.14-.1.28-.11.4-.04,1.63.5,2.74,1.17,3.34,2.01h3.41l.9-1.36ZM872.06,115.85c0-.12.06-.2.18-.25h.04c.17-.07.3-.05.39.07,1.53,1.48,2.64,2.95,3.32,4.4.68,1.45,1.02,2.81,1.02,4.08,0,1.05-.21,1.92-.63,2.6-.42.68-.9,1.02-1.46,1.02-.48,0-.9-.27-1.26-.83-.07-.14-.11-.25-.11-.32.05-1.68-.04-3.48-.25-5.42-.21-1.94-.62-3.69-1.22-5.24-.02-.02-.04-.06-.04-.11ZM877.88,115.71c-.58.02-1.19.16-1.83.4-.17.07-.29.02-.36-.14l-.61-1.22-.04-.14c0-.14.09-.19.29-.14,1.08.12,2.18.19,3.3.22h1.72l.97-1.44c.1-.14.24-.36.43-.65.19-.29.35-.5.47-.63.12-.13.23-.2.32-.2.22,0,.81.44,1.8,1.31.98.87,1.57,1.5,1.76,1.89.05.1.07.16.07.18,0,.17-.1.31-.31.41s-.42.16-.66.16h-2.26v16.3c0,.98-.11,1.78-.32,2.41-.22.62-.65,1.14-1.29,1.56-.65.42-1.59.7-2.84.84h-.07c-.17,0-.25-.08-.25-.25-.05-.6-.11-1.1-.18-1.49-.07-.4-.19-.72-.36-.99-.5-.57-1.29-.98-2.37-1.22-.17-.02-.25-.12-.25-.29,0-.14.07-.22.21-.22.53,0,1.15.04,1.87.11l1.36.07c.24,0,.41-.05.5-.16s.14-.27.14-.48v-16.2h-1.22Z"/><path class="cls-2" d="M920.26,116.37c.5.49.98,1.02,1.44,1.58.46.56.68.93.68,1.1-.02.38-.32.57-.9.57h-4.2v7.4c.05,2.99.14,5.73.29,8.22,0,.14-.04.26-.11.36-.26.31-.69.59-1.28.83s-1.29.36-2.1.36c-.34,0-.6-.07-.81-.22-.2-.14-.31-.31-.31-.5.1-1.41.18-2.78.25-4.11.07-1.33.12-3.07.14-5.23v-7.11h-3.41c-.05,2.56-.31,4.85-.79,6.86-.48,2.01-1.42,3.91-2.84,5.71-1.41,1.8-3.46,3.34-6.14,4.63-.17.1-.29.08-.36-.04-.1-.14-.07-.26.07-.36,1.68-1.46,2.97-3.06,3.88-4.81.91-1.75,1.53-3.57,1.85-5.48s.5-4.08.52-6.52h-1.15c-.5.02-1.02.16-1.54.4l-.14.04c-.12,0-.2-.06-.25-.18l-.75-1.51v4.85c.05,2.99.14,5.73.29,8.22,0,.14-.05.26-.14.36-.29.24-.77.47-1.44.7-.67.23-1.26.34-1.76.34-.41,0-.66-.18-.75-.54,0-.14.01-.26.04-.36.02-.1.04-.2.04-.32s.02-.29.07-.5v-.86h-2.98v1.11l.11,1.87c.02.12.01.24-.04.36-.19.29-.55.55-1.08.79-.53.24-1.16.36-1.9.36-.26,0-.48-.07-.65-.22-.17-.14-.25-.31-.25-.5.17-2.15.28-4.52.32-7.11v-3.95c-1.03,1.44-1.88,2.51-2.55,3.23-.1.14-.23.16-.39.04l-.04-.04c-.14-.1-.18-.23-.11-.4,2.25-4.36,3.78-10.47,4.6-18.35h-1.33c-.62.02-1.3.16-2.05.4-.17.07-.29.02-.36-.14l-.61-1.22s-.04-.07-.04-.14c0-.12.08-.18.25-.18,1.32.12,2.78.2,4.38.25h4.6l1.94-2.55c.1-.14.23-.16.4-.04l3.09,2.66h11.74l.97-1.44c.09-.12.24-.32.43-.61.19-.29.35-.5.47-.63.12-.13.23-.2.32-.2.22,0,.81.43,1.78,1.29.97.86,1.56,1.48,1.78,1.87l.04.14c0,.19-.09.34-.27.45-.18.11-.4.16-.67.16h-3.27v11.06h.14l.79-1.47c.1-.14.22-.35.38-.63.16-.27.29-.48.4-.63.11-.14.21-.22.3-.22.14,0,.47.25.97.74ZM906.14,118.58v-11.06h-2.48c-.17,0-.25-.01-.25-.04l-.04-.04h-5.57c-.48,3.26-1.23,6.26-2.26,9.01l.57.25h2.16l.79-.93c.1-.1.22-.23.38-.41.16-.18.28-.31.38-.4.1-.08.19-.13.29-.13.22,0,.75.34,1.62,1.02.86.68,1.4,1.2,1.62,1.56.07.1.05.2-.07.32-.24.24-.56.4-.97.47v.07c.74.14,1.62.24,2.62.29h1.22ZM895.66,129.25h2.98v-11.49h-2.98v11.49ZM909.95,118.58h3.41v-11.06h-3.41v11.06Z"/><path class="cls-2" d="M946.01,121.67c.12-.12.27-.29.45-.5.18-.22.32-.38.43-.48.11-.11.21-.16.3-.16.22,0,.8.4,1.76,1.19.96.79,1.54,1.38,1.76,1.76.07.1.05.2-.07.32-.24.19-.58.32-1.01.4v7.11c0,.24.05.4.14.47s.32.11.68.11h3.56c.17-.02.3-.07.41-.13.11-.06.21-.16.3-.31.29-.5.75-1.76,1.4-3.77.02-.17.11-.25.25-.25.12,0,.18.1.18.29l.11,3.88c.5.22.84.46,1.01.74.17.28.25.63.25,1.06,0,.89-.47,1.55-1.4,1.99-.93.44-2.48.66-4.63.66h-2.66c-1.08,0-1.89-.11-2.42-.32-.54-.22-.9-.57-1.08-1.08s-.27-1.26-.27-2.26v-8.51h-4.67c-.67,3.21-2.15,5.88-4.44,8.01-2.29,2.13-5.81,3.73-10.58,4.81-.17.02-.29-.01-.36-.11l-.04-.07c0-.12.07-.2.22-.25,3.4-1.41,5.94-3.16,7.61-5.24s2.74-4.46,3.2-7.15h-3.16c-1.53.02-3.25.18-5.14.47h-.11c-.1,0-.18-.06-.25-.18l-.65-1.26s-.04-.07-.04-.14c0-.12.08-.18.25-.18,1.32.12,2.78.2,4.38.25h4.85c.05-.72.07-1.29.07-1.72,0-1.29-.1-2.49-.29-3.59v-.11c0-.14.08-.2.25-.18l5.75.47c.1,0,.17.03.22.09.05.06.06.14.04.23-.19.43-.6.68-1.22.75-.02,1.2-.14,2.55-.36,4.06h4.09l.9-1.15ZM952.11,106.73c.09-.1.25-.26.45-.48s.37-.4.5-.5.25-.16.34-.16c.19,0,.78.48,1.76,1.45.98.97,1.6,1.67,1.87,2.1.07.14.04.26-.11.36-.12.1-.28.16-.49.2-.2.04-.45.05-.74.05-.65.5-1.46,1.04-2.44,1.6s-1.92,1.04-2.8,1.42c-.17.05-.29.04-.36-.04-.1-.1-.11-.22-.04-.36.31-.79.69-1.95,1.15-3.48h-4.2v5.14c0,.24.05.4.16.47s.35.11.74.11h2.48c.96,0,1.58-.01,1.87-.04.09-.02.21-.04.36-.04.31-.05.54-.14.68-.29.31-.31.69-1.04,1.15-2.19.07-.14.17-.22.29-.22s.18.1.18.29l.11,2.15c.5.22.85.45,1.04.7.19.25.29.57.29.95,0,.6-.19,1.07-.56,1.4-.37.34-1.02.57-1.96.72s-2.25.22-3.95.22h-3.02c-1.1,0-1.93-.1-2.48-.29-.55-.19-.92-.52-1.11-.99s-.29-1.17-.29-2.1v-6h-3.16c-.6,3.09-1.94,5.55-4.02,7.38s-5.06,3.15-8.94,3.97c-.22.05-.34,0-.36-.14v-.11c0-.1.06-.17.18-.22,2.75-1.2,4.8-2.68,6.14-4.44s2.17-3.91,2.48-6.45h-3.77c.02,1.25-.17,2.31-.58,3.2-.41.89-.96,1.53-1.65,1.94-.38.24-.81.36-1.29.36-.6,0-1.13-.19-1.58-.57-.46-.38-.68-.92-.68-1.62,0-.48.15-.92.45-1.31.3-.4.7-.72,1.2-.99.72-.33,1.37-.89,1.94-1.67.58-.78.9-1.63.97-2.57,0-.19.07-.29.22-.29.17,0,.26.07.29.22.22.65.42,1.4.61,2.26h7.87c0-1.8-.08-3.29-.25-4.49,0-.24.11-.33.32-.29,1.87.41,3.16.72,3.88.95.72.23,1.08.43,1.08.59,0,.1-.08.19-.25.29l-.57.36v2.59h7.61l1.01-1.11Z"/><path class="cls-2" d="M991.88,112.29c.8.65,1.3,1.14,1.49,1.47.07.1.05.2-.07.32-.24.19-.6.32-1.08.4-.12.93-.28,1.64-.48,2.12-.2.48-.54.85-1.02,1.11-.58.31-1.47.49-2.69.54l1.04.86c.17.12.18.25.04.4-.24.22-.57.37-1.01.47v3.48c.07,2.9.16,5.08.25,6.54,0,.14-.05.26-.14.36-.29.24-.8.48-1.54.72-.74.24-1.4.36-1.97.36h-.4c-.19,0-.29-.1-.29-.29v-1.19h-10.56l2.12,1.72c1.24.74,1.87,1.23,1.87,1.47,0,.12-.22.2-.65.25l-.97.07c-1.53.84-3.53,1.57-5.98,2.19-2.45.62-4.94,1.03-7.45,1.22h-.07c-.12,0-.2-.07-.25-.22v-.07c0-.12.07-.2.22-.25,1.92-.62,3.77-1.41,5.57-2.37,2.3-1.24,4.02-2.59,5.17-4.02h-2.01v.86c0,.14-.17.32-.52.54-.35.22-.79.4-1.33.56-.54.16-1.06.23-1.56.23-.26,0-.49-.07-.67-.22-.18-.14-.27-.31-.27-.5.09-1.24.17-2.47.23-3.66.06-1.2.1-2.71.12-4.52v-4.45c-1.41.53-3.15.99-5.21,1.4h-.07c-.12,0-.2-.06-.25-.18v-.07c0-.07.07-.14.22-.22,4.19-1.41,7.04-3.33,8.55-5.75h-3.05l-.29,1.22c-.02.14-.1.25-.22.32-.46.19-.95.29-1.47.29-.43,0-.97-.07-1.62-.22-.19-.05-.26-.17-.22-.36l.04-.14c.26-1.08.48-2.26.66-3.56s.28-2.43.31-3.41c0-.26.11-.33.32-.22l3.91,1.65h3.12c.05-.81.07-1.42.07-1.83v-.65h-2.8c-1.49.02-3.12.18-4.92.47h-.07c-.12,0-.22-.06-.29-.18l-.65-1.22-.04-.14c0-.12.08-.18.25-.18,1.29.12,2.74.2,4.35.25h4.17c0-1.13-.05-2.06-.14-2.8,0-.24.11-.33.32-.29,1.7.43,2.86.75,3.48.97.62.22.93.41.93.57,0,.07-.1.18-.29.32l-.57.36v.86h3.48c0-1.13-.05-2.06-.14-2.8,0-.24.11-.33.32-.29,1.72.41,2.91.73,3.56.97.65.24.97.44.97.61,0,.1-.1.2-.29.32l-.61.4v.79h3.38l.79-.93c.12-.12.29-.31.5-.57.21-.26.39-.4.54-.4.22,0,.78.35,1.71,1.04.92.69,1.49,1.22,1.71,1.58.07.1.05.2-.07.32-.26.26-.63.44-1.11.54v1.04l.11,1.69c.05.17.02.28-.07.32-.24.24-.68.47-1.33.7s-1.23.34-1.76.34h-.4c-.19,0-.29-.1-.29-.29v-.9h-3.7v2.41h5.75l.75-.83c.1-.1.25-.26.47-.48.22-.23.4-.34.54-.34.22,0,.72.32,1.53.97ZM970.82,112.98c.33-.74.6-1.54.79-2.41h-3.77c-.22,1.01-.37,1.81-.47,2.41h3.45ZM988.81,113.98h-5.96v.86l.11,1.33.04.14c0,.26-.36.53-1.08.79-.72.26-1.46.4-2.23.4-.53,0-.79-.24-.79-.72.05-.43.07-.73.07-.9l.07-.72v-1.19h-5.21c-.98,1.44-2.41,2.66-4.27,3.66l1.69.72h12.46l1.65-1.87c.1-.14.23-.16.4-.04l1.72,1.36c-.02-.5-.17-.96-.43-1.36-.31-.34-.85-.6-1.62-.79-.17-.02-.25-.13-.25-.32,0-.14.07-.22.22-.22.33,0,.81.02,1.44.07l.83.04c.36,0,.62-.06.79-.18.17-.12.29-.48.36-1.08ZM971,121.81h13v-2.44h-13v2.44ZM971,125.37h13v-2.55h-13v2.55ZM971,128.96h13v-2.59h-13v2.59ZM975.24,110.57c-.14.77-.42,1.57-.83,2.41h4.63v-2.41h-3.81ZM975.56,107.77c0,.65-.05,1.25-.14,1.8h3.63v-2.48h-3.48v.68ZM978.9,131.62c0-.19.11-.29.32-.29,3.11.05,5.63.27,7.54.66,1.92.4,3.28.86,4.09,1.4.81.54,1.22,1.11,1.22,1.71,0,.48-.25.89-.74,1.24-.49.35-1.06.52-1.71.52s-1.28-.2-1.83-.61c-.93-.79-2.14-1.58-3.63-2.37-1.49-.79-3.17-1.46-5.06-2.01-.14-.05-.21-.13-.21-.25ZM986.55,107.09h-3.7v2.48h3.7v-2.48Z"/><path class="cls-2" d="M1033.74,119.62c.1-.17.24-.4.43-.68.19-.29.35-.5.47-.65.12-.14.23-.22.32-.22.19,0,.79.46,1.79,1.36,1.01.91,1.62,1.56,1.83,1.94.07.12.07.24,0,.36-.14.26-.44.4-.9.4h-9.59c1.2.98,2.77,1.75,4.71,2.32,1.94.56,3.9.92,5.89,1.06.19.05.29.14.29.29v.07c0,.12-.06.24-.18.36-1.32,1.15-2.08,2.51-2.3,4.09-.05.22-.17.28-.36.18-1.84-.79-3.59-1.93-5.23-3.43-1.64-1.5-2.97-3.14-4-4.94h-7.79c-1.2,1.94-2.87,3.63-5.01,5.06-2.14,1.44-4.64,2.62-7.49,3.56h-.11c-.12,0-.22-.05-.29-.14l-.04-.04s-.04-.07-.04-.14c0-.1.06-.18.18-.25,1.65-.96,3.13-2.14,4.44-3.54,1.3-1.4,2.38-2.9,3.21-4.51h-2.55c-1.53.05-2.98.2-4.35.47h-.11c-.1,0-.18-.06-.25-.18l-.65-1.22s-.04-.07-.04-.14c0-.12.09-.18.29-.18,1.29.12,2.74.2,4.35.25h3.48v-12.32h-2.12c-1.22.02-2.43.17-3.63.43-.19.05-.31,0-.36-.14l-.65-1.22s-.04-.07-.04-.14c0-.12.1-.18.29-.18,1.24.12,2.66.2,4.24.25h2.26c0-1.75-.08-3.22-.25-4.42,0-.24.11-.33.32-.29,1.87.41,3.15.73,3.84.97.69.24,1.04.44,1.04.61,0,.1-.08.2-.25.32l-.61.43v2.37h8.26c0-1.75-.08-3.22-.25-4.42,0-.24.11-.33.32-.29,1.89.41,3.2.73,3.91.97.72.24,1.08.44,1.08.61,0,.1-.1.2-.29.32l-.65.43v2.37h1.51l.9-1.44c.12-.17.27-.38.45-.65.18-.26.32-.46.43-.59.11-.13.21-.2.31-.2.22,0,.8.43,1.76,1.27.96.85,1.53,1.47,1.72,1.85.07.12.07.24,0,.36-.14.26-.44.4-.9.4h-6.18v12.32h2.12l.97-1.51ZM1026.81,127.38c.12-.14.27-.35.45-.61.18-.26.32-.45.43-.57.11-.12.21-.18.3-.18.22,0,.8.41,1.76,1.22.96.81,1.53,1.4,1.72,1.76.07.12.07.24,0,.36-.14.26-.44.4-.9.4h-6.18v5.14h5.75l1.11-1.58c.14-.17.32-.4.54-.7.22-.3.39-.52.52-.66.13-.14.25-.22.34-.22.22,0,.92.48,2.1,1.44,1.19.96,1.9,1.64,2.14,2.05l.07.14c0,.17-.1.31-.29.41-.19.11-.43.16-.72.16h-21.83c-1.53.02-3.24.18-5.14.47h-.11c-.1,0-.18-.06-.25-.18l-.65-1.26s-.04-.07-.04-.14c0-.12.08-.18.25-.18,1.32.12,2.78.2,4.38.25h7.61v-5.14h-2.26c-1.32.05-2.57.2-3.77.47h-.11c-.1,0-.18-.06-.25-.18l-.61-1.22s-.04-.07-.04-.14c0-.12.08-.18.25-.18,1.32.12,2.78.2,4.38.25h2.41c0-1.7-.1-3.26-.29-4.67,0-.24.11-.33.32-.29,1.89.38,3.2.69,3.91.93.72.24,1.08.44,1.08.61,0,.07-.08.17-.25.29l-.57.4v2.73h1.47l.93-1.36ZM1026.52,112.19v-3.38h-8.26v3.38h8.26ZM1026.52,113.23h-8.26v3.41h8.26v-3.41ZM1018.26,117.65v3.48h8.26v-3.48h-8.26Z"/><path class="cls-2" d="M1073.16,133.03c.78.9,1.26,1.55,1.45,1.96.02.12.01.24-.04.36-.14.26-.43.4-.86.4h-25.64c-1.53.02-3.24.18-5.13.47h-.11c-.1,0-.18-.06-.25-.18l-.61-1.22-.04-.14c0-.17.1-.23.29-.18.65.1,1.6.17,2.87.22h1.54v-3.59c0-2.61-.13-4.93-.39-6.97v-.07c0-.19.1-.25.29-.18l4.27,1.69h14.58l.75-1.11c.1-.12.22-.29.38-.5.16-.22.28-.38.38-.48.1-.11.19-.16.29-.16.21,0,.86.38,1.94,1.13,1.08.75,1.75,1.31,2.01,1.67.07.1.06.2-.04.32-.24.29-.71.48-1.4.57v7.69h.14l.79-1.51c.07-.12.19-.33.36-.63.17-.3.3-.52.41-.66.11-.14.21-.22.3-.22.19,0,.68.45,1.46,1.35ZM1043.22,117.5c-.1,0-.17-.07-.22-.22l-.83-3.27v-.11c0-.14.08-.22.25-.22,1.29-.07,2.21-.13,2.76-.18v-3.84c0-1.22-.06-2.43-.18-3.63v-.07c0-.1.02-.16.07-.2.05-.04.12-.03.22.02l3.52,1.47h.25c.1-.79.14-1.78.14-2.98v-1.08c0-.14.11-.22.32-.22,1.65.26,2.79.49,3.43.68.63.19.95.36.95.5,0,.07-.05.13-.14.18-.17.12-.26.18-.29.18l-.47.25c-.77.81-1.69,1.64-2.76,2.48h3.16l.65-1.01c.07-.1.17-.25.3-.45.13-.2.25-.35.34-.45.09-.1.19-.14.29-.14.22,0,.75.36,1.62,1.08.86.72,1.4,1.27,1.62,1.65.07.1.05.2-.07.32-.26.22-.61.37-1.04.47v3.88l1.22-.11h.11c.12,0,.18.08.18.25v.14c0,.12-.07.2-.21.25l-1.29.32v6.86c0,.86-.09,1.56-.27,2.08-.18.53-.54.95-1.08,1.27-.54.32-1.35.54-2.42.66h-.07c-.12,0-.2-.08-.25-.25-.05-.98-.2-1.66-.47-2.05-.21-.29-.48-.53-.79-.72-.24.14-.53.26-.86.36-.34.1-.63.14-.9.14h-.21c-.19,0-.29-.1-.29-.29v-2.69c0-1.1-.05-2.03-.14-2.8,0-.24.12-.32.36-.25,1.34.43,2.17.76,2.48.99.31.23.36.41.14.56l-.32.22v3.02l1.15.04c.22,0,.37-.05.45-.14.08-.1.13-.24.13-.43v-5.67c-1.6.43-3.44.9-5.5,1.4-.14,2.06-.62,3.93-1.42,5.62-.8,1.69-2.16,3.14-4.08,4.36-.12.07-.24.05-.36-.07-.12-.12-.12-.25,0-.4.91-1.2,1.57-2.51,1.98-3.95.41-1.44.66-3.04.75-4.81l-1.08.25c-.12.31-.35.54-.68.68l-.14.04ZM1048.32,108.31v5.03l5.42-.43v-4.6h-5.42ZM1049.08,108.92c.12-.07.24-.1.36-.07,1.05.22,1.84.54,2.35.97.51.43.77.89.77,1.36,0,.38-.14.71-.41.99-.28.28-.6.41-.99.41-.34,0-.66-.12-.97-.36-.12-.1-.18-.22-.18-.36-.02-.45-.12-.92-.3-1.38-.18-.47-.39-.87-.63-1.2-.1-.17-.1-.29,0-.36ZM1050.44,134.7h2.62v-8.08h-2.62v8.08ZM1074.57,121.09c.19.05.29.12.29.22-.02.17-.11.26-.25.29-1.2.48-1.99,1.56-2.37,3.23-.07.17-.19.24-.36.22-2.85-.84-5.11-1.93-6.79-3.27-2.42,1.27-5.27,2.15-8.55,2.66h-.07c-.12,0-.2-.07-.25-.22-.02-.02-.04-.07-.04-.14,0-.12.07-.19.21-.22,2.83-.89,5.18-2.08,7.08-3.59-1.08-1.17-1.95-2.63-2.62-4.38h-.57c-.12.02-.26.1-.43.22-.14.19-.28.18-.4-.04l-.72-1.36-.4.18c-.17.07-.29.04-.36-.11-.07-.12-.06-.25.04-.4.81-.93,1.34-1.93,1.58-3,.24-1.06.36-2.28.36-3.65v-1.8c0-.38-.02-.91-.07-1.58,0-.12.03-.2.09-.25.06-.05.14-.05.23,0l3.59,1.54h1.65l.72-1.04c.07-.1.19-.25.34-.45.16-.2.28-.35.38-.45.1-.1.19-.14.29-.14.19,0,.66.35,1.42,1.04.75.69,1.23,1.23,1.42,1.62.07.12.05.24-.07.36-.26.17-.56.29-.9.36v2.84c0,.19.02.31.07.34.05.04.17.05.36.05h1.54c.21,0,.38-.1.5-.29.26-.53.59-1.45.97-2.77.02-.17.12-.25.29-.25.12,0,.18.1.18.29l.11,2.8c.36.17.6.35.72.56.12.2.18.46.18.77,0,.65-.32,1.13-.97,1.44-.65.31-1.68.47-3.09.47h-.32c1.72,1.44,2.58,2.35,2.58,2.73,0,.12-.12.22-.36.29l-.65.14c-.81,1.32-1.87,2.5-3.16,3.56,1.77.55,3.96.95,6.57,1.19ZM1056.62,134.7h2.77v-8.08h-2.77v8.08ZM1067.32,114.84l1.72-1.65h-.68c-.79,0-1.36-.08-1.72-.25s-.6-.44-.72-.81c-.12-.37-.18-.93-.18-1.67v-3.81h-2.48v1.04c0,3.14-1.44,5.44-4.31,6.9,1.34.12,2.84.2,4.49.25h3.88ZM1067.21,115.89h-5.53c.84,1.1,1.99,2.06,3.45,2.87.84-.91,1.53-1.87,2.08-2.87ZM1062.97,134.7h2.69v-8.08h-2.69v8.08Z"/><path class="cls-2" d="M1086.95,133.55c-.04-.07-.05-.18-.05-.32,0-.29.08-.43.25-.43h.43c.91,0,1.64-.2,2.19-.61.55-.41.83-1.17.83-2.3v-18.96c0-1.12-.28-1.89-.83-2.28s-1.28-.59-2.19-.59h-.43c-.1,0-.16-.04-.2-.11-.04-.07-.05-.18-.05-.32,0-.29.08-.43.25-.43l8.01-.04c2.71,0,4.57.01,5.6.04,1.58.02,3.04.29,4.38.79,1.34.5,2.41,1.23,3.21,2.17.8.95,1.2,2.04,1.2,3.29,0,1.6-.66,2.9-1.99,3.9-1.33.99-2.99,1.73-4.97,2.21,2.35.5,4.34,1.31,5.98,2.42,1.64,1.11,2.46,2.58,2.46,4.4,0,1.48-.46,2.78-1.38,3.88-.92,1.1-2.15,1.95-3.68,2.53-1.53.59-3.2.88-4.99.88l-5.96.04-7.87-.04c-.1,0-.16-.04-.2-.11ZM1096.16,119.01c3.16,0,5.3-.51,6.43-1.54,1.12-1.03,1.69-2.42,1.69-4.17,0-1.48-.5-2.7-1.49-3.65s-2.5-1.42-4.51-1.42c-1.05,0-1.81.17-2.26.52-.46.35-.68.93-.68,1.74v8.51h.83ZM1099.07,132.59c2.04,0,3.66-.53,4.87-1.58,1.21-1.05,1.81-2.61,1.81-4.67,0-1.92-.69-3.44-2.06-4.56-1.38-1.12-3.88-1.69-7.52-1.69h-.83v10.24c0,.86.23,1.45.68,1.78s1.22.48,2.3.48h.75Z"/><path class="cls-2" d="M841.57,175.54c-.57-.37-1.27-.98-2.11-1.85-.84-.86-1.64-2.09-2.38-3.68-.75-1.59-1.12-3.45-1.12-5.57s.37-3.98,1.12-5.57c.75-1.59,1.54-2.81,2.38-3.68.84-.86,1.54-1.48,2.11-1.84.12-.08.21-.11.25-.11s.09.02.13.06c.04.04.06.08.06.13s-.05.14-.16.27c-.61.64-1.19,1.37-1.74,2.18-.55.81-1.05,1.94-1.51,3.4-.46,1.46-.69,3.18-.69,5.17s.22,3.65.67,5.09c.44,1.44.94,2.57,1.48,3.39.54.82,1.12,1.56,1.73,2.2l.14.16s.03.06.06.1c.02.04.03.07.03.1,0,.05-.02.08-.06.11s-.08.05-.13.05-.13-.04-.25-.11Z"/><path class="cls-2" d="M844.35,176.74c-.47-.21-.83-.48-1.09-.8-.26-.32-.39-.64-.39-.96,0-.37.11-.65.33-.86s.47-.31.74-.31c.43,0,.84.18,1.24.53.21.17.51.49.89.96.2.23.37.4.52.53.15.12.29.18.45.18.12,0,.26-.05.41-.14l.16-.16c.3-.31.53-.87.66-1.68s.21-1.99.21-3.52v-11.8c0-.73-.18-1.23-.54-1.48-.36-.25-.83-.38-1.41-.38h-.3c-.11,0-.16-.09-.16-.27,0-.2.05-.3.16-.3h7.43c.12,0,.18.1.18.3,0,.18-.06.27-.18.27h-.27c-.57,0-1.03.13-1.39.39-.36.26-.54.75-.54,1.47l.02,11.94c0,1.59-.31,2.86-.92,3.82-.61.95-1.34,1.63-2.19,2.02-.85.39-1.66.58-2.44.58-.6,0-1.13-.11-1.59-.32Z"/><path class="cls-2" d="M859.01,172.59c-.2-.09-.39-.14-.57-.14-.2,0-.4.06-.61.18-.21.12-.44.31-.7.55-.06.06-.11.08-.16.07-.05-.02-.08-.06-.09-.14l-.99-4.24-.05-.21s.02-.06.06-.09c.04-.03.08-.05.11-.07.04-.01.06-.03.08-.05.03-.02.08-.02.14-.02s.14.06.25.18c1.71,2.6,3.78,3.9,6.21,3.9.98,0,1.8-.25,2.46-.76.67-.5,1-1.25,1-2.25,0-1.16-.63-2.02-1.9-2.59-.63-.28-1.47-.58-2.52-.92-.14-.05-.48-.16-1.03-.34-.55-.18-1.04-.38-1.47-.6-1.8-.92-2.7-2.29-2.7-4.13,0-.69.16-1.41.48-2.15.32-.75.88-1.39,1.68-1.94.8-.54,1.87-.81,3.2-.81.47,0,.94.05,1.39.16.45.11,1,.27,1.64.48.24.09.46.14.64.14.37,0,.73-.19,1.1-.57.12-.12.21-.11.25.05l1.1,3.71.02.05c.03.11.02.18-.02.23-.03.03-.08.06-.16.09-.09.03-.16.05-.21.05-.08,0-.15-.05-.23-.14-.18-.31-.51-.72-.99-1.25-.47-.53-1.11-1.02-1.91-1.49-.8-.47-1.7-.7-2.69-.7-.89,0-1.57.19-2.04.56-.47.38-.79.78-.94,1.2-.15.43-.23.79-.23,1.1,0,.98.5,1.73,1.51,2.27.32.17.74.35,1.27.54.53.19,1.07.38,1.62.56,1.28.41,2.25.76,2.89,1.05,1.08.52,1.86,1.15,2.31,1.89.46.74.69,1.54.69,2.4,0,.95-.23,1.8-.7,2.57-.47.76-1.15,1.37-2.05,1.81s-1.98.66-3.23.66c-1.15,0-2.45-.29-3.92-.87Z"/><path class="cls-2" d="M882.47,156.9c.91.36,1.64.86,2.19,1.51.55.65.83,1.42.83,2.33,0,1.08-.34,1.97-1.02,2.65-.68.68-1.5,1.17-2.48,1.47-.97.3-1.96.47-2.97.52-.41.02-1,.02-1.76.02h-.89v5.36c0,.72.18,1.21.53,1.47s.82.39,1.4.39h.27c.11,0,.16.08.16.25,0,.2-.05.3-.16.3h-7.43c-.11,0-.16-.1-.16-.3,0-.17.05-.25.16-.25h.3c.57,0,1.03-.13,1.39-.39.36-.26.54-.75.54-1.47v-12.08c0-.72-.18-1.2-.53-1.46s-.82-.38-1.4-.38h-.3c-.11,0-.16-.1-.16-.3,0-.18.05-.27.16-.27h8.39c1.05.06,2.04.27,2.95.63ZM881.28,163.57c.62-.71.93-1.68.93-2.92,0-.87-.22-1.59-.65-2.15-.44-.56-.96-.97-1.57-1.21-.61-.24-1.19-.37-1.74-.37-1.25,0-1.88.49-1.88,1.47v6.35h1.72c1.51-.06,2.58-.45,3.2-1.16Z"/><path class="cls-2" d="M890.5,172.59c-.2-.09-.39-.14-.57-.14-.2,0-.4.06-.61.18-.21.12-.44.31-.7.55-.06.06-.11.08-.16.07-.05-.02-.08-.06-.09-.14l-.99-4.24-.05-.21s.02-.06.06-.09c.04-.03.08-.05.11-.07.04-.01.06-.03.08-.05.03-.02.08-.02.14-.02s.14.06.25.18c1.71,2.6,3.78,3.9,6.21,3.9.98,0,1.8-.25,2.46-.76.67-.5,1-1.25,1-2.25,0-1.16-.63-2.02-1.9-2.59-.63-.28-1.47-.58-2.52-.92-.14-.05-.48-.16-1.03-.34-.55-.18-1.04-.38-1.47-.6-1.8-.92-2.7-2.29-2.7-4.13,0-.69.16-1.41.48-2.15.32-.75.88-1.39,1.68-1.94.8-.54,1.87-.81,3.2-.81.47,0,.94.05,1.39.16.45.11,1,.27,1.64.48.24.09.46.14.64.14.37,0,.73-.19,1.1-.57.12-.12.21-.11.25.05l1.1,3.71.02.05c.03.11.02.18-.02.23-.03.03-.08.06-.16.09-.09.03-.16.05-.21.05-.08,0-.15-.05-.23-.14-.18-.31-.51-.72-.99-1.25-.47-.53-1.11-1.02-1.91-1.49-.8-.47-1.7-.7-2.69-.7-.89,0-1.57.19-2.04.56-.47.38-.79.78-.94,1.2-.15.43-.23.79-.23,1.1,0,.98.5,1.73,1.51,2.27.32.17.74.35,1.27.54.53.19,1.07.38,1.62.56,1.28.41,2.25.76,2.89,1.05,1.08.52,1.86,1.15,2.31,1.89.46.74.69,1.54.69,2.4,0,.95-.23,1.8-.7,2.57-.47.76-1.15,1.37-2.05,1.81s-1.98.66-3.23.66c-1.15,0-2.45-.29-3.92-.87Z"/><path class="cls-2" d="M915.32,159.98c.08-.11.16-.24.26-.41.1-.17.18-.29.25-.37.07-.08.13-.11.2-.11.12,0,.46.26,1.02.79.56.53.9.91,1.02,1.16l.02.09c0,.12-.06.22-.18.29s-.26.1-.41.1h-3.05v1.28c1.12.38,1.94.85,2.46,1.41.53.56.79,1.11.79,1.66,0,.35-.1.65-.31.88s-.46.35-.77.35c-.28,0-.56-.1-.85-.3-.04-.05-.08-.12-.11-.23-.14-.9-.54-1.93-1.21-3.09v5.48c.03,1.91.09,3.66.18,5.25,0,.09-.02.17-.07.23-.2.2-.49.38-.87.54-.38.16-.82.24-1.31.24-.21,0-.38-.05-.5-.14-.12-.09-.18-.2-.18-.32.06-.78.11-1.55.15-2.31s.07-1.73.08-2.89v-2.84c-.98,1.47-2.16,2.77-3.55,3.92-.09.08-.18.08-.25,0l-.02-.02c-.08-.08-.09-.16-.05-.25.81-1.15,1.52-2.49,2.13-4.04s1.09-3.15,1.44-4.8h-1.03c-.52.02-1.05.11-1.58.27h-.07c-.06,0-.12-.04-.16-.11l-.39-.73s-.02-.07-.02-.11c0-.08.05-.11.16-.09.73.06,1.47.11,2.2.14h1.19v-3.6c-.92.14-2.04.26-3.37.37-.12,0-.19-.05-.21-.16v-.05c0-.06.04-.11.12-.16,1.13-.41,2.3-.95,3.52-1.6s2.19-1.27,2.92-1.83c.09-.08.17-.08.25,0l2.54,2.34s.07.1.08.15c0,.05-.02.09-.08.1-.12.06-.28.09-.48.09-.23,0-.5-.05-.8-.16-.55.15-1.21.31-1.97.48v4.03h.34l.53-.89ZM926.67,166.01c.05-.11.12-.26.22-.47.1-.21.18-.36.24-.46.06-.1.12-.15.18-.15.09,0,.31.13.65.38.34.25.67.52.96.81.3.29.45.49.45.6s-.05.2-.14.29-.21.14-.34.17l-2.87.57v2.18c.05,1.82.1,3.18.16,4.08,0,.09-.02.16-.07.21-.15.21-.44.42-.86.61-.42.19-.84.29-1.25.29-.23,0-.4-.05-.5-.14-.11-.09-.16-.2-.16-.32.09-1.34.15-2.71.18-4.1v-2.29l-6.85,1.38h-.07c-.06,0-.11-.04-.16-.11l-.16-.3s-.02-.05-.02-.09c0-.08.05-.12.14-.14l7.13-1.4v-8.76c0-1.74-.09-3.23-.27-4.47,0-.15.07-.21.21-.18,1.21.27,2.03.49,2.47.64s.67.29.67.41c0,.06-.06.13-.18.21l-.39.27v11.39l.18-.05.46-1.05ZM917.89,161.84s.11-.06.21-.05c1.38.17,2.39.52,3.06,1.05.67.54,1,1.11,1,1.72,0,.38-.12.7-.36.96-.24.26-.53.39-.88.39-.31,0-.59-.09-.85-.27-.06-.03-.11-.1-.14-.21-.14-.57-.39-1.16-.77-1.78-.37-.62-.78-1.15-1.23-1.59-.09-.09-.11-.17-.05-.23ZM918.33,156.18s.11-.06.21-.05c1.36.21,2.36.6,3.01,1.16s.97,1.14.97,1.75c0,.38-.12.71-.35.97-.24.27-.52.4-.86.4s-.62-.11-.89-.32c-.06-.03-.11-.1-.14-.21-.12-.58-.36-1.19-.72-1.83-.36-.64-.75-1.19-1.18-1.65-.09-.09-.11-.17-.05-.23Z"/><path class="cls-2" d="M950.89,162.12c.32.31.63.65.92,1.01.29.36.44.59.44.7-.02.24-.21.37-.57.37h-2.68v4.72c.03,1.91.09,3.66.18,5.25,0,.09-.02.17-.07.23-.17.2-.44.37-.81.53-.37.15-.82.23-1.34.23-.21,0-.39-.05-.52-.14s-.19-.2-.19-.32c.06-.9.11-1.78.16-2.62.05-.85.08-1.96.09-3.33v-4.54h-2.18c-.03,1.64-.2,3.09-.5,4.38-.31,1.28-.91,2.5-1.81,3.64-.9,1.15-2.21,2.13-3.92,2.96-.11.06-.18.05-.23-.02-.06-.09-.05-.17.05-.23,1.07-.93,1.89-1.96,2.48-3.07.58-1.11.97-2.28,1.18-3.5.21-1.21.32-2.6.33-4.16h-.73c-.32.02-.65.1-.99.25l-.09.02c-.08,0-.13-.04-.16-.11l-.48-.96v3.09c.03,1.91.09,3.66.18,5.25,0,.09-.03.17-.09.23-.18.15-.49.3-.92.45-.43.15-.8.22-1.12.22-.26,0-.42-.11-.48-.34,0-.09,0-.17.02-.23s.02-.13.02-.21.01-.18.05-.32v-.55h-1.9v.71l.07,1.19c.01.08,0,.15-.02.23-.12.18-.35.35-.69.5-.34.15-.74.23-1.21.23-.17,0-.31-.05-.41-.14-.11-.09-.16-.2-.16-.32.11-1.38.18-2.89.21-4.54v-2.52c-.66.92-1.2,1.6-1.63,2.06-.06.09-.15.1-.25.02l-.02-.02c-.09-.06-.11-.15-.07-.25,1.44-2.78,2.41-6.68,2.93-11.71h-.85c-.4.02-.83.1-1.31.25-.11.05-.18.02-.23-.09l-.39-.78s-.02-.05-.02-.09c0-.08.05-.11.16-.11.84.08,1.77.13,2.8.16h2.93l1.24-1.63c.06-.09.14-.1.25-.02l1.97,1.7h7.5l.62-.92c.06-.08.15-.21.28-.39.12-.18.22-.32.3-.4.08-.08.15-.13.21-.13.14,0,.52.27,1.13.83.62.55,1,.95,1.13,1.19l.02.09c0,.12-.06.22-.17.29-.11.07-.26.1-.42.1h-2.09v7.06h.09l.5-.94c.06-.09.14-.23.24-.4.1-.18.18-.31.25-.4.07-.09.13-.14.2-.14.09,0,.3.16.62.47ZM941.89,163.53v-7.06h-1.58c-.11,0-.16,0-.16-.02l-.02-.02h-3.55c-.31,2.08-.79,4-1.44,5.75l.37.16h1.38l.5-.6c.06-.06.14-.15.24-.26.1-.11.18-.2.24-.25.06-.05.12-.08.18-.08.14,0,.48.22,1.03.65s.89.77,1.03,1c.05.06.03.13-.05.21-.15.15-.36.25-.62.3v.05c.47.09,1.03.15,1.67.18h.78ZM935.19,170.34h1.9v-7.33h-1.9v7.33ZM944.32,163.53h2.18v-7.06h-2.18v7.06Z"/><path class="cls-2" d="M973.69,159.52c.51.41.83.73.95.94.05.06.03.13-.05.21-.15.12-.38.21-.69.25-.08.6-.18,1.05-.31,1.35s-.35.54-.65.71c-.37.2-.94.31-1.72.34l.67.55c.11.08.11.16.02.25-.15.14-.37.24-.64.3v2.22c.05,1.85.1,3.24.16,4.17,0,.09-.03.17-.09.23-.18.15-.51.31-.99.46-.47.15-.89.23-1.26.23h-.25c-.12,0-.18-.06-.18-.18v-.76h-6.74l1.35,1.1c.79.47,1.19.79,1.19.94,0,.08-.14.13-.41.16l-.62.05c-.98.53-2.25,1-3.82,1.4-1.57.4-3.15.66-4.76.78h-.05c-.08,0-.13-.05-.16-.14v-.05c0-.08.05-.13.14-.16,1.22-.4,2.41-.9,3.55-1.51,1.47-.79,2.57-1.65,3.3-2.57h-1.28v.55c0,.09-.11.21-.33.34s-.5.26-.85.35c-.34.1-.68.15-1,.15-.17,0-.31-.05-.42-.14s-.17-.2-.17-.32c.06-.79.11-1.57.15-2.34.04-.76.07-1.73.08-2.89v-2.84c-.9.34-2.01.63-3.32.89h-.04c-.08,0-.13-.04-.16-.11v-.05s.05-.09.14-.14c2.67-.9,4.49-2.12,5.46-3.67h-1.95l-.18.78c-.02.09-.06.16-.14.21-.29.12-.6.18-.94.18-.28,0-.62-.05-1.03-.14-.12-.03-.17-.11-.14-.23l.02-.09c.17-.69.31-1.44.42-2.27.11-.83.18-1.55.19-2.18,0-.17.07-.21.21-.14l2.5,1.05h1.99c.03-.52.05-.91.05-1.17v-.41h-1.79c-.95.02-1.99.11-3.14.3h-.04c-.08,0-.14-.04-.18-.11l-.41-.78-.02-.09c0-.08.05-.11.16-.11.83.08,1.75.13,2.77.16h2.66c0-.72-.03-1.31-.09-1.79,0-.15.07-.21.21-.18,1.08.27,1.83.48,2.22.62.4.14.6.26.6.37,0,.05-.06.11-.18.21l-.37.23v.55h2.22c0-.72-.03-1.31-.09-1.79,0-.15.07-.21.21-.18,1.1.26,1.86.47,2.27.62.41.15.62.28.62.39,0,.06-.06.13-.18.21l-.39.25v.5h2.15l.5-.6c.08-.08.18-.2.32-.37.14-.17.25-.25.34-.25.14,0,.5.22,1.09.66.59.44.95.78,1.09,1.01.05.06.03.13-.05.21-.17.17-.4.28-.71.34v.66l.07,1.08c.03.11.02.18-.05.21-.15.15-.44.3-.85.45-.41.15-.79.22-1.12.22h-.25c-.12,0-.18-.06-.18-.18v-.57h-2.36v1.54h3.67l.48-.53c.06-.06.16-.16.3-.31.14-.15.25-.22.34-.22.14,0,.46.21.97.62ZM960.24,159.96c.21-.47.38-.99.5-1.54h-2.41c-.14.64-.24,1.15-.3,1.54h2.2ZM971.73,160.6h-3.8v.55l.07.85.02.09c0,.17-.23.34-.69.5-.46.17-.93.25-1.42.25-.34,0-.5-.15-.5-.46.03-.28.05-.47.05-.57l.05-.46v-.76h-3.32c-.63.92-1.54,1.7-2.73,2.34l1.08.46h7.95l1.05-1.19c.06-.09.15-.1.25-.02l1.1.87c-.02-.32-.11-.61-.28-.87-.2-.21-.54-.38-1.03-.5-.11-.02-.16-.08-.16-.21,0-.09.05-.14.14-.14.21,0,.52.02.92.05l.53.02c.23,0,.4-.04.5-.11.11-.08.18-.31.23-.69ZM960.36,165.6h8.3v-1.56h-8.3v1.56ZM960.36,167.87h8.3v-1.63h-8.3v1.63ZM960.36,170.16h8.3v-1.65h-8.3v1.65ZM963.06,158.42c-.09.49-.27,1-.53,1.54h2.96v-1.54h-2.43ZM963.27,156.64c0,.41-.03.79-.09,1.15h2.32v-1.58h-2.22v.44ZM965.4,171.85c0-.12.07-.18.21-.18,1.99.03,3.59.17,4.81.42,1.22.25,2.09.55,2.61.89s.78.71.78,1.09c0,.31-.16.57-.47.79-.31.22-.68.33-1.09.33s-.82-.13-1.17-.39c-.6-.5-1.37-1.01-2.31-1.51-.95-.5-2.02-.93-3.23-1.28-.09-.03-.14-.08-.14-.16ZM970.28,156.2h-2.36v1.58h2.36v-1.58Z"/><path class="cls-2" d="M994.22,170.24c-.24.91-.4,1.56-.49,1.94l-.21.82c-.02.11-.08.16-.21.16h-10.06c-.12,0-.2-.05-.23-.14l-.07-.16c-.03-.08-.03-.15,0-.23.43-1.15,1.04-2.22,1.85-3.21.8-.99,1.87-2.18,3.2-3.55.82-.87,1.46-1.58,1.89-2.14s.77-1.12,1.01-1.7c.24-.57.36-1.21.36-1.91,0-.99-.26-1.78-.79-2.36-.53-.58-1.28-.87-2.26-.87-.7,0-1.3.15-1.79.45-.49.3-.73.7-.73,1.2,0,.21.05.39.14.53.09.14.23.3.41.48.2.2.35.38.45.54.1.16.15.37.15.63,0,.47-.16.85-.47,1.12-.31.27-.71.41-1.18.41-.25,0-.5-.08-.77-.25-.27-.17-.49-.41-.67-.72-.18-.31-.26-.68-.26-1.11,0-.66.21-1.3.64-1.94.43-.63,1.04-1.15,1.83-1.56.79-.4,1.71-.61,2.75-.61,1.16,0,2.17.2,3.01.6.85.4,1.49.94,1.93,1.63.44.69.65,1.47.65,2.34,0,.81-.17,1.51-.5,2.11-.34.6-.76,1.1-1.27,1.52-.51.42-1.22.93-2.12,1.52-.64.43-1.13.76-1.47,1.01-1.45,1.02-2.71,2.35-3.78,3.96h3.44c1.24,0,2.19-.06,2.85-.19.66-.13,1.2-.37,1.59-.72s.77-.89,1.12-1.63c.01-.08.07-.11.16-.11.03,0,.08.02.14.05.08.03.13.06.17.08s.06.06.06.1c0,.03-.02.08-.05.16-.05.26-.19.84-.42,1.75Z"/><path class="cls-2" d="M1007.39,165.7c.9.77,1.35,1.73,1.35,2.88,0,1.01-.31,1.88-.94,2.62-.63.74-1.44,1.3-2.44,1.68s-2.05.57-3.15.57-1.99-.17-2.81-.52-1.45-.81-1.9-1.39c-.45-.58-.68-1.2-.68-1.86,0-.55.17-.97.52-1.27s.72-.45,1.13-.45c.47,0,.88.12,1.2.35.33.24.49.59.49,1.07,0,.2-.03.37-.1.5-.07.14-.18.31-.33.5-.24.24-.37.48-.37.71,0,.49.24.86.72,1.12.48.26,1.13.39,1.94.39,1.12,0,1.97-.4,2.56-1.21s.88-1.81.88-3-.29-2.07-.87-2.76c-.58-.7-1.47-1.04-2.68-1.04-.14,0-.31.02-.5.05-.2.03-.37.05-.53.05-.17,0-.31-.05-.42-.15-.12-.1-.17-.23-.17-.4,0-.14.06-.25.17-.34.11-.09.25-.14.42-.14.15,0,.35.02.6.05l.57.02c.76,0,1.42-.22,1.98-.66.56-.44.84-1.36.84-2.75,0-1.25-.27-2.14-.81-2.67-.54-.53-1.22-.79-2.03-.79-.5,0-.95.11-1.34.34-.39.23-.58.56-.58.99,0,.24.09.5.27.78.2.29.3.57.3.85,0,.4-.12.72-.37.97-.25.25-.58.38-1.01.38-.5,0-.91-.16-1.2-.47s-.45-.76-.45-1.34c0-.52.21-1.04.63-1.56.42-.52.99-.94,1.72-1.27s1.52-.49,2.4-.49c1.01,0,1.94.16,2.8.48s1.54.79,2.05,1.41.77,1.36.77,2.21c0,.99-.35,1.86-1.05,2.6-.7.74-1.75,1.22-3.14,1.43,1.48.24,2.67.75,3.58,1.52Z"/><path class="cls-2" d="M1029.12,172.89c0,.18-.05.27-.16.27h-7.68c-.11,0-.16-.09-.16-.27,0-.2.05-.3.16-.3.49,0,.86-.05,1.11-.16s.38-.28.38-.53c0-.26-.18-.63-.53-1.12l-2.57-3.32-1.9-2.45-.8.83-.64.66v4.26c0,.72.18,1.2.53,1.46s.82.38,1.4.38h.27c.11,0,.16.09.16.27,0,.2-.05.3-.16.3h-7.43c-.11,0-.16-.1-.16-.3,0-.18.05-.27.16-.27h.3c.58,0,1.04-.13,1.39-.39s.52-.74.52-1.44v-12.08c0-.72-.18-1.2-.53-1.46-.35-.25-.81-.38-1.38-.38h-.3c-.11,0-.16-.1-.16-.3,0-.18.05-.27.16-.27h7.43c.12,0,.18.09.18.27,0,.2-.06.3-.18.3h-.27c-.6,0-1.07.13-1.41.38s-.52.74-.52,1.46v6.6c1.22-1.28,2.51-2.64,3.86-4.08,1.35-1.44,2.17-2.32,2.46-2.66.23-.27.34-.53.34-.76,0-.29-.16-.52-.48-.7-.32-.18-.76-.26-1.31-.26-.11,0-.16-.1-.16-.3,0-.17.05-.25.16-.25h6.76c.12,0,.18.08.18.25,0,.2-.06.3-.18.3-1.42,0-2.74.58-3.94,1.74-.23.2-1.47,1.47-3.71,3.8l-.41.41,1.19,1.58c2.46,3.33,3.99,5.36,4.58,6.1.47.6.84,1.03,1.11,1.29.27.27.57.47.91.62s.76.22,1.26.22c.11,0,.16.1.16.3Z"/><path class="cls-2" d="M1041.64,170.24c-.24.91-.4,1.56-.49,1.94l-.21.82c-.02.11-.08.16-.21.16h-10.06c-.12,0-.2-.05-.23-.14l-.07-.16c-.03-.08-.03-.15,0-.23.43-1.15,1.04-2.22,1.85-3.21.8-.99,1.87-2.18,3.2-3.55.82-.87,1.46-1.58,1.89-2.14s.77-1.12,1.01-1.7c.24-.57.36-1.21.36-1.91,0-.99-.26-1.78-.79-2.36-.53-.58-1.28-.87-2.26-.87-.7,0-1.3.15-1.79.45-.49.3-.73.7-.73,1.2,0,.21.05.39.14.53.09.14.23.3.41.48.2.2.35.38.45.54.1.16.15.37.15.63,0,.47-.16.85-.47,1.12-.31.27-.71.41-1.18.41-.25,0-.5-.08-.77-.25-.27-.17-.49-.41-.67-.72-.18-.31-.26-.68-.26-1.11,0-.66.21-1.3.64-1.94.43-.63,1.04-1.15,1.83-1.56.79-.4,1.71-.61,2.75-.61,1.16,0,2.17.2,3.01.6.85.4,1.49.94,1.93,1.63.44.69.65,1.47.65,2.34,0,.81-.17,1.51-.5,2.11-.34.6-.76,1.1-1.27,1.52-.51.42-1.22.93-2.12,1.52-.64.43-1.13.76-1.47,1.01-1.45,1.02-2.71,2.35-3.78,3.96h3.44c1.24,0,2.19-.06,2.85-.19.66-.13,1.2-.37,1.59-.72s.77-.89,1.12-1.63c.01-.08.07-.11.16-.11.03,0,.08.02.14.05.08.03.13.06.17.08s.06.06.06.1c0,.03-.02.08-.05.16-.05.26-.19.84-.42,1.75Z"/><path class="cls-2" d="M1054.91,165.12c.62.43,1.12.93,1.5,1.5.38.57.57,1.24.57,2.01,0,1.01-.3,1.88-.89,2.61-.6.73-1.36,1.29-2.3,1.66-.94.37-1.93.56-2.97.56-1.1,0-2.15-.18-3.14-.54s-1.8-.87-2.41-1.52c-.61-.66-.92-1.41-.92-2.25,0-.92.34-1.7,1.01-2.34.67-.64,1.63-1.26,2.89-1.86-1.05-.53-1.84-1.15-2.35-1.85-.51-.69-.77-1.56-.77-2.6,0-.69.2-1.38.61-2.07.4-.7,1.01-1.27,1.82-1.72.81-.45,1.79-.68,2.96-.68.9,0,1.76.16,2.59.47.83.31,1.49.75,1.99,1.32.5.57.76,1.22.76,1.97,0,.87-.3,1.62-.89,2.23-.6.62-1.42,1.18-2.47,1.68.99.5,1.8.97,2.42,1.4ZM1053.39,171.76c.66-.6.99-1.34.99-2.25,0-.57-.26-1.09-.78-1.58-.52-.49-1.13-.92-1.84-1.31-.71-.38-1.6-.81-2.67-1.28-1.33.96-1.99,2.22-1.99,3.78,0,.99.29,1.83.86,2.51s1.44,1.02,2.6,1.02c1.24,0,2.18-.3,2.84-.89ZM1047.73,160.84c.23.34.54.64.93.88.39.24.97.55,1.73.92l1.28.64c.7-.49,1.18-1,1.42-1.55.24-.54.37-1.14.37-1.8,0-.47-.12-.95-.37-1.43-.25-.48-.61-.88-1.09-1.2s-1.06-.48-1.73-.48-1.22.15-1.65.44c-.43.29-.74.65-.94,1.08-.2.43-.3.84-.3,1.24,0,.5.11.93.34,1.27Z"/><path class="cls-2" d="M1069.75,165.7c.9.77,1.35,1.73,1.35,2.88,0,1.01-.31,1.88-.94,2.62-.63.74-1.44,1.3-2.44,1.68s-2.05.57-3.15.57-1.99-.17-2.81-.52-1.45-.81-1.9-1.39c-.45-.58-.68-1.2-.68-1.86,0-.55.17-.97.52-1.27s.72-.45,1.13-.45c.47,0,.88.12,1.2.35.33.24.49.59.49,1.07,0,.2-.03.37-.1.5-.07.14-.18.31-.33.5-.24.24-.37.48-.37.71,0,.49.24.86.72,1.12.48.26,1.13.39,1.94.39,1.12,0,1.97-.4,2.56-1.21s.88-1.81.88-3-.29-2.07-.87-2.76c-.58-.7-1.47-1.04-2.68-1.04-.14,0-.31.02-.5.05-.2.03-.37.05-.53.05-.17,0-.31-.05-.42-.15-.12-.1-.17-.23-.17-.4,0-.14.06-.25.17-.34.11-.09.25-.14.42-.14.15,0,.35.02.6.05l.57.02c.76,0,1.42-.22,1.98-.66.56-.44.84-1.36.84-2.75,0-1.25-.27-2.14-.81-2.67-.54-.53-1.22-.79-2.03-.79-.5,0-.95.11-1.34.34-.39.23-.58.56-.58.99,0,.24.09.5.27.78.2.29.3.57.3.85,0,.4-.12.72-.37.97-.25.25-.58.38-1.01.38-.5,0-.91-.16-1.2-.47s-.45-.76-.45-1.34c0-.52.21-1.04.63-1.56.42-.52.99-.94,1.72-1.27s1.52-.49,2.4-.49c1.01,0,1.94.16,2.8.48s1.54.79,2.05,1.41.77,1.36.77,2.21c0,.99-.35,1.86-1.05,2.6-.7.74-1.75,1.22-3.14,1.43,1.48.24,2.67.75,3.58,1.52Z"/><path class="cls-2" d="M1077.05,172.78c-.25-.45-.38-.96-.38-1.52,0-1.13.28-2.33.84-3.59.56-1.26,1.21-2.44,1.97-3.55.76-1.11,1.68-2.36,2.76-3.77l1.19-1.6h-5.23c-.87,0-1.56.1-2.06.31-.5.21-.91.52-1.2.93s-.59,1.01-.88,1.79c-.02.06-.04.1-.07.11-.03.02-.07.02-.11.02l-.14-.02c-.09-.02-.15-.04-.17-.07-.02-.03-.03-.07-.03-.11l.05-.23,1.15-5.06c.02-.11.08-.16.18-.16h10.29c.11,0,.18.05.23.14l.12.23c.05.09.03.18-.05.25-1.42,2.15-2.5,3.98-3.24,5.49-.74,1.51-1.27,2.92-1.59,4.24-.32,1.32-.54,2.86-.64,4.62-.03.73-.21,1.29-.53,1.67-.32.38-.73.57-1.24.57-.55,0-.95-.23-1.2-.68Z"/><path class="cls-2" d="M1100.49,168.76v.48c0,.12-.06.18-.18.18h-2.73v1.58c0,1.05.59,1.58,1.77,1.58h.27c.11,0,.16.09.16.27,0,.2-.05.3-.16.3h-6.97c-.11,0-.16-.1-.16-.3,0-.18.05-.27.16-.27h.28c1.16,0,1.75-.53,1.76-1.58v-1.58h-6.74c-.12,0-.18-.06-.18-.18v-.55c0-.08.02-.15.07-.21l8.73-12.31s.07-.06.11-.08.09-.03.14-.01l.62.14c.11.03.16.1.16.21l-.02,12.15h2.73c.12,0,.18.06.18.18ZM1094.76,160.26l-5.89,8.32h5.84l.05-8.32Z"/><path class="cls-2" d="M1102.69,175.2c.61-.64,1.19-1.37,1.74-2.18.55-.81,1.05-1.94,1.51-3.4.46-1.46.69-3.18.69-5.17s-.23-3.71-.69-5.17c-.46-1.46-.96-2.59-1.51-3.4-.55-.81-1.13-1.54-1.74-2.18-.11-.11-.16-.2-.16-.27,0-.05.02-.09.06-.13.04-.04.07-.06.1-.06.06,0,.15.04.27.11.58.4,1.28,1.02,2.11,1.87.83.85,1.62,2.07,2.37,3.66.76,1.59,1.13,3.45,1.13,5.57s-.38,3.98-1.13,5.57c-.76,1.59-1.55,2.81-2.37,3.66s-1.53,1.47-2.11,1.87c-.12.08-.21.11-.27.11-.03,0-.07-.02-.1-.05s-.06-.07-.06-.11c0-.08.05-.18.16-.3Z"/><text class="cls-8" transform="translate(859.63 225.58)"><tspan x="0" y="0">最終成果報告展</tspan></text><text class="cls-4" transform="translate(816.55 777.15)"><tspan class="cls-13" x="0" y="0">7</tspan><tspan x="34.7" y="0">.</tspan><tspan x="52.32" y="0">31</tspan><tspan x="125.07" y="0" xml:space="preserve"> - </tspan><tspan x="194.73" y="0">8</tspan><tspan x="238.06" y="0">.</tspan><tspan x="255.68" y="0">2</tspan></text><text class="cls-1" transform="translate(818.57 637.04)"><tspan class="cls-10" x="0" y="0">@</tspan><tspan class="cls-11" x="43.32" y="3.72" xml:space="preserve"> BaBaBa</tspan></text><text class="cls-3" transform="translate(716.32 778.14)"><tspan x="0" y="0">2026</tspan><tspan x="80.5" y="0">.</tspan></text><text class="cls-6" transform="translate(866.66 678.53)"><tspan x="0" y="0">高</tspan><tspan x="22.37" y="0">田</tspan><tspan x="44.73" y="0">馬</tspan><tspan x="67.1" y="0">場</tspan><tspan x="89.46" y="0">駅</tspan><tspan x="111.83" y="0">か</tspan><tspan x="134.2" y="0">ら</tspan><tspan x="156.56" y="0">徒</tspan><tspan class="cls-9" x="178.93" y="0">歩</tspan><tspan class="cls-9" x="206.89" y="-1.57">5</tspan><tspan class="cls-12" x="222.48" y="0">分</tspan></text><text class="cls-6" transform="translate(873.69 812.48)"><tspan x="0" y="0">金</tspan><tspan x="22.37" y="0">曜</tspan><tspan x="44.73" y="0">日</tspan></text><text class="cls-5" transform="translate(1045.4003 812.4809)"><tspan x="0" y="0">日</tspan><tspan x="22.37" y="0">曜</tspan><tspan x="44.73" y="0">日</tspan></text></svg>