<?xml version="1.0" encoding="UTF-8"?>
<svg id="_レイヤー_2" data-name="レイヤー 2" xmlns="http://www.w3.org/2000/svg" viewBox="0 0 1080 1350">
  <defs>
    <style>
      .cls-1 {
        letter-spacing: .25em;
      }

      .cls-2 {
        letter-spacing: .25em;
      }

      .cls-3 {
        letter-spacing: .25em;
      }

      .cls-4, .cls-5, .cls-6, .cls-7, .cls-8, .cls-9, .cls-10, .cls-11, .cls-12, .cls-13 {
        fill: #3e3a39;
      }

      .cls-5 {
        font-size: 55.31px;
      }

      .cls-5, .cls-6, .cls-8, .cls-9, .cls-10 {
        font-family: ATC-72695fc379d17814-83pv-RKSJ-H, ATC-72695fc379d17814;
      }

      .cls-6, .cls-12 {
        font-size: 73.74px;
      }

      .cls-7 {
        font-family: CormorantInfant-Bold, 'Cormorant Infant';
        font-size: 38.29px;
      }

      .cls-7, .cls-11, .cls-13 {
        font-weight: 700;
      }

      .cls-8 {
        font-size: 18.44px;
      }

      .cls-9 {
        font-size: 27.65px;
      }

      .cls-10 {
        font-size: 27.65px;
      }

      .cls-14 {
        fill: none;
        stroke: #3e3a39;
        stroke-miterlimit: 10;
        stroke-width: 2.3px;
      }

      .cls-11 {
        font-size: 83.32px;
        glyph-orientation-vertical: 0deg;
        letter-spacing: .35em;
        text-orientation: upright;
        writing-mode: tb;
      }

      .cls-11, .cls-13 {
        font-family: ShipporiMincho-Bold, 'Shippori Mincho';
      }

      .cls-15 {
        letter-spacing: -.25em;
      }

      .cls-16 {
        letter-spacing: -.05em;
      }

      .cls-17 {
        letter-spacing: -.03em;
      }

      .cls-18 {
        letter-spacing: 0em;
      }

      .cls-19 {
        letter-spacing: 0em;
      }

      .cls-20 {
        letter-spacing: 0em;
      }

      .cls-12 {
        font-family: CormorantInfant-Medium, 'Cormorant Infant';
        font-weight: 500;
      }

      .cls-13 {
        font-size: 36px;
      }
    </style>
  </defs>
  <text class="cls-11" transform="translate(479.76 79.69)"><tspan x="0" y="0">モノに</tspan><tspan x="-124.98" y="0">こころを</tspan><tspan x="-249.95" y="0">あずけて</tspan><tspan x="-374.93" y="0">おりまして</tspan></text>
  <text class="cls-5" transform="translate(727.4619 1207.8057)"><tspan x="0" y="0">10</tspan><tspan x="49.33" y="0">:</tspan><tspan x="60.39" y="0">00</tspan><tspan x="115.81" y="0" xml:space="preserve"> - </tspan><tspan x="159.55" y="0">19</tspan><tspan x="208.22" y="0">:</tspan><tspan x="219.28" y="0">00</tspan></text>
  <text class="cls-8" transform="translate(729.1396 1246.6709)"><tspan x="0" y="0">8</tspan><tspan x="9.07" y="0">/</tspan><tspan class="cls-3" x="15.41" y="0">1</tspan><tspan x="27.23" y="1.29">は</tspan><tspan x="45.66" y="1.29">レ</tspan><tspan x="64.1" y="1.29">セ</tspan><tspan x="82.54" y="1.29">プ</tspan><tspan x="100.97" y="1.29">シ</tspan><tspan x="119.41" y="1.29">ョ</tspan><tspan class="cls-1" x="137.84" y="1.29">ン</tspan><tspan x="160.89" y="0">20</tspan><tspan x="178.34" y="0">:</tspan><tspan x="182.03" y="0">0</tspan><tspan class="cls-3" x="191.27" y="0">0</tspan><tspan x="205.11" y="1.29">ま</tspan><tspan x="223.54" y="1.29">で</tspan><tspan x="0" y="27.65">8</tspan><tspan x="9.07" y="27.65">/</tspan><tspan class="cls-3" x="15.41" y="27.65">2</tspan><tspan class="cls-1" x="28.24" y="28.94">は</tspan><tspan x="51.29" y="27.65">15</tspan><tspan x="66.74" y="27.65">:</tspan><tspan x="70.42" y="27.65">0</tspan><tspan class="cls-3" x="79.66" y="27.65">0</tspan><tspan x="93.5" y="28.94">ま</tspan><tspan x="111.94" y="28.94">で</tspan></text>
  <text class="cls-8" transform="translate(573.2783 1188.6758)"><tspan x="0" y="0">金</tspan><tspan x="18.44" y="0">曜</tspan><tspan x="36.87" y="0">日</tspan></text>
  <text class="cls-8" transform="translate(643.2334 1272.7148)"><tspan x="0" y="0">日</tspan><tspan x="18.44" y="0">曜</tspan><tspan x="36.87" y="0">日</tspan></text>
  <g>
    <path class="cls-4" d="M649.51,108.56c.12-.17.26-.38.41-.65.16-.26.29-.46.4-.58.11-.12.21-.18.31-.18.19,0,.73.41,1.6,1.24.88.83,1.41,1.43,1.6,1.82l.04.14c0,.19-.1.34-.29.45-.19.11-.41.16-.65.16h-4.79v2.02c1.75.6,3.04,1.34,3.87,2.21.83.88,1.24,1.75,1.24,2.61,0,.55-.16,1.01-.49,1.39-.32.37-.73.56-1.21.56-.43,0-.88-.16-1.33-.47-.07-.07-.13-.19-.18-.36-.22-1.42-.85-3.04-1.91-4.86v8.6c.05,3,.14,5.75.29,8.24,0,.14-.04.26-.11.36-.31.31-.77.59-1.37.85-.6.25-1.28.38-2.05.38-.34,0-.6-.07-.79-.22-.19-.14-.29-.31-.29-.5.1-1.22.17-2.44.23-3.64.06-1.2.1-2.71.13-4.54v-4.46c-1.54,2.3-3.4,4.36-5.58,6.16-.14.12-.28.12-.4,0l-.04-.04c-.12-.12-.14-.25-.07-.4,1.27-1.8,2.39-3.92,3.35-6.35.96-2.44,1.72-4.95,2.27-7.54h-1.62c-.82.02-1.64.17-2.48.43h-.11c-.1,0-.18-.06-.25-.18l-.61-1.15s-.04-.11-.04-.18c0-.12.08-.17.25-.14,1.15.1,2.3.17,3.46.22h1.87v-5.65c-1.44.22-3.2.41-5.29.58-.19,0-.3-.08-.32-.25v-.07c0-.1.06-.18.18-.25,1.78-.65,3.62-1.49,5.53-2.52,1.91-1.03,3.44-1.99,4.59-2.88.14-.12.28-.12.4,0l4,3.67c.07.07.11.15.13.23.01.08-.03.14-.13.16-.19.1-.44.14-.76.14-.36,0-.78-.08-1.26-.25-.86.24-1.9.49-3.1.76v6.34h.54l.83-1.4ZM667.33,118.03c.07-.17.19-.41.34-.74.16-.32.28-.56.38-.72.1-.16.19-.23.29-.23.14,0,.49.2,1.03.59s1.04.82,1.51,1.28.7.77.7.94-.07.32-.22.45c-.14.13-.32.22-.54.27l-4.5.9v3.42c.07,2.86.16,4.99.25,6.41,0,.14-.04.25-.11.32-.24.34-.69.65-1.35.95-.66.3-1.31.45-1.96.45-.36,0-.62-.07-.79-.22-.17-.14-.25-.31-.25-.5.14-2.11.24-4.26.29-6.44v-3.6l-10.76,2.16h-.11c-.1,0-.18-.06-.25-.18l-.25-.47s-.04-.07-.04-.14c0-.12.07-.19.22-.22l11.2-2.2v-13.75c0-2.74-.14-5.08-.43-7.02,0-.24.11-.34.32-.29,1.9.43,3.19.77,3.89,1.01.7.24,1.04.46,1.04.65,0,.1-.1.2-.29.32l-.61.43v17.89l.29-.07.72-1.66ZM653.54,111.47c.07-.07.18-.1.32-.07,2.16.26,3.76.82,4.81,1.66,1.04.84,1.57,1.74,1.57,2.7,0,.6-.19,1.1-.56,1.51s-.83.61-1.39.61c-.48,0-.92-.14-1.33-.43-.1-.05-.17-.16-.22-.32-.22-.89-.62-1.82-1.21-2.79-.59-.97-1.23-1.81-1.93-2.5-.14-.14-.17-.26-.07-.36ZM654.23,102.58c.07-.07.18-.1.32-.07,2.14.34,3.71.94,4.73,1.82,1.02.88,1.53,1.79,1.53,2.75,0,.6-.19,1.11-.56,1.53-.37.42-.82.63-1.35.63s-.97-.17-1.4-.5c-.1-.05-.17-.16-.22-.32-.19-.91-.57-1.87-1.13-2.88-.56-1.01-1.18-1.87-1.85-2.59-.14-.14-.17-.26-.07-.36Z"/>
    <path class="cls-4" d="M694.94,111.55c.82-.77,1.54-1.52,2.16-2.27.05-.1.11-.14.2-.14s.15.04.2.11l2.12,2.34c.36-.89.82-2.21,1.37-3.96h-21.24c.02.22.04.53.04.94,0,1.06-.19,1.97-.56,2.75-.37.78-.85,1.35-1.42,1.71-.43.29-.89.43-1.37.43-.53,0-.98-.17-1.37-.52-.38-.35-.58-.83-.58-1.46,0-.46.14-.86.41-1.21.28-.35.63-.64,1.06-.88.62-.41,1.15-1.04,1.58-1.91.43-.86.65-1.8.65-2.81,0-.26-.01-.46-.04-.58v-.07c0-.07.02-.13.07-.18.05-.05.1-.07.14-.07.17,0,.29.07.36.22.41,1.01.7,1.9.86,2.66h14.8l.65-1.26c.48-1.03.94-2.17,1.37-3.4.43-1.24.74-2.35.94-3.33.05-.22.18-.29.4-.22,1.9.74,3.2,1.3,3.91,1.66.71.36,1.06.62,1.06.79,0,.07-.05.13-.14.16-.1.04-.16.05-.18.05l-.68.18c-2.02,2.11-4.07,3.9-6.16,5.36h5.33l1.04-1.19c.12-.14.29-.33.5-.56.22-.23.38-.4.5-.5s.23-.16.32-.16c.19,0,.81.5,1.85,1.49,1.04,1,1.69,1.72,1.93,2.18.07.1.05.2-.07.32s-.26.2-.43.23-.43.07-.79.09c-.72.55-1.62,1.15-2.7,1.78-1.08.64-2.1,1.17-3.06,1.6l.94.9c.07.05.11.11.11.2s-.04.15-.11.2c-.12.07-.28.13-.49.18-.2.05-.45.08-.74.11-1.92,1.06-4.08,2.06-6.48,3.02l.43.04c.24.05.32.16.25.32-.12.31-.49.53-1.12.65v2.38h7.49l1.08-1.58c.12-.17.29-.4.5-.7.22-.3.39-.53.52-.68.13-.16.25-.23.34-.23.22,0,.88.47,2,1.42,1.12.95,1.78,1.63,2,2.03.07.12.07.24,0,.36-.14.26-.46.4-.94.4h-13v6.34c0,1.1-.14,1.99-.41,2.66-.28.67-.82,1.22-1.64,1.64-.82.42-2.04.71-3.67.88h-.07c-.12,0-.2-.08-.25-.25-.07-.67-.19-1.22-.34-1.66s-.4-.8-.74-1.12c-.38-.34-.86-.62-1.42-.86-.56-.24-1.34-.46-2.32-.65-.19-.05-.29-.14-.29-.29,0-.12.07-.18.22-.18.43,0,1.51.05,3.24.14,1.54.1,2.41.14,2.63.14.31,0,.52-.05.63-.14.11-.1.16-.28.16-.54v-6.12h-7.7c-1.54.02-3.25.18-5.15.47h-.11c-.1,0-.18-.06-.25-.18l-.65-1.22s-.04-.07-.04-.14c0-.12.09-.18.29-.18,1.3.12,2.75.2,4.36.25h9.25c0-1.37-.07-2.59-.22-3.67,0-.1.02-.17.07-.23.05-.06.12-.08.22-.05l2.95.43c1.32-1.46,2.36-2.74,3.13-3.82h-8.03c-1.54.02-3.25.18-5.15.47h-.11c-.1,0-.18-.06-.25-.18l-.65-1.26s-.04-.07-.04-.14c0-.12.08-.18.25-.18,1.32.12,2.78.2,4.39.25h9.86ZM679.82,99.2c.1-.07.22-.08.36-.04,2.04.46,3.54,1.13,4.5,2.03s1.44,1.83,1.44,2.79c0,.65-.19,1.19-.58,1.64-.38.44-.88.67-1.48.67-.46,0-.94-.18-1.44-.54-.1-.05-.17-.16-.22-.32-.12-.94-.42-1.93-.9-2.97-.48-1.04-1.03-2.01-1.66-2.9-.12-.19-.13-.31-.04-.36ZM687.62,98.82c.01-.06.04-.1.09-.13.1-.07.22-.07.36,0,1.82.58,3.16,1.31,4.01,2.2.85.89,1.28,1.79,1.28,2.7,0,.67-.21,1.24-.63,1.71-.42.47-.93.7-1.53.7-.55,0-1.13-.24-1.73-.72-.1-.1-.14-.22-.14-.36-.02-.96-.19-1.96-.5-2.99-.31-1.03-.7-1.99-1.15-2.88-.05-.1-.07-.17-.05-.23Z"/>
    <path class="cls-4" d="M743.33,128.25c.14.02.22.1.22.22,0,.17-.1.26-.29.29-.77.17-1.43.55-2,1.13-.56.59-1.01,1.33-1.35,2.21-.07.22-.2.26-.4.14-3.17-1.49-5.78-3.35-7.85-5.58-3.31,2.62-7.38,4.51-12.2,5.69-.19.05-.31,0-.36-.14-.02-.02-.04-.06-.04-.11,0-.12.06-.2.18-.25,4.32-1.85,7.84-4.36,10.55-7.52-1.99-2.88-3.43-6.37-4.32-10.48h-.76c-.22.02-.47.12-.76.29-.19.14-.32.12-.4-.07l-.79-1.48c-1.03.91-2.45,2.02-4.25,3.31v11.74c0,1.03-.1,1.86-.31,2.48s-.62,1.13-1.26,1.51c-.64.38-1.59.65-2.86.79h-.07c-.17,0-.25-.08-.25-.25-.07-1.22-.28-2.09-.61-2.59-.22-.31-.5-.56-.85-.76-.35-.19-.82-.36-1.42-.5-.17-.02-.25-.12-.25-.29,0-.14.07-.22.22-.22l1.87.07,1.33.07c.24,0,.41-.04.5-.13.09-.08.14-.25.14-.49v-8.68l-2.09,1.4c-.07.41-.26.71-.58.9l-.14.04c-.12,0-.2-.06-.25-.18l-1.55-4.28s-.04-.07-.04-.14c0-.12.07-.19.22-.22l4.43-1.33v-6.66h-1.33c-.62.02-1.31.16-2.05.4-.17.07-.29.02-.36-.14l-.61-1.19-.04-.14c0-.17.1-.23.29-.18.6.1,1.49.17,2.66.22h1.44v-1.33c0-2.74-.14-5.08-.43-7.02,0-.24.11-.34.32-.29,1.87.43,3.15.77,3.83,1.01.68.24,1.03.46,1.03.65,0,.1-.1.2-.29.32l-.65.4v6.26h.29l.79-1.4c.09-.17.22-.38.38-.65.16-.26.28-.46.38-.58.1-.12.19-.18.29-.18.12,0,.38.19.79.58.41.38.83.82,1.26,1.3l-.4-.76s-.04-.07-.04-.14c0-.12.1-.18.29-.18,1.3.12,2.75.2,4.36.25h2.74c0-2.52-.12-4.61-.36-6.26,0-.24.11-.34.32-.29,1.92.43,3.23.76,3.92.97.7.22,1.04.42,1.04.61,0,.1-.1.2-.29.32l-.61.43v4.21h3.2l1.01-1.48c.1-.12.25-.33.45-.63.2-.3.37-.52.5-.67s.25-.22.34-.22c.22,0,.84.45,1.87,1.35,1.03.9,1.66,1.54,1.87,1.93.07.12.07.24,0,.36-.14.26-.44.4-.9.4h-8.35v6.37h1.66l1.12-1.19c.17-.14.41-.38.72-.7.31-.32.54-.49.68-.49.19,0,.79.47,1.78,1.4s1.61,1.62,1.85,2.05c.07.1.06.2-.04.32-.12.14-.28.25-.49.31-.2.06-.51.11-.92.16-1.34,3.77-3.26,6.96-5.76,9.58,2.5,1.66,5.51,2.99,9.04,4ZM727.42,112.81h2.23v-6.37h-2.34c-1.22.02-2.58.18-4.07.47.14.17.26.35.36.54.02.05.04.11.04.18,0,.17-.09.31-.27.41-.18.11-.39.16-.63.16h-4.21v5.4l4-1.37c.22-.07.33-.05.36.07l.04.18-.07.04c1.27.14,2.8.24,4.57.29ZM735.52,113.85h-9.36c1.1,3.22,2.9,5.96,5.4,8.24,1.78-2.5,3.1-5.24,3.96-8.24Z"/>
    <path class="cls-4" d="M749.88,116.91c-1.18,1.22-2.29,2.23-3.35,3.02-.14.1-.28.08-.4-.04s-.13-.25-.04-.4c1.25-1.73,2.42-3.85,3.53-6.37,1.06-2.4,1.7-4.54,1.94-6.41.02-.12.07-.19.13-.22.06-.02.14-.01.23.04,3,1.61,4.5,2.58,4.5,2.92,0,.1-.11.17-.32.22l-.68.11c-.72,1.18-1.49,2.28-2.3,3.31.96.7,1.44,1.18,1.44,1.44,0,.12-.12.24-.36.36l-.54.22v7.63c.05,3,.14,5.75.29,8.24,0,.14-.05.26-.14.36-.29.26-.74.52-1.37.76-.62.24-1.25.36-1.87.36-.34,0-.6-.07-.79-.22-.19-.14-.29-.31-.29-.5.1-1.42.18-2.79.25-4.12.07-1.33.12-3.08.14-5.24v-5.47ZM751.63,98.59c.06-.02.14-.01.23.04l2.41,1.48c1.37.67,2.05,1.14,2.05,1.4,0,.12-.13.2-.4.25l-.65.11c-1.01,1.27-2.26,2.55-3.74,3.83-1.49,1.28-3.05,2.38-4.68,3.29-.14.1-.26.08-.36-.04-.12-.12-.12-.25,0-.4.77-.94,1.56-2.06,2.38-3.38.58-.98,1.1-2.05,1.58-3.2.48-1.15.83-2.21,1.04-3.17.02-.12.07-.19.13-.22ZM773.89,100.64c.12-.17.27-.38.45-.65.18-.26.32-.46.43-.58.11-.12.21-.18.31-.18.19,0,.75.41,1.67,1.22s1.49,1.42,1.71,1.8l.04.14c0,.19-.09.34-.27.45-.18.11-.4.16-.67.16h-7.56c.02.1.04.22.04.36,0,.41-.11.76-.32,1.06-.22.3-.5.51-.86.63l.79.61c.89.74,1.31,1.09,1.26,1.04.12.17.14.3.07.4-.14.24-.41.36-.79.36h-5.76v14.8c.05,2.98.14,5.74.29,8.28,0,.12-.04.23-.11.32-.26.34-.71.65-1.35.95-.64.3-1.27.45-1.89.45-.34,0-.6-.07-.79-.22-.19-.14-.29-.31-.29-.5.1-1.42.18-2.79.25-4.12s.12-3.08.14-5.24v-9.4c-.14.05-.25.07-.32.07-.96,5.83-2.56,10.24-4.79,13.21-.12.17-.25.19-.4.07l-.07-.04c-.14-.07-.19-.2-.14-.4.55-1.82,1.03-4.13,1.44-6.91.19-1.42.29-2.96.29-4.64,0-.77-.05-1.7-.14-2.81v-.04c0-.1.03-.16.09-.2s.13-.04.2-.02l3.85.68v-4.32h-1.55c-.82.02-1.64.17-2.48.43h-.11c-.1,0-.18-.06-.25-.18l-.61-1.15s-.04-.11-.04-.18c0-.12.08-.17.25-.14,1.01.12,2.04.19,3.1.22h1.69v-.32c0-2.74-.14-5.08-.43-7.02,0-.24.11-.34.32-.29,1.8.41,3.04.73,3.71.97.67.24,1.01.46,1.01.65,0,.1-.08.2-.25.32l-.61.43v5.26h1.33l1.48-1.84c-.1-.1-.14-.2-.14-.32-.05-.65-.19-1.32-.43-2.02-.24-.7-.53-1.33-.86-1.91-.07-.17-.06-.29.04-.36.14-.1.28-.11.4-.04,1.63.5,2.75,1.18,3.35,2.02h3.42l.9-1.37ZM765.07,111.4c0-.12.06-.2.18-.25h.04c.17-.07.3-.05.4.07,1.54,1.49,2.65,2.96,3.33,4.41.68,1.45,1.03,2.81,1.03,4.09,0,1.06-.21,1.93-.63,2.61-.42.68-.91,1.03-1.46,1.03-.48,0-.9-.28-1.26-.83-.07-.14-.11-.25-.11-.32.05-1.68-.04-3.49-.25-5.44-.22-1.94-.62-3.7-1.22-5.26-.02-.02-.04-.06-.04-.11ZM770.9,111.26c-.58.02-1.19.16-1.84.4-.17.07-.29.02-.36-.14l-.61-1.22-.04-.14c0-.14.1-.19.29-.14,1.08.12,2.18.19,3.31.22h1.73l.97-1.44c.1-.14.24-.36.43-.65.19-.29.35-.5.47-.63.12-.13.23-.2.32-.2.22,0,.82.44,1.8,1.31.98.88,1.57,1.51,1.76,1.89.05.1.07.16.07.18,0,.17-.1.31-.31.41-.2.11-.43.16-.67.16h-2.27v16.34c0,.98-.11,1.79-.32,2.41s-.65,1.15-1.3,1.57c-.65.42-1.6.7-2.84.85h-.07c-.17,0-.25-.08-.25-.25-.05-.6-.11-1.1-.18-1.49-.07-.4-.19-.73-.36-.99-.5-.58-1.3-.98-2.38-1.22-.17-.02-.25-.12-.25-.29,0-.14.07-.22.22-.22.53,0,1.15.04,1.87.11l1.37.07c.24,0,.41-.05.5-.16.1-.11.14-.27.14-.49v-16.24h-1.22Z"/>
    <path class="cls-4" d="M813.38,111.92c.5.49.98,1.02,1.44,1.58.46.56.68.93.68,1.1-.02.38-.32.58-.9.58h-4.21v7.42c.05,3,.14,5.75.29,8.24,0,.14-.04.26-.11.36-.26.31-.69.59-1.28.83-.59.24-1.29.36-2.11.36-.34,0-.61-.07-.81-.22s-.31-.31-.31-.5c.1-1.42.18-2.79.25-4.12s.12-3.08.14-5.24v-7.13h-3.42c-.05,2.57-.31,4.86-.79,6.88-.48,2.02-1.43,3.92-2.84,5.72-1.42,1.8-3.47,3.35-6.16,4.64-.17.1-.29.08-.36-.04-.1-.14-.07-.26.07-.36,1.68-1.46,2.98-3.07,3.89-4.82.91-1.75,1.53-3.58,1.85-5.49s.5-4.09.52-6.53h-1.15c-.5.02-1.02.16-1.55.4l-.14.04c-.12,0-.2-.06-.25-.18l-.76-1.51v4.86c.05,3,.14,5.75.29,8.24,0,.14-.05.26-.14.36-.29.24-.77.47-1.44.7-.67.23-1.26.34-1.76.34-.41,0-.66-.18-.76-.54,0-.14.01-.26.04-.36.02-.1.04-.2.04-.32s.02-.29.07-.5v-.86h-2.99v1.12l.11,1.87c.02.12.01.24-.04.36-.19.29-.55.55-1.08.79-.53.24-1.16.36-1.91.36-.26,0-.48-.07-.65-.22-.17-.14-.25-.31-.25-.5.17-2.16.28-4.54.32-7.13v-3.96c-1.03,1.44-1.88,2.52-2.56,3.24-.1.14-.23.16-.4.04l-.04-.04c-.14-.1-.18-.23-.11-.4,2.26-4.37,3.79-10.5,4.61-18.4h-1.33c-.62.02-1.31.16-2.05.4-.17.07-.29.02-.36-.14l-.61-1.22s-.04-.07-.04-.14c0-.12.08-.18.25-.18,1.32.12,2.78.2,4.39.25h4.61l1.94-2.56c.1-.14.23-.16.4-.04l3.1,2.66h11.77l.97-1.44c.1-.12.24-.32.43-.61.19-.29.35-.5.47-.63.12-.13.23-.2.32-.2.22,0,.81.43,1.78,1.3.97.86,1.57,1.49,1.78,1.87l.04.14c0,.19-.09.34-.27.45s-.4.16-.67.16h-3.28v11.09h.14l.79-1.48c.1-.14.22-.35.38-.63.16-.28.29-.49.4-.63.11-.14.21-.22.31-.22.14,0,.47.25.97.74ZM799.24,114.14v-11.09h-2.48c-.17,0-.25-.01-.25-.04l-.04-.04h-5.58c-.48,3.26-1.24,6.28-2.27,9.04l.58.25h2.16l.79-.94c.1-.1.22-.23.38-.41.16-.18.28-.31.38-.4.1-.08.19-.13.29-.13.22,0,.76.34,1.62,1.03.86.68,1.4,1.21,1.62,1.57.07.1.05.2-.07.32-.24.24-.56.4-.97.47v.07c.74.14,1.62.24,2.63.29h1.22ZM788.72,124.83h2.99v-11.52h-2.99v11.52ZM803.05,114.14h3.42v-11.09h-3.42v11.09Z"/>
    <path class="cls-4" d="M839.2,117.23c.12-.12.27-.29.45-.5.18-.22.32-.38.43-.49.11-.11.21-.16.31-.16.22,0,.8.4,1.76,1.19.96.79,1.55,1.38,1.76,1.76.07.1.05.2-.07.32-.24.19-.58.32-1.01.4v7.13c0,.24.05.4.14.47.1.07.32.11.68.11h3.56c.17-.02.31-.07.41-.13.11-.06.21-.16.31-.31.29-.5.76-1.76,1.4-3.78.02-.17.11-.25.25-.25.12,0,.18.1.18.29l.11,3.89c.5.22.84.46,1.01.74.17.28.25.63.25,1.06,0,.89-.47,1.55-1.4,2-.94.44-2.48.67-4.64.67h-2.66c-1.08,0-1.89-.11-2.43-.32-.54-.22-.9-.58-1.08-1.08-.18-.5-.27-1.26-.27-2.27v-8.53h-4.68c-.67,3.22-2.15,5.89-4.45,8.03-2.29,2.14-5.83,3.74-10.6,4.82-.17.02-.29-.01-.36-.11l-.04-.07c0-.12.07-.2.22-.25,3.41-1.42,5.95-3.17,7.63-5.26s2.75-4.48,3.2-7.16h-3.17c-1.54.02-3.25.18-5.15.47h-.11c-.1,0-.18-.06-.25-.18l-.65-1.26s-.04-.07-.04-.14c0-.12.08-.18.25-.18,1.32.12,2.78.2,4.39.25h4.86c.05-.72.07-1.3.07-1.73,0-1.3-.1-2.5-.29-3.6v-.11c0-.14.08-.2.25-.18l5.76.47c.1,0,.17.03.22.09.05.06.06.14.04.23-.19.43-.6.68-1.22.76-.02,1.2-.14,2.56-.36,4.07h4.1l.9-1.15ZM845.32,102.26c.1-.1.25-.26.45-.49s.37-.4.5-.5c.13-.11.25-.16.34-.16.19,0,.78.49,1.76,1.46.98.97,1.61,1.67,1.87,2.11.07.14.04.26-.11.36-.12.1-.28.16-.49.2-.2.04-.45.05-.74.05-.65.5-1.46,1.04-2.45,1.6-.98.56-1.92,1.04-2.81,1.42-.17.05-.29.04-.36-.04-.1-.1-.11-.22-.04-.36.31-.79.7-1.96,1.15-3.49h-4.21v5.15c0,.24.05.4.16.47.11.07.35.11.74.11h2.48c.96,0,1.58-.01,1.87-.04.1-.02.22-.04.36-.04.31-.05.54-.14.68-.29.31-.31.7-1.04,1.15-2.2.07-.14.17-.22.29-.22s.18.1.18.29l.11,2.16c.5.22.85.45,1.04.7.19.25.29.57.29.95,0,.6-.19,1.07-.56,1.4-.37.34-1.03.58-1.96.72-.94.14-2.26.22-3.96.22h-3.02c-1.1,0-1.93-.1-2.48-.29-.55-.19-.92-.52-1.12-.99-.19-.47-.29-1.17-.29-2.11v-6.01h-3.17c-.6,3.1-1.94,5.56-4.03,7.4s-5.08,3.16-8.96,3.98c-.22.05-.34,0-.36-.14v-.11c0-.1.06-.17.18-.22,2.76-1.2,4.81-2.68,6.16-4.45,1.34-1.76,2.17-3.92,2.48-6.46h-3.78c.02,1.25-.17,2.32-.58,3.2-.41.89-.96,1.54-1.66,1.94-.38.24-.82.36-1.3.36-.6,0-1.13-.19-1.58-.58-.46-.38-.68-.92-.68-1.62,0-.48.15-.92.45-1.31s.7-.73,1.21-.99c.72-.34,1.37-.89,1.94-1.67.58-.78.9-1.64.97-2.57,0-.19.07-.29.22-.29.17,0,.26.07.29.22.22.65.42,1.4.61,2.27h7.88c0-1.8-.08-3.3-.25-4.5,0-.24.11-.34.32-.29,1.87.41,3.17.73,3.89.95s1.08.43,1.08.59c0,.1-.08.19-.25.29l-.58.36v2.59h7.63l1.01-1.12Z"/>
    <path class="cls-4" d="M885.19,107.84c.8.65,1.3,1.14,1.49,1.48.07.1.05.2-.07.32-.24.19-.6.32-1.08.4-.12.94-.28,1.64-.49,2.12-.2.48-.55.85-1.03,1.12-.58.31-1.48.49-2.7.54l1.04.86c.17.12.18.25.04.4-.24.22-.58.37-1.01.47v3.49c.07,2.9.16,5.09.25,6.55,0,.14-.05.26-.14.36-.29.24-.8.48-1.55.72-.74.24-1.4.36-1.98.36h-.4c-.19,0-.29-.1-.29-.29v-1.19h-10.58l2.12,1.73c1.25.74,1.87,1.24,1.87,1.48,0,.12-.22.2-.65.25l-.97.07c-1.54.84-3.53,1.57-5.99,2.2-2.46.62-4.95,1.03-7.47,1.22h-.07c-.12,0-.2-.07-.25-.22v-.07c0-.12.07-.2.22-.25,1.92-.62,3.78-1.42,5.58-2.38,2.3-1.25,4.03-2.59,5.18-4.03h-2.02v.86c0,.14-.17.32-.52.54-.35.22-.79.4-1.33.56-.54.16-1.06.23-1.57.23-.26,0-.49-.07-.67-.22s-.27-.31-.27-.5c.09-1.25.17-2.47.23-3.67s.1-2.71.13-4.54v-4.46c-1.42.53-3.16,1-5.22,1.4h-.07c-.12,0-.2-.06-.25-.18v-.07c0-.07.07-.14.22-.22,4.2-1.42,7.06-3.34,8.57-5.76h-3.06l-.29,1.22c-.02.14-.1.25-.22.32-.46.19-.95.29-1.48.29-.43,0-.97-.07-1.62-.22-.19-.05-.26-.17-.22-.36l.04-.14c.26-1.08.49-2.27.67-3.56.18-1.3.28-2.44.31-3.42,0-.26.11-.34.32-.22l3.92,1.66h3.13c.05-.82.07-1.43.07-1.84v-.65h-2.81c-1.49.02-3.13.18-4.93.47h-.07c-.12,0-.22-.06-.29-.18l-.65-1.22-.04-.14c0-.12.08-.18.25-.18,1.3.12,2.75.2,4.36.25h4.18c0-1.13-.05-2.06-.14-2.81,0-.24.11-.34.32-.29,1.7.43,2.87.76,3.49.97s.94.41.94.58c0,.07-.1.18-.29.32l-.58.36v.86h3.49c0-1.13-.05-2.06-.14-2.81,0-.24.11-.34.32-.29,1.73.41,2.92.73,3.56.97.65.24.97.44.97.61,0,.1-.1.2-.29.32l-.61.4v.79h3.38l.79-.94c.12-.12.29-.31.5-.58.22-.26.4-.4.54-.4.22,0,.79.35,1.71,1.04.92.7,1.49,1.22,1.71,1.58.07.1.05.2-.07.32-.26.26-.64.44-1.12.54v1.04l.11,1.69c.05.17.02.28-.07.32-.24.24-.68.47-1.33.7-.65.23-1.24.34-1.76.34h-.4c-.19,0-.29-.1-.29-.29v-.9h-3.71v2.41h5.76l.76-.83c.09-.1.25-.26.47-.49s.4-.34.54-.34c.22,0,.73.32,1.53.97ZM864.07,108.52c.34-.74.6-1.55.79-2.41h-3.78c-.22,1.01-.37,1.81-.47,2.41h3.46ZM882.11,109.53h-5.98v.86l.11,1.33.04.14c0,.26-.36.53-1.08.79-.72.26-1.46.4-2.23.4-.53,0-.79-.24-.79-.72.05-.43.07-.73.07-.9l.07-.72v-1.19h-5.22c-.98,1.44-2.41,2.66-4.28,3.67l1.69.72h12.49l1.66-1.87c.1-.14.23-.16.4-.04l1.73,1.37c-.02-.5-.17-.96-.43-1.37-.31-.34-.85-.6-1.62-.79-.17-.02-.25-.13-.25-.32,0-.14.07-.22.22-.22.33,0,.82.02,1.44.07l.83.04c.36,0,.62-.06.79-.18.17-.12.29-.48.36-1.08ZM864.25,117.38h13.03v-2.45h-13.03v2.45ZM864.25,120.94h13.03v-2.56h-13.03v2.56ZM864.25,124.54h13.03v-2.59h-13.03v2.59ZM868.5,106.11c-.14.77-.42,1.57-.83,2.41h4.64v-2.41h-3.82ZM868.82,103.3c0,.65-.05,1.25-.14,1.8h3.64v-2.48h-3.49v.68ZM872.17,127.21c0-.19.11-.29.32-.29,3.12.05,5.64.27,7.56.67s3.29.86,4.1,1.4c.82.54,1.22,1.11,1.22,1.71,0,.48-.25.89-.74,1.24-.49.35-1.06.52-1.71.52s-1.28-.2-1.84-.61c-.94-.79-2.15-1.58-3.64-2.38s-3.18-1.46-5.08-2.02c-.14-.05-.22-.13-.22-.25ZM879.84,102.62h-3.71v2.48h3.71v-2.48Z"/>
    <path class="cls-4" d="M927.14,115.18c.1-.17.24-.4.43-.68.19-.29.35-.5.47-.65.12-.14.23-.22.32-.22.19,0,.79.46,1.8,1.37,1.01.91,1.62,1.56,1.84,1.94.07.12.07.24,0,.36-.14.26-.45.4-.9.4h-9.61c1.2.98,2.77,1.76,4.72,2.32,1.94.56,3.91.92,5.9,1.06.19.05.29.14.29.29v.07c0,.12-.06.24-.18.36-1.32,1.15-2.09,2.52-2.3,4.1-.05.22-.17.28-.36.18-1.85-.79-3.59-1.94-5.24-3.44-1.64-1.5-2.98-3.15-4.01-4.95h-7.81c-1.2,1.94-2.87,3.64-5.02,5.08-2.15,1.44-4.65,2.63-7.51,3.56h-.11c-.12,0-.22-.05-.29-.14l-.04-.04s-.04-.07-.04-.14c0-.1.06-.18.18-.25,1.66-.96,3.14-2.14,4.45-3.55,1.31-1.4,2.38-2.91,3.22-4.52h-2.56c-1.54.05-2.99.2-4.36.47h-.11c-.1,0-.18-.06-.25-.18l-.65-1.22s-.04-.07-.04-.14c0-.12.1-.18.29-.18,1.3.12,2.75.2,4.36.25h3.49v-12.35h-2.12c-1.22.02-2.44.17-3.64.43-.19.05-.31,0-.36-.14l-.65-1.22s-.04-.07-.04-.14c0-.12.1-.18.29-.18,1.25.12,2.66.2,4.25.25h2.27c0-1.75-.08-3.23-.25-4.43,0-.24.11-.34.32-.29,1.87.41,3.16.73,3.85.97.7.24,1.04.44,1.04.61,0,.1-.08.2-.25.32l-.61.43v2.38h8.28c0-1.75-.08-3.23-.25-4.43,0-.24.11-.34.32-.29,1.9.41,3.2.73,3.92.97.72.24,1.08.44,1.08.61,0,.1-.1.2-.29.32l-.65.43v2.38h1.51l.9-1.44c.12-.17.27-.38.45-.65.18-.26.32-.46.43-.59.11-.13.21-.2.31-.2.22,0,.8.43,1.76,1.28.96.85,1.54,1.47,1.73,1.85.07.12.07.24,0,.36-.14.26-.44.4-.9.4h-6.19v12.35h2.12l.97-1.51ZM920.2,122.96c.12-.14.27-.35.45-.61.18-.26.32-.46.43-.58.11-.12.21-.18.31-.18.22,0,.8.41,1.76,1.22s1.54,1.4,1.73,1.76c.07.12.07.24,0,.36-.14.26-.44.4-.9.4h-6.19v5.15h5.76l1.12-1.58c.14-.17.32-.4.54-.7.22-.3.39-.52.52-.67.13-.14.25-.22.34-.22.22,0,.92.48,2.11,1.44,1.19.96,1.9,1.64,2.14,2.05l.07.14c0,.17-.1.31-.29.41-.19.11-.43.16-.72.16h-21.89c-1.54.02-3.25.18-5.15.47h-.11c-.1,0-.18-.06-.25-.18l-.65-1.26s-.04-.07-.04-.14c0-.12.08-.18.25-.18,1.32.12,2.78.2,4.39.25h7.63v-5.15h-2.27c-1.32.05-2.58.2-3.78.47h-.11c-.1,0-.18-.06-.25-.18l-.61-1.22s-.04-.07-.04-.14c0-.12.08-.18.25-.18,1.32.12,2.78.2,4.39.25h2.41c0-1.7-.1-3.26-.29-4.68,0-.24.11-.34.32-.29,1.9.38,3.2.7,3.92.94.72.24,1.08.44,1.08.61,0,.07-.08.17-.25.29l-.58.4v2.74h1.48l.94-1.37ZM919.91,107.73v-3.38h-8.28v3.38h8.28ZM919.91,108.77h-8.28v3.42h8.28v-3.42ZM911.63,113.2v3.49h8.28v-3.49h-8.28Z"/>
    <path class="cls-4" d="M966.65,128.63c.78.9,1.27,1.55,1.46,1.96.02.12.01.24-.04.36-.14.26-.43.4-.86.4h-25.7c-1.54.02-3.25.18-5.15.47h-.11c-.1,0-.18-.06-.25-.18l-.61-1.22-.04-.14c0-.17.1-.23.29-.18.65.1,1.61.17,2.88.22h1.55v-3.6c0-2.62-.13-4.94-.4-6.98v-.07c0-.19.09-.25.29-.18l4.28,1.69h14.62l.76-1.12c.1-.12.22-.29.38-.5.16-.22.28-.38.38-.49s.19-.16.29-.16c.22,0,.86.38,1.94,1.13,1.08.76,1.75,1.31,2.02,1.67.07.1.06.2-.04.32-.24.29-.71.48-1.4.58v7.7h.14l.79-1.51c.07-.12.19-.33.36-.63.17-.3.31-.52.41-.67.11-.14.21-.22.31-.22.19,0,.68.45,1.46,1.35ZM936.65,113.06c-.1,0-.17-.07-.22-.22l-.83-3.28v-.11c0-.14.08-.22.25-.22,1.3-.07,2.22-.13,2.77-.18v-3.85c0-1.22-.06-2.44-.18-3.64v-.07c0-.1.02-.16.07-.2.05-.04.12-.03.22.02l3.53,1.48h.25c.1-.79.14-1.79.14-2.99v-1.08c0-.14.11-.22.32-.22,1.66.26,2.8.49,3.44.68.63.19.95.36.95.5,0,.07-.05.13-.14.18-.17.12-.26.18-.29.18l-.47.25c-.77.82-1.69,1.64-2.77,2.48h3.17l.65-1.01c.07-.1.17-.25.31-.45.13-.2.25-.35.34-.45.1-.1.19-.14.29-.14.22,0,.76.36,1.62,1.08.86.72,1.4,1.27,1.62,1.66.07.1.05.2-.07.32-.26.22-.61.37-1.04.47v3.89l1.22-.11h.11c.12,0,.18.08.18.25v.14c0,.12-.07.2-.22.25l-1.3.32v6.88c0,.86-.09,1.56-.27,2.09-.18.53-.54.95-1.08,1.28-.54.32-1.35.55-2.43.67h-.07c-.12,0-.2-.08-.25-.25-.05-.98-.2-1.67-.47-2.05-.22-.29-.48-.53-.79-.72-.24.14-.53.26-.86.36-.34.1-.64.14-.9.14h-.22c-.19,0-.29-.1-.29-.29v-2.7c0-1.1-.05-2.04-.14-2.81,0-.24.12-.32.36-.25,1.34.43,2.17.76,2.48.99.31.23.36.41.14.56l-.32.22v3.02l1.15.04c.22,0,.37-.05.45-.14.08-.1.13-.24.13-.43v-5.69c-1.61.43-3.44.9-5.51,1.4-.14,2.06-.62,3.94-1.42,5.63-.8,1.69-2.17,3.15-4.09,4.37-.12.07-.24.05-.36-.07-.12-.12-.12-.25,0-.4.91-1.2,1.57-2.52,1.98-3.96.41-1.44.66-3.05.76-4.82l-1.08.25c-.12.31-.35.54-.68.68l-.14.04ZM941.76,103.84v5.04l5.44-.43v-4.61h-5.44ZM942.52,104.45c.12-.07.24-.1.36-.07,1.06.22,1.84.54,2.36.97.52.43.77.89.77,1.37,0,.38-.14.71-.41.99-.28.28-.61.41-.99.41-.34,0-.66-.12-.97-.36-.12-.1-.18-.22-.18-.36-.02-.46-.13-.92-.31-1.39-.18-.47-.39-.87-.63-1.21-.1-.17-.1-.29,0-.36ZM943.88,130.3h2.63v-8.1h-2.63v8.1ZM968.08,116.66c.19.05.29.12.29.22-.02.17-.11.26-.25.29-1.2.48-1.99,1.56-2.38,3.24-.07.17-.19.24-.36.22-2.86-.84-5.12-1.93-6.8-3.28-2.42,1.27-5.28,2.16-8.57,2.66h-.07c-.12,0-.2-.07-.25-.22-.02-.02-.04-.07-.04-.14,0-.12.07-.19.22-.22,2.83-.89,5.2-2.09,7.09-3.6-1.08-1.18-1.96-2.64-2.63-4.39h-.58c-.12.02-.26.1-.43.22-.14.19-.28.18-.4-.04l-.72-1.37-.4.18c-.17.07-.29.04-.36-.11-.07-.12-.06-.25.04-.4.82-.94,1.34-1.94,1.58-3.01.24-1.07.36-2.29.36-3.65v-1.8c0-.38-.02-.91-.07-1.58,0-.12.03-.2.09-.25.06-.05.14-.05.23,0l3.6,1.55h1.66l.72-1.04c.07-.1.19-.25.34-.45.16-.2.28-.35.38-.45.1-.1.19-.14.29-.14.19,0,.67.35,1.42,1.04.76.7,1.23,1.24,1.42,1.62.07.12.05.24-.07.36-.26.17-.56.29-.9.36v2.84c0,.19.02.31.07.34.05.04.17.05.36.05h1.55c.22,0,.38-.1.5-.29.26-.53.59-1.45.97-2.77.02-.17.12-.25.29-.25.12,0,.18.1.18.29l.11,2.81c.36.17.6.35.72.56.12.2.18.46.18.77,0,.65-.32,1.13-.97,1.44-.65.31-1.68.47-3.1.47h-.32c1.73,1.44,2.59,2.35,2.59,2.74,0,.12-.12.22-.36.29l-.65.14c-.82,1.32-1.87,2.51-3.17,3.56,1.78.55,3.97.95,6.59,1.19ZM950.08,130.3h2.77v-8.1h-2.77v8.1ZM960.8,110.39l1.73-1.66h-.68c-.79,0-1.37-.08-1.73-.25-.36-.17-.6-.44-.72-.81-.12-.37-.18-.93-.18-1.67v-3.82h-2.48v1.04c0,3.14-1.44,5.45-4.32,6.91,1.34.12,2.84.2,4.5.25h3.89ZM960.7,111.44h-5.54c.84,1.1,1.99,2.06,3.46,2.88.84-.91,1.54-1.87,2.09-2.88ZM956.45,130.3h2.7v-8.1h-2.7v8.1Z"/>
    <path class="cls-4" d="M980.48,129.15c-.04-.07-.05-.18-.05-.32,0-.29.08-.43.25-.43h.43c.91,0,1.64-.2,2.2-.61.55-.41.83-1.18.83-2.3v-19.01c0-1.13-.28-1.89-.83-2.29-.55-.4-1.28-.59-2.2-.59h-.43c-.1,0-.16-.04-.2-.11-.04-.07-.05-.18-.05-.32,0-.29.08-.43.25-.43l8.03-.04c2.71,0,4.58.01,5.62.04,1.58.02,3.05.29,4.39.79,1.34.5,2.42,1.23,3.22,2.18.8.95,1.21,2.05,1.21,3.29,0,1.61-.67,2.91-2,3.91-1.33,1-2.99,1.73-4.99,2.21,2.35.5,4.35,1.31,5.99,2.43,1.64,1.12,2.47,2.59,2.47,4.41,0,1.49-.46,2.78-1.39,3.89-.92,1.1-2.15,1.95-3.69,2.54-1.54.59-3.2.88-5,.88l-5.98.04-7.88-.04c-.1,0-.16-.04-.2-.11ZM989.71,114.57c3.17,0,5.32-.52,6.44-1.55,1.13-1.03,1.69-2.42,1.69-4.18,0-1.49-.5-2.71-1.49-3.65-1-.95-2.5-1.42-4.52-1.42-1.06,0-1.81.17-2.27.52-.46.35-.68.93-.68,1.75v8.53h.83ZM992.63,128.18c2.04,0,3.67-.53,4.88-1.58,1.21-1.06,1.82-2.62,1.82-4.68,0-1.92-.69-3.44-2.07-4.57-1.38-1.13-3.89-1.69-7.54-1.69h-.83v10.26c0,.86.23,1.46.68,1.78.46.32,1.22.49,2.3.49h.76Z"/>
    <path class="cls-4" d="M734.51,171.24c-.57-.37-1.27-.98-2.11-1.85-.84-.87-1.64-2.09-2.39-3.69-.75-1.59-1.13-3.45-1.13-5.58s.38-3.99,1.13-5.58c.75-1.59,1.55-2.82,2.39-3.69.84-.86,1.55-1.48,2.11-1.85.12-.08.21-.12.25-.12s.09.02.13.06c.04.04.06.08.06.13s-.05.14-.16.28c-.61.64-1.19,1.37-1.75,2.18-.55.81-1.06,1.95-1.52,3.41-.46,1.46-.69,3.19-.69,5.18s.22,3.66.67,5.1c.44,1.44.94,2.57,1.48,3.4.54.83,1.12,1.56,1.73,2.21l.14.16s.03.06.06.1c.02.04.03.07.03.1,0,.05-.02.08-.06.12-.04.03-.08.05-.13.05s-.13-.04-.25-.12Z"/>
    <path class="cls-4" d="M737.3,172.43c-.47-.21-.83-.48-1.09-.8-.26-.32-.39-.64-.39-.96,0-.37.11-.65.33-.86.22-.21.47-.31.75-.31.43,0,.84.18,1.24.53.21.17.51.49.9.96.2.23.37.41.52.53s.29.18.45.18c.12,0,.26-.05.41-.14l.16-.16c.31-.31.53-.87.67-1.69s.21-1.99.21-3.53v-11.83c0-.74-.18-1.23-.54-1.48-.36-.25-.83-.38-1.41-.38h-.3c-.11,0-.16-.09-.16-.28,0-.2.05-.3.16-.3h7.44c.12,0,.18.1.18.3,0,.18-.06.28-.18.28h-.28c-.57,0-1.03.13-1.39.39-.36.26-.54.75-.54,1.47l.02,11.97c0,1.59-.31,2.87-.92,3.83-.61.96-1.34,1.63-2.19,2.02-.85.39-1.67.59-2.45.59-.6,0-1.13-.11-1.6-.32Z"/>
    <path class="cls-4" d="M751.99,168.28c-.2-.09-.39-.14-.57-.14-.2,0-.4.06-.61.18s-.44.31-.7.55c-.06.06-.11.08-.16.07s-.08-.06-.09-.14l-.99-4.25-.05-.21s.02-.06.06-.09c.04-.03.08-.05.11-.07.04-.02.07-.03.08-.05.03-.02.08-.02.14-.02s.15.06.25.18c1.71,2.6,3.79,3.91,6.23,3.91.98,0,1.8-.25,2.47-.76.67-.51,1-1.26,1-2.25,0-1.16-.64-2.03-1.91-2.6-.63-.28-1.47-.58-2.53-.92-.14-.05-.48-.16-1.03-.34-.55-.18-1.04-.38-1.47-.6-1.81-.92-2.71-2.3-2.71-4.14,0-.69.16-1.41.48-2.16.32-.75.88-1.4,1.69-1.94.8-.54,1.87-.82,3.21-.82.47,0,.94.05,1.39.16.45.11,1,.27,1.64.48.25.09.46.14.64.14.37,0,.74-.19,1.1-.57.12-.12.21-.11.25.05l1.1,3.72.02.05c.03.11.02.18-.02.23-.03.03-.08.06-.16.09-.09.03-.16.05-.21.05-.08,0-.15-.05-.23-.14-.18-.31-.51-.72-.99-1.25s-1.11-1.03-1.92-1.49c-.8-.47-1.7-.7-2.7-.7-.89,0-1.57.19-2.04.56-.47.38-.79.78-.94,1.21-.15.43-.23.8-.23,1.1,0,.98.5,1.74,1.52,2.27.32.17.75.35,1.28.54.53.19,1.07.38,1.62.56,1.29.41,2.25.77,2.89,1.06,1.09.52,1.86,1.15,2.32,1.9.46.74.69,1.54.69,2.4,0,.95-.23,1.81-.7,2.57-.47.77-1.15,1.37-2.06,1.81-.9.44-1.98.67-3.24.67-1.15,0-2.46-.29-3.93-.87Z"/>
    <path class="cls-4" d="M775.51,152.55c.91.36,1.64.87,2.19,1.52s.83,1.43.83,2.33c0,1.09-.34,1.97-1.02,2.65-.68.68-1.51,1.17-2.48,1.47-.97.3-1.96.47-2.98.52-.41.02-1,.02-1.77.02h-.9v5.38c0,.72.18,1.21.53,1.47.35.26.82.39,1.4.39h.28c.11,0,.16.08.16.25,0,.2-.05.3-.16.3h-7.44c-.11,0-.16-.1-.16-.3,0-.17.05-.25.16-.25h.3c.57,0,1.03-.13,1.39-.39.36-.26.54-.75.54-1.47v-12.11c0-.72-.18-1.21-.53-1.46s-.82-.38-1.4-.38h-.3c-.11,0-.16-.1-.16-.3,0-.18.05-.28.16-.28h8.41c1.06.06,2.04.27,2.95.63ZM774.31,159.24c.62-.71.93-1.69.93-2.93,0-.87-.22-1.59-.66-2.16-.44-.57-.96-.97-1.57-1.22-.61-.25-1.2-.37-1.75-.37-1.26,0-1.88.49-1.88,1.47v6.36h1.72c1.52-.06,2.58-.45,3.21-1.16Z"/>
    <path class="cls-4" d="M783.56,168.28c-.2-.09-.39-.14-.57-.14-.2,0-.4.06-.61.18s-.44.31-.7.55c-.06.06-.11.08-.16.07s-.08-.06-.09-.14l-.99-4.25-.05-.21s.02-.06.06-.09c.04-.03.08-.05.11-.07.04-.02.07-.03.08-.05.03-.02.08-.02.14-.02s.15.06.25.18c1.71,2.6,3.79,3.91,6.23,3.91.98,0,1.8-.25,2.47-.76.67-.51,1-1.26,1-2.25,0-1.16-.64-2.03-1.91-2.6-.63-.28-1.47-.58-2.53-.92-.14-.05-.48-.16-1.03-.34-.55-.18-1.04-.38-1.47-.6-1.81-.92-2.71-2.3-2.71-4.14,0-.69.16-1.41.48-2.16.32-.75.88-1.4,1.69-1.94.8-.54,1.87-.82,3.21-.82.47,0,.94.05,1.39.16.45.11,1,.27,1.64.48.25.09.46.14.64.14.37,0,.74-.19,1.1-.57.12-.12.21-.11.25.05l1.1,3.72.02.05c.03.11.02.18-.02.23-.03.03-.08.06-.16.09-.09.03-.16.05-.21.05-.08,0-.15-.05-.23-.14-.18-.31-.51-.72-.99-1.25s-1.11-1.03-1.92-1.49c-.8-.47-1.7-.7-2.7-.7-.89,0-1.57.19-2.04.56-.47.38-.79.78-.94,1.21-.15.43-.23.8-.23,1.1,0,.98.5,1.74,1.52,2.27.32.17.75.35,1.28.54.53.19,1.07.38,1.62.56,1.29.41,2.25.77,2.89,1.06,1.09.52,1.86,1.15,2.32,1.9.46.74.69,1.54.69,2.4,0,.95-.23,1.81-.7,2.57-.47.77-1.15,1.37-2.06,1.81-.9.44-1.98.67-3.24.67-1.15,0-2.46-.29-3.93-.87Z"/>
    <path class="cls-4" d="M808.44,155.64c.08-.11.17-.25.26-.41s.18-.29.25-.37c.07-.08.13-.11.2-.11.12,0,.46.26,1.02.79.56.53.9.92,1.02,1.16l.02.09c0,.12-.06.22-.18.29-.12.07-.26.1-.41.1h-3.06v1.29c1.12.38,1.94.85,2.47,1.41.53.56.79,1.11.79,1.67,0,.35-.1.65-.31.88-.21.24-.46.36-.77.36-.28,0-.56-.1-.85-.3-.05-.05-.08-.12-.12-.23-.14-.9-.54-1.94-1.22-3.1v5.49c.03,1.92.09,3.67.18,5.26,0,.09-.02.17-.07.23-.2.2-.49.38-.87.54-.38.16-.82.24-1.31.24-.21,0-.38-.05-.51-.14-.12-.09-.18-.2-.18-.32.06-.78.11-1.55.15-2.32.04-.77.07-1.73.08-2.89v-2.85c-.98,1.47-2.17,2.78-3.56,3.93-.09.08-.18.08-.25,0l-.02-.02c-.08-.08-.09-.16-.05-.25.81-1.15,1.52-2.5,2.14-4.06.61-1.55,1.09-3.16,1.45-4.81h-1.03c-.52.02-1.05.11-1.58.28h-.07c-.06,0-.12-.04-.16-.11l-.39-.74s-.02-.07-.02-.11c0-.08.05-.11.16-.09.73.06,1.47.11,2.21.14h1.2v-3.61c-.92.14-2.04.26-3.38.37-.12,0-.19-.05-.21-.16v-.05c0-.06.04-.11.12-.16,1.13-.41,2.31-.95,3.53-1.61,1.22-.66,2.19-1.27,2.93-1.84.09-.08.18-.08.25,0l2.55,2.34s.07.1.08.15-.02.09-.08.1c-.12.06-.28.09-.48.09-.23,0-.5-.05-.8-.16-.55.15-1.21.31-1.98.48v4.04h.34l.53-.9ZM819.81,161.68c.05-.11.12-.26.22-.47.1-.21.18-.36.24-.46.06-.1.12-.15.18-.15.09,0,.31.13.65.38.34.25.67.52.96.82s.45.49.45.6-.05.2-.14.29c-.09.08-.21.14-.34.17l-2.87.57v2.18c.05,1.82.1,3.19.16,4.09,0,.09-.02.16-.07.21-.15.21-.44.42-.86.61-.42.19-.84.29-1.25.29-.23,0-.4-.05-.51-.14s-.16-.2-.16-.32c.09-1.35.15-2.72.18-4.11v-2.3l-6.87,1.38h-.07c-.06,0-.12-.04-.16-.11l-.16-.3s-.02-.05-.02-.09c0-.08.05-.12.14-.14l7.15-1.4v-8.78c0-1.75-.09-3.24-.28-4.48,0-.15.07-.21.21-.18,1.21.28,2.04.49,2.48.64.44.15.67.29.67.41,0,.06-.06.13-.18.21l-.39.28v11.42l.18-.05.46-1.06ZM811.01,157.5s.12-.06.21-.05c1.38.17,2.4.52,3.07,1.06.67.54,1,1.11,1,1.72,0,.38-.12.7-.36.97-.24.26-.53.39-.88.39-.31,0-.59-.09-.85-.28-.06-.03-.11-.1-.14-.21-.14-.57-.39-1.16-.77-1.78-.38-.62-.79-1.15-1.23-1.6-.09-.09-.11-.17-.05-.23ZM811.45,151.83s.12-.06.21-.05c1.36.21,2.37.6,3.02,1.16.65.56.98,1.15.98,1.76,0,.38-.12.71-.36.98-.24.27-.52.4-.86.4s-.62-.11-.9-.32c-.06-.03-.11-.1-.14-.21-.12-.58-.36-1.19-.72-1.84-.36-.64-.75-1.19-1.18-1.65-.09-.09-.11-.17-.05-.23Z"/>
    <path class="cls-4" d="M844.1,157.79c.32.31.63.65.92,1.01s.44.59.44.7c-.02.25-.21.37-.57.37h-2.69v4.73c.03,1.92.09,3.67.18,5.26,0,.09-.02.17-.07.23-.17.2-.44.38-.82.53-.38.15-.82.23-1.34.23-.21,0-.39-.05-.52-.14s-.2-.2-.2-.32c.06-.9.12-1.78.16-2.63s.08-1.96.09-3.34v-4.55h-2.18c-.03,1.64-.2,3.1-.51,4.39-.31,1.29-.91,2.5-1.81,3.65-.9,1.15-2.21,2.14-3.93,2.96-.11.06-.18.05-.23-.02-.06-.09-.05-.17.05-.23,1.07-.93,1.9-1.96,2.48-3.08.58-1.12.98-2.29,1.18-3.5.21-1.22.32-2.61.33-4.17h-.74c-.32.02-.65.1-.99.25l-.09.02c-.08,0-.13-.04-.16-.11l-.48-.96v3.1c.03,1.91.09,3.67.18,5.26,0,.09-.03.17-.09.23-.18.15-.49.3-.92.45s-.8.22-1.13.22c-.26,0-.42-.11-.48-.34,0-.09,0-.17.02-.23.01-.06.02-.13.02-.21s.01-.18.05-.32v-.55h-1.91v.71l.07,1.19c.01.08,0,.15-.02.23-.12.18-.35.35-.69.51-.34.15-.74.23-1.22.23-.17,0-.31-.05-.41-.14s-.16-.2-.16-.32c.11-1.38.18-2.9.21-4.55v-2.53c-.66.92-1.2,1.61-1.63,2.07-.06.09-.15.1-.25.02l-.02-.02c-.09-.06-.12-.15-.07-.25,1.44-2.79,2.42-6.7,2.94-11.74h-.85c-.4.02-.83.1-1.31.25-.11.05-.18.02-.23-.09l-.39-.78s-.02-.05-.02-.09c0-.08.05-.11.16-.11.84.08,1.78.13,2.8.16h2.94l1.24-1.63c.06-.09.15-.1.25-.02l1.98,1.7h7.51l.62-.92c.06-.08.15-.21.28-.39.12-.18.22-.32.3-.4.08-.08.15-.13.21-.13.14,0,.52.28,1.14.83s1,.95,1.14,1.19l.02.09c0,.12-.06.22-.17.29-.11.07-.26.1-.42.1h-2.09v7.08h.09l.51-.94c.06-.09.14-.23.24-.4.1-.18.18-.31.25-.4.07-.09.13-.14.2-.14.09,0,.3.16.62.47ZM835.07,159.2v-7.08h-1.58c-.11,0-.16,0-.16-.02l-.02-.02h-3.56c-.31,2.08-.79,4.01-1.45,5.77l.37.16h1.38l.5-.6c.06-.06.14-.15.24-.26.1-.12.18-.2.24-.25.06-.05.12-.08.18-.08.14,0,.48.22,1.03.65.55.44.9.77,1.03,1,.05.06.03.13-.05.21-.15.15-.36.25-.62.3v.05c.47.09,1.03.15,1.68.18h.78ZM828.36,166.02h1.91v-7.35h-1.91v7.35ZM837.5,159.2h2.18v-7.08h-2.18v7.08Z"/>
    <path class="cls-4" d="M866.95,155.18c.51.41.83.73.95.94.05.06.03.13-.05.21-.15.12-.38.21-.69.25-.08.6-.18,1.05-.31,1.36-.13.31-.35.54-.65.71-.37.2-.94.31-1.72.34l.67.55c.11.08.11.16.02.25-.15.14-.37.24-.64.3v2.23c.05,1.85.1,3.25.16,4.18,0,.09-.03.17-.09.23-.18.15-.51.31-.99.46-.47.15-.9.23-1.26.23h-.25c-.12,0-.18-.06-.18-.18v-.76h-6.75l1.36,1.1c.8.48,1.19.79,1.19.94,0,.08-.14.13-.41.16l-.62.05c-.98.54-2.26,1-3.83,1.4-1.57.4-3.16.66-4.77.78h-.05c-.08,0-.13-.05-.16-.14v-.05c0-.08.05-.13.14-.16,1.23-.4,2.41-.9,3.56-1.52,1.47-.8,2.57-1.65,3.31-2.57h-1.29v.55c0,.09-.11.21-.33.34-.22.14-.51.26-.85.36s-.68.15-1,.15c-.17,0-.31-.05-.42-.14-.12-.09-.17-.2-.17-.32.06-.8.11-1.58.15-2.34.04-.77.07-1.73.08-2.89v-2.85c-.9.34-2.01.64-3.33.9h-.05c-.08,0-.13-.04-.16-.11v-.05s.05-.09.14-.14c2.68-.9,4.5-2.13,5.47-3.68h-1.95l-.18.78c-.02.09-.06.16-.14.21-.29.12-.61.18-.94.18-.28,0-.62-.05-1.03-.14-.12-.03-.17-.11-.14-.23l.02-.09c.17-.69.31-1.45.42-2.27.12-.83.18-1.55.2-2.18,0-.17.07-.21.21-.14l2.5,1.06h2c.03-.52.05-.91.05-1.17v-.41h-1.79c-.95.02-2,.11-3.15.3h-.05c-.08,0-.14-.04-.18-.11l-.41-.78-.02-.09c0-.08.05-.12.16-.12.83.08,1.75.13,2.78.16h2.67c0-.72-.03-1.32-.09-1.79,0-.15.07-.21.21-.18,1.09.28,1.83.48,2.23.62.4.14.6.26.6.37,0,.05-.06.12-.18.21l-.37.23v.55h2.23c0-.72-.03-1.32-.09-1.79,0-.15.07-.21.21-.18,1.1.26,1.86.47,2.27.62.41.15.62.28.62.39,0,.06-.06.13-.18.21l-.39.25v.51h2.16l.51-.6c.08-.08.18-.2.32-.37.14-.17.25-.25.34-.25.14,0,.5.22,1.09.67.59.44.95.78,1.09,1.01.05.06.03.13-.05.21-.17.17-.41.28-.71.34v.67l.07,1.08c.03.11.02.18-.05.21-.15.15-.44.3-.85.45-.41.15-.79.22-1.13.22h-.25c-.12,0-.18-.06-.18-.18v-.57h-2.37v1.54h3.68l.48-.53c.06-.06.16-.16.3-.31.14-.15.25-.22.34-.22.14,0,.46.21.98.62ZM853.47,155.62c.21-.47.38-.99.51-1.54h-2.41c-.14.64-.24,1.16-.3,1.54h2.21ZM864.98,156.26h-3.81v.55l.07.85.02.09c0,.17-.23.34-.69.51-.46.17-.93.25-1.42.25-.34,0-.5-.15-.5-.46.03-.28.05-.47.05-.57l.05-.46v-.76h-3.33c-.63.92-1.54,1.7-2.73,2.34l1.08.46h7.97l1.06-1.19c.06-.09.15-.1.25-.02l1.1.87c-.02-.32-.11-.61-.28-.87-.2-.21-.54-.38-1.03-.51-.11-.02-.16-.08-.16-.21,0-.09.05-.14.14-.14.21,0,.52.02.92.05l.53.02c.23,0,.4-.04.51-.11.11-.08.18-.31.23-.69ZM853.58,161.27h8.32v-1.56h-8.32v1.56ZM853.58,163.54h8.32v-1.63h-8.32v1.63ZM853.58,165.84h8.32v-1.65h-8.32v1.65ZM856.3,154.08c-.09.49-.27,1-.53,1.54h2.96v-1.54h-2.44ZM856.5,152.29c0,.41-.03.8-.09,1.15h2.32v-1.59h-2.23v.44ZM858.64,167.54c0-.12.07-.18.21-.18,1.99.03,3.6.17,4.82.42s2.1.55,2.62.9.78.71.78,1.09c0,.31-.16.57-.47.79-.31.22-.68.33-1.09.33s-.82-.13-1.17-.39c-.6-.51-1.37-1.01-2.32-1.52-.95-.51-2.03-.93-3.24-1.29-.09-.03-.14-.08-.14-.16ZM863.53,151.85h-2.37v1.59h2.37v-1.59Z"/>
    <path class="cls-4" d="M887.53,165.92c-.24.91-.4,1.56-.49,1.94l-.21.83c-.02.11-.08.16-.21.16h-10.09c-.12,0-.2-.05-.23-.14l-.07-.16c-.03-.08-.03-.15,0-.23.43-1.15,1.05-2.22,1.85-3.22.8-1,1.87-2.18,3.21-3.56.83-.87,1.46-1.59,1.9-2.15s.77-1.13,1.01-1.7.36-1.21.36-1.92c0-1-.26-1.78-.79-2.37s-1.28-.87-2.26-.87c-.71,0-1.3.15-1.79.45-.49.3-.74.7-.74,1.21,0,.21.05.39.14.53.09.14.23.3.41.48.2.2.35.38.45.54.1.16.15.37.15.63,0,.48-.16.85-.47,1.13-.31.28-.71.41-1.18.41-.25,0-.5-.08-.77-.25-.27-.17-.49-.41-.67-.72-.18-.31-.26-.69-.26-1.11,0-.66.21-1.31.64-1.94.43-.64,1.04-1.16,1.84-1.56.8-.41,1.72-.61,2.76-.61,1.16,0,2.17.2,3.02.6.85.4,1.49.94,1.93,1.63.44.69.66,1.47.66,2.34,0,.81-.17,1.52-.51,2.11s-.76,1.11-1.27,1.53c-.51.42-1.22.93-2.12,1.53-.64.43-1.13.77-1.47,1.01-1.46,1.03-2.72,2.35-3.79,3.97h3.45c1.24,0,2.19-.06,2.86-.19.67-.13,1.2-.37,1.6-.72.4-.35.77-.9,1.13-1.63.01-.08.07-.12.16-.12.03,0,.08.02.14.05.08.03.13.06.17.08s.06.06.06.1c0,.03-.02.08-.05.16-.05.26-.19.85-.42,1.76Z"/>
    <path class="cls-4" d="M900.73,161.37c.9.77,1.36,1.73,1.36,2.88,0,1.01-.31,1.89-.94,2.63-.63.74-1.44,1.31-2.45,1.69-1,.38-2.06.57-3.16.57s-2-.17-2.81-.52-1.46-.81-1.91-1.39c-.45-.58-.68-1.2-.68-1.86,0-.55.17-.98.52-1.27.34-.3.72-.45,1.14-.45.47,0,.88.12,1.21.36.33.24.49.59.49,1.07,0,.2-.03.37-.1.51-.07.14-.18.31-.33.51-.25.25-.37.48-.37.71,0,.49.24.87.72,1.13.48.26,1.13.39,1.94.39,1.12,0,1.97-.41,2.56-1.22.59-.81.88-1.81.88-3.01s-.29-2.07-.87-2.77c-.58-.7-1.48-1.05-2.69-1.05-.14,0-.31.02-.51.05s-.38.05-.53.05c-.17,0-.31-.05-.42-.15s-.17-.23-.17-.4c0-.14.06-.25.17-.34.12-.09.26-.14.42-.14.15,0,.35.02.6.05l.57.02c.77,0,1.43-.22,1.99-.67.56-.44.84-1.36.84-2.76,0-1.26-.27-2.15-.82-2.68-.54-.53-1.22-.79-2.03-.79-.51,0-.95.11-1.34.34-.39.23-.59.56-.59.99,0,.25.09.51.28.78.2.29.3.57.3.85,0,.4-.12.72-.37.98-.25.25-.58.38-1.01.38-.51,0-.91-.16-1.21-.47s-.45-.76-.45-1.34c0-.52.21-1.04.63-1.56.42-.52,1-.95,1.72-1.28.73-.33,1.53-.49,2.4-.49,1.01,0,1.95.16,2.8.48s1.54.79,2.06,1.41c.51.62.77,1.36.77,2.22,0,1-.35,1.86-1.06,2.61-.71.74-1.75,1.22-3.15,1.44,1.49.25,2.68.75,3.58,1.53Z"/>
    <path class="cls-4" d="M922.51,168.57c0,.18-.05.28-.16.28h-7.7c-.11,0-.16-.09-.16-.28,0-.2.05-.3.16-.3.49,0,.86-.05,1.11-.16.25-.11.38-.28.38-.53,0-.26-.18-.64-.53-1.13l-2.57-3.33-1.91-2.46-.8.83-.64.67v4.27c0,.72.18,1.21.53,1.46.35.25.82.38,1.4.38h.28c.11,0,.16.09.16.28,0,.2-.05.3-.16.3h-7.44c-.11,0-.16-.1-.16-.3,0-.18.05-.28.16-.28h.3c.58,0,1.05-.13,1.39-.39.34-.26.52-.74.52-1.45v-12.11c0-.72-.18-1.21-.53-1.46-.35-.25-.81-.38-1.38-.38h-.3c-.11,0-.16-.1-.16-.3,0-.18.05-.28.16-.28h7.44c.12,0,.18.09.18.28,0,.2-.06.3-.18.3h-.28c-.6,0-1.07.13-1.41.38s-.52.74-.52,1.46v6.62c1.23-1.29,2.52-2.65,3.87-4.09,1.36-1.44,2.18-2.33,2.47-2.67.23-.28.34-.53.34-.76,0-.29-.16-.52-.48-.7-.32-.18-.76-.26-1.31-.26-.11,0-.16-.1-.16-.3,0-.17.05-.25.16-.25h6.78c.12,0,.18.08.18.25,0,.2-.06.3-.18.3-1.42,0-2.74.58-3.95,1.75-.23.2-1.47,1.47-3.72,3.81l-.41.41,1.19,1.59c2.47,3.34,4,5.38,4.59,6.11.47.6.85,1.03,1.11,1.3.27.27.57.48.91.62s.76.22,1.26.22c.11,0,.16.1.16.3Z"/>
    <path class="cls-4" d="M935.06,165.92c-.24.91-.4,1.56-.49,1.94l-.21.83c-.02.11-.08.16-.21.16h-10.09c-.12,0-.2-.05-.23-.14l-.07-.16c-.03-.08-.03-.15,0-.23.43-1.15,1.05-2.22,1.85-3.22.8-1,1.87-2.18,3.21-3.56.83-.87,1.46-1.59,1.9-2.15s.77-1.13,1.01-1.7.36-1.21.36-1.92c0-1-.26-1.78-.79-2.37s-1.28-.87-2.26-.87c-.71,0-1.3.15-1.79.45-.49.3-.74.7-.74,1.21,0,.21.05.39.14.53.09.14.23.3.41.48.2.2.35.38.45.54.1.16.15.37.15.63,0,.48-.16.85-.47,1.13-.31.28-.71.41-1.18.41-.25,0-.5-.08-.77-.25-.27-.17-.49-.41-.67-.72-.18-.31-.26-.69-.26-1.11,0-.66.21-1.31.64-1.94.43-.64,1.04-1.16,1.84-1.56.8-.41,1.72-.61,2.76-.61,1.16,0,2.17.2,3.02.6.85.4,1.49.94,1.93,1.63.44.69.66,1.47.66,2.34,0,.81-.17,1.52-.51,2.11s-.76,1.11-1.27,1.53c-.51.42-1.22.93-2.12,1.53-.64.43-1.13.77-1.47,1.01-1.46,1.03-2.72,2.35-3.79,3.97h3.45c1.24,0,2.19-.06,2.86-.19.67-.13,1.2-.37,1.6-.72.4-.35.77-.9,1.13-1.63.01-.08.07-.12.16-.12.03,0,.08.02.14.05.08.03.13.06.17.08s.06.06.06.1c0,.03-.02.08-.05.16-.05.26-.19.85-.42,1.76Z"/>
    <path class="cls-4" d="M948.37,160.79c.62.43,1.12.93,1.5,1.5.38.57.57,1.24.57,2.01,0,1.01-.3,1.88-.9,2.62-.6.73-1.37,1.29-2.31,1.67-.94.38-1.93.56-2.98.56-1.1,0-2.15-.18-3.15-.54-1-.36-1.8-.87-2.41-1.53-.61-.66-.92-1.41-.92-2.25,0-.92.34-1.7,1.01-2.34.67-.64,1.64-1.26,2.89-1.86-1.06-.54-1.84-1.15-2.35-1.85-.51-.7-.77-1.57-.77-2.61,0-.69.2-1.38.61-2.08s1.01-1.27,1.83-1.72c.81-.45,1.8-.68,2.96-.68.9,0,1.77.16,2.6.47.83.31,1.49.75,2,1.32.5.57.76,1.23.76,1.98,0,.87-.3,1.62-.9,2.24-.6.62-1.42,1.18-2.48,1.69,1,.51,1.8.97,2.42,1.4ZM946.84,167.45c.66-.6.99-1.35.99-2.25,0-.57-.26-1.1-.78-1.59s-1.14-.93-1.85-1.31-1.6-.81-2.68-1.29c-1.33.96-2,2.23-2,3.79,0,1,.29,1.83.86,2.52.57.68,1.44,1.02,2.61,1.02,1.24,0,2.19-.3,2.85-.9ZM941.16,156.5c.23.34.54.64.93.88s.97.55,1.73.92l1.29.64c.7-.49,1.18-1.01,1.42-1.55.25-.54.37-1.14.37-1.8,0-.47-.12-.95-.37-1.44s-.61-.88-1.09-1.21c-.48-.32-1.06-.48-1.73-.48s-1.23.15-1.65.44c-.43.29-.74.65-.94,1.08-.2.43-.3.84-.3,1.24,0,.51.12.93.34,1.27Z"/>
    <path class="cls-4" d="M963.24,161.37c.9.77,1.36,1.73,1.36,2.88,0,1.01-.31,1.89-.94,2.63-.63.74-1.44,1.31-2.45,1.69-1,.38-2.06.57-3.16.57s-2-.17-2.81-.52-1.46-.81-1.91-1.39c-.45-.58-.68-1.2-.68-1.86,0-.55.17-.98.52-1.27.34-.3.72-.45,1.14-.45.47,0,.88.12,1.21.36.33.24.49.59.49,1.07,0,.2-.03.37-.1.51-.07.14-.18.31-.33.51-.25.25-.37.48-.37.71,0,.49.24.87.72,1.13.48.26,1.13.39,1.94.39,1.12,0,1.97-.41,2.56-1.22.59-.81.88-1.81.88-3.01s-.29-2.07-.87-2.77c-.58-.7-1.48-1.05-2.69-1.05-.14,0-.31.02-.51.05s-.38.05-.53.05c-.17,0-.31-.05-.42-.15s-.17-.23-.17-.4c0-.14.06-.25.17-.34.12-.09.26-.14.42-.14.15,0,.35.02.6.05l.57.02c.77,0,1.43-.22,1.99-.67.56-.44.84-1.36.84-2.76,0-1.26-.27-2.15-.82-2.68-.54-.53-1.22-.79-2.03-.79-.51,0-.95.11-1.34.34-.39.23-.59.56-.59.99,0,.25.09.51.28.78.2.29.3.57.3.85,0,.4-.12.72-.37.98-.25.25-.58.38-1.01.38-.51,0-.91-.16-1.21-.47s-.45-.76-.45-1.34c0-.52.21-1.04.63-1.56.42-.52,1-.95,1.72-1.28.73-.33,1.53-.49,2.4-.49,1.01,0,1.95.16,2.8.48s1.54.79,2.06,1.41c.51.62.77,1.36.77,2.22,0,1-.35,1.86-1.06,2.61-.71.74-1.75,1.22-3.15,1.44,1.49.25,2.68.75,3.58,1.53Z"/>
    <path class="cls-4" d="M970.56,168.47c-.25-.45-.38-.96-.38-1.53,0-1.13.28-2.33.84-3.6.56-1.26,1.22-2.45,1.98-3.56s1.68-2.37,2.77-3.78l1.19-1.61h-5.24c-.87,0-1.56.1-2.07.31-.51.21-.91.52-1.21.93s-.59,1.01-.88,1.79c-.02.06-.04.1-.07.11s-.07.02-.12.02l-.14-.02c-.09-.02-.15-.04-.17-.07-.02-.03-.03-.07-.03-.11l.05-.23,1.15-5.08c.02-.11.08-.16.18-.16h10.32c.11,0,.18.05.23.14l.12.23c.05.09.03.18-.05.25-1.42,2.16-2.51,3.99-3.25,5.5-.74,1.51-1.28,2.93-1.6,4.25-.32,1.33-.54,2.87-.64,4.63-.03.73-.21,1.29-.53,1.68-.32.38-.74.57-1.24.57-.55,0-.95-.23-1.21-.68Z"/>
    <path class="cls-4" d="M994.05,164.44v.48c0,.12-.06.18-.18.18h-2.73v1.59c0,1.06.59,1.59,1.77,1.59h.28c.11,0,.16.09.16.28,0,.2-.05.3-.16.3h-6.98c-.11,0-.16-.1-.16-.3,0-.18.05-.28.16-.28h.28c1.16,0,1.75-.53,1.77-1.59v-1.59h-6.75c-.12,0-.18-.06-.18-.18v-.55c0-.08.02-.15.07-.21l8.75-12.34s.07-.06.12-.08.09-.03.14-.01l.62.14c.11.03.16.1.16.21l-.02,12.18h2.73c.12,0,.18.06.18.18ZM988.31,155.92l-5.9,8.34h5.86l.05-8.34Z"/>
    <path class="cls-4" d="M996.25,170.9c.61-.64,1.19-1.37,1.75-2.18.55-.81,1.06-1.95,1.52-3.41.46-1.46.69-3.19.69-5.18s-.23-3.72-.69-5.18c-.46-1.46-.96-2.6-1.52-3.41-.55-.81-1.13-1.54-1.75-2.18-.11-.11-.16-.2-.16-.28,0-.05.02-.09.06-.13.04-.04.07-.06.1-.06.06,0,.15.04.28.12.58.4,1.29,1.02,2.11,1.87s1.62,2.07,2.38,3.66c.76,1.59,1.14,3.45,1.14,5.58s-.38,3.99-1.14,5.58c-.76,1.59-1.55,2.81-2.38,3.66s-1.53,1.47-2.11,1.87c-.12.08-.21.12-.28.12-.03,0-.07-.02-.1-.05-.04-.03-.06-.07-.06-.12,0-.08.05-.18.16-.3Z"/>
  </g>
  <text class="cls-13" transform="translate(752.62 221.4)"><tspan x="0" y="0">最終成果報告展</tspan></text>
  <text class="cls-9" transform="translate(461.1058 1103.0576)"><tspan x="0" y="0">主</tspan><tspan x="27.65" y="0">催</tspan><tspan x="55.3" y="0">：</tspan><tspan x="82.95" y="0">ソ</tspan><tspan x="110.6" y="0">ン</tspan><tspan x="138.25" y="-1.94"> </tspan><tspan x="144.72" y="0">ヨ</tspan><tspan x="172.37" y="0">ン</tspan><tspan x="200.02" y="0">ア</tspan><tspan x="227.67" y="0">＋</tspan><tspan x="255.32" y="-1.94">Aff</tspan><tspan class="cls-18" x="291.49" y="-1.94">e</tspan><tspan x="302.69" y="-1.94">ctive </tspan><tspan class="cls-20" x="360.86" y="-1.94">D</tspan><tspan x="380.02" y="-1.94">esign Lab</tspan></text>
  <g>
    <text class="cls-12" transform="translate(63.7905 1178.8691)"><tspan x="0" y="0">BaBaBa</tspan></text>
    <text class="cls-10" transform="translate(63.1709 1274.293)"><tspan x="0" y="0">東</tspan><tspan x="27.65" y="0">京</tspan><tspan x="55.31" y="0">都</tspan><tspan x="82.96" y="0">新</tspan><tspan x="110.61" y="0">宿</tspan><tspan x="138.26" y="0">区</tspan><tspan x="165.92" y="0">下</tspan><tspan x="193.57" y="0">落</tspan><tspan class="cls-2" x="221.22" y="0">合</tspan><tspan x="255.79" y="-1.94">2</tspan><tspan x="268.12" y="-1.94">-</tspan><tspan x="277.05" y="-1.94">5</tspan><tspan x="289.41" y="-1.94">-</tspan><tspan x="298.35" y="-1.94">15</tspan><tspan x="321.52" y="-1.94">-</tspan><tspan x="330.45" y="-1.94">1</tspan><tspan x="341.26" y="-1.94">F</tspan></text>
    <text class="cls-10" transform="translate(63.7905 1231.9053)"><tspan x="0" y="0">高</tspan><tspan x="27.65" y="0">田</tspan><tspan x="55.31" y="0">馬</tspan><tspan x="82.96" y="0">場</tspan><tspan x="110.61" y="0">駅</tspan><tspan x="138.26" y="0">か</tspan><tspan x="165.92" y="0">ら</tspan><tspan x="193.57" y="0">徒</tspan><tspan class="cls-2" x="221.22" y="0">歩</tspan><tspan class="cls-2" x="255.79" y="-1.94">5</tspan><tspan x="275.06" y="0">分</tspan></text>
    <text class="cls-10" transform="translate(65.9209 1103.0576)"><tspan x="0" y="0">会</tspan><tspan x="27.65" y="0">場</tspan><tspan class="cls-15" x="55.31" y="0">：</tspan></text>
  </g>
  <text class="cls-6" transform="translate(459.4316 1189.1367)"><tspan class="cls-17" x="0" y="0">7</tspan><tspan x="29.05" y="0">.</tspan><tspan x="43.8" y="0">31</tspan></text>
  <text class="cls-6" transform="translate(551.1172 1271.7588)"><tspan x="0" y="0">8</tspan><tspan x="36.28" y="0">.</tspan><tspan x="51.03" y="0">2</tspan></text>
  <text class="cls-7" transform="translate(532.34 603.17)"><tspan x="0" y="0">　　　　someho</tspan><tspan class="cls-16" x="268.77" y="0">w</tspan><tspan x="292.81" y="0">, </tspan><tspan x="0" y="67.01">my h</tspan><tspan class="cls-19" x="77.31" y="67.01">e</tspan><tspan x="93.09" y="67.01">art is </tspan><tspan x="0" y="134.02">　　　with those things</tspan></text>
  <polyline class="cls-14" points="470.94 1211.68 470.94 1257.81 532.34 1257.81"/>
</svg>