<?xml version="1.0" encoding="UTF-8"?>
<svg id="_レイヤー_1" data-name="レイヤー 1" xmlns="http://www.w3.org/2000/svg" viewBox="0 0 1683.78 2383.94">
  <defs>
    <style>
      .cls-1 {
        font-family: CormorantInfant-Medium, 'Cormorant Infant';
        font-weight: 500;
      }

      .cls-1, .cls-2, .cls-3, .cls-4, .cls-5, .cls-6, .cls-7, .cls-8, .cls-9, .cls-10 {
        fill: #3f3b3a;
      }

      .cls-1, .cls-3 {
        font-size: 96px;
      }

      .cls-3, .cls-4, .cls-5, .cls-6, .cls-8 {
        font-family: ATC-72695fc379d17814-83pv-RKSJ-H, ATC-72695fc379d17814;
      }

      .cls-4 {
        font-size: 36px;
      }

      .cls-5 {
        font-size: 24px;
      }

      .cls-6 {
        font-size: 30px;
      }

      .cls-7, .cls-9 {
        font-size: 60px;
      }

      .cls-7, .cls-9, .cls-10 {
        font-weight: 700;
      }

      .cls-7, .cls-10 {
        font-family: ShipporiMincho-Bold, 'Shippori Mincho';
      }

      .cls-8 {
        font-size: 72px;
      }

      .cls-9 {
        font-family: CormorantInfant-Bold, 'Cormorant Infant';
      }

      .cls-11 {
        letter-spacing: .25em;
      }

      .cls-10 {
        font-size: 120px;
        glyph-orientation-vertical: 0deg;
        letter-spacing: .35em;
        text-orientation: upright;
        writing-mode: tb;
      }

      .cls-12 {
        letter-spacing: -.25em;
      }

      .cls-13 {
        fill: none;
        stroke: #3f3b3a;
        stroke-miterlimit: 10;
        stroke-width: 3px;
      }

      .cls-14 {
        letter-spacing: -.05em;
      }

      .cls-15 {
        letter-spacing: -.03em;
      }

      .cls-16 {
        letter-spacing: 0em;
      }

      .cls-17 {
        letter-spacing: 0em;
      }

      .cls-18 {
        letter-spacing: 0em;
      }
    </style>
  </defs>
  <text class="cls-10" transform="translate(559.4 154.93)"><tspan x="0" y="0">モノに</tspan><tspan x="-180" y="0">こころを</tspan><tspan x="-360" y="0">あずけておりまして</tspan></text>
  <text class="cls-6"><tspan x="914.95" y="2188.33">研</tspan><tspan x="944.95" y="2188.33">究</tspan><tspan x="974.95" y="2188.33">テ</tspan><tspan x="1004.95" y="2188.33">ー</tspan><tspan x="1034.95" y="2188.33">マ</tspan><tspan class="cls-11" x="1064.95" y="2188.33">名</tspan><tspan x="1102.45" y="2186.23">: </tspan><tspan x="914.95" y="2236.33">モ</tspan><tspan x="944.95" y="2236.33">ノ</tspan><tspan x="974.95" y="2236.33">の</tspan><tspan x="1004.95" y="2236.33">主</tspan><tspan x="1034.95" y="2236.33">観</tspan><tspan x="1064.95" y="2236.33">的</tspan><tspan x="1094.95" y="2236.33">価</tspan><tspan x="1124.95" y="2236.33">値</tspan><tspan x="1154.95" y="2236.33">の</tspan><tspan x="1184.95" y="2236.33">ダ</tspan><tspan x="1214.95" y="2236.33">イ</tspan><tspan x="1244.95" y="2236.33">ナ</tspan><tspan x="1274.95" y="2236.33">ミ</tspan><tspan x="1304.95" y="2236.33">ク</tspan><tspan x="1334.95" y="2236.33">ス</tspan><tspan x="1364.95" y="2236.33">を</tspan><tspan x="1394.95" y="2236.33">基</tspan><tspan x="1424.95" y="2236.33">盤</tspan><tspan x="1454.95" y="2236.33">と</tspan><tspan x="1484.95" y="2236.33">し</tspan><tspan x="1514.95" y="2236.33">た</tspan><tspan x="914.95" y="2284.33">循</tspan><tspan x="944.95" y="2284.33">環</tspan><tspan x="974.95" y="2284.33">型</tspan><tspan x="1004.95" y="2284.33">経</tspan><tspan x="1034.95" y="2284.33">済</tspan><tspan x="1064.95" y="2284.33">の</tspan><tspan x="1094.95" y="2284.33">イ</tspan><tspan x="1124.95" y="2284.33">ン</tspan><tspan x="1154.95" y="2284.33">タ</tspan><tspan x="1184.95" y="2284.33">ラ</tspan><tspan x="1214.95" y="2284.33">ク</tspan><tspan x="1244.95" y="2284.33">シ</tspan><tspan x="1274.95" y="2284.33">ョ</tspan><tspan x="1304.95" y="2284.33">ン</tspan><tspan x="1334.95" y="2284.33">デ</tspan><tspan x="1364.95" y="2284.33">ザ</tspan><tspan x="1394.95" y="2284.33">イ</tspan><tspan x="1424.95" y="2284.33">ン</tspan></text>
  <text class="cls-8" transform="translate(441.4732 2188.9577)"><tspan x="0" y="0">10</tspan><tspan x="64.22" y="0">:</tspan><tspan x="78.62" y="0">00</tspan><tspan x="150.77" y="0" xml:space="preserve"> - </tspan><tspan x="207.72" y="0">19</tspan><tspan x="271.08" y="0">:</tspan><tspan x="285.48" y="0">00</tspan></text>
  <text class="cls-5" transform="translate(443.6575 2239.5549)"><tspan x="0" y="0">8</tspan><tspan x="11.81" y="0">/</tspan><tspan class="cls-11" x="20.06" y="0">1</tspan><tspan x="35.45" y="1.68">は</tspan><tspan x="59.45" y="1.68">レ</tspan><tspan x="83.45" y="1.68">セ</tspan><tspan x="107.45" y="1.68">プ</tspan><tspan x="131.45" y="1.68">シ</tspan><tspan x="155.45" y="1.68">ョ</tspan><tspan class="cls-11" x="179.45" y="1.68">ン</tspan><tspan x="209.45" y="0">20</tspan><tspan x="232.18" y="0">:</tspan><tspan x="236.98" y="0">0</tspan><tspan class="cls-11" x="249" y="0">0</tspan><tspan x="267.02" y="1.68">ま</tspan><tspan x="291.02" y="1.68">で</tspan><tspan x="0" y="36">8</tspan><tspan x="11.81" y="36">/</tspan><tspan class="cls-11" x="20.06" y="36">2</tspan><tspan class="cls-11" x="36.77" y="37.68">は</tspan><tspan x="66.77" y="36">15</tspan><tspan x="86.88" y="36">:</tspan><tspan x="91.68" y="36">0</tspan><tspan class="cls-11" x="103.7" y="36">0</tspan><tspan x="121.73" y="37.68">ま</tspan><tspan x="145.73" y="37.68">で</tspan></text>
  <text class="cls-5" transform="translate(240.7466 2164.051)"><tspan x="0" y="0">金</tspan><tspan x="24" y="0">曜</tspan><tspan x="48" y="0">日</tspan></text>
  <text class="cls-5" transform="translate(331.8194 2273.4616)"><tspan x="0" y="0">日</tspan><tspan x="24" y="0">曜</tspan><tspan x="48" y="0">日</tspan></text>
  <text class="cls-1" transform="translate(93.7303 1893.0019)"><tspan x="0" y="0">BaBaBa</tspan></text>
  <text class="cls-4" transform="translate(92.9236 2017.2326)"><tspan x="0" y="0">東</tspan><tspan x="36" y="0">京</tspan><tspan x="72" y="0">都</tspan><tspan x="108" y="0">新</tspan><tspan x="144" y="0">宿</tspan><tspan x="180" y="0">区</tspan><tspan x="216" y="0">下</tspan><tspan x="252" y="0">落</tspan><tspan class="cls-11" x="288" y="0">合</tspan><tspan x="333" y="-2.52">2</tspan><tspan x="349.06" y="-2.52">-</tspan><tspan x="360.68" y="-2.52">5</tspan><tspan x="376.78" y="-2.52">-</tspan><tspan x="388.4" y="-2.52">15</tspan><tspan x="418.57" y="-2.52">-</tspan><tspan x="430.2" y="-2.52">1</tspan><tspan x="444.27" y="-2.52">F</tspan></text>
  <g>
    <path class="cls-2" d="M960.12,191.87c.2-.28.43-.64.69-1.08.26-.44.48-.76.66-.96s.35-.3.51-.3c.32,0,1.21.69,2.67,2.07,1.46,1.38,2.35,2.39,2.67,3.03l.06.24c0,.32-.16.57-.48.75-.32.18-.68.27-1.08.27h-7.98v3.36c2.92,1,5.07,2.23,6.45,3.69,1.38,1.46,2.07,2.91,2.07,4.35,0,.92-.27,1.69-.81,2.31-.54.62-1.21.93-2.01.93-.72,0-1.46-.26-2.22-.78-.12-.12-.22-.32-.3-.6-.36-2.36-1.42-5.06-3.18-8.1v14.34c.08,5,.24,9.58.48,13.74,0,.24-.06.44-.18.6-.52.52-1.28.99-2.28,1.41-1,.42-2.14.63-3.42.63-.56,0-1-.12-1.32-.36-.32-.24-.48-.52-.48-.84.16-2.04.29-4.06.39-6.06.1-2,.17-4.52.21-7.56v-7.44c-2.56,3.84-5.66,7.26-9.3,10.26-.24.2-.46.2-.66,0l-.06-.06c-.2-.2-.24-.42-.12-.66,2.12-3,3.98-6.53,5.58-10.59,1.6-4.06,2.86-8.25,3.78-12.57h-2.7c-1.36.04-2.74.28-4.14.72h-.18c-.16,0-.3-.1-.42-.3l-1.02-1.92c-.04-.08-.06-.18-.06-.3,0-.2.14-.28.42-.24,1.92.16,3.84.28,5.76.36h3.12v-9.42c-2.4.36-5.34.68-8.82.96-.32,0-.5-.14-.54-.42v-.12c0-.16.1-.3.3-.42,2.96-1.08,6.03-2.48,9.21-4.2,3.18-1.72,5.73-3.32,7.65-4.8.24-.2.46-.2.66,0l6.66,6.12c.12.12.19.25.21.39.02.14-.05.23-.21.27-.32.16-.74.24-1.26.24-.6,0-1.3-.14-2.1-.42-1.44.4-3.16.82-5.16,1.26v10.56h.9l1.38-2.34ZM989.82,207.65c.12-.28.31-.69.57-1.23.26-.54.47-.94.63-1.2.16-.26.32-.39.48-.39.24,0,.81.33,1.71.99.9.66,1.74,1.37,2.52,2.13.78.76,1.17,1.28,1.17,1.56s-.12.53-.36.75c-.24.22-.54.37-.9.45l-7.5,1.5v5.7c.12,4.76.26,8.32.42,10.68,0,.24-.06.42-.18.54-.4.56-1.15,1.09-2.25,1.59-1.1.5-2.19.75-3.27.75-.6,0-1.04-.12-1.32-.36-.28-.24-.42-.52-.42-.84.24-3.52.4-7.1.48-10.74v-6l-17.94,3.6h-.18c-.16,0-.3-.1-.42-.3l-.42-.78s-.06-.12-.06-.24c0-.2.12-.32.36-.36l18.66-3.66v-22.92c0-4.56-.24-8.46-.72-11.7,0-.4.18-.56.54-.48,3.16.72,5.32,1.28,6.48,1.68,1.16.4,1.74.76,1.74,1.08,0,.16-.16.34-.48.54l-1.02.72v29.82l.48-.12,1.2-2.76ZM966.84,196.73c.12-.12.3-.16.54-.12,3.6.44,6.27,1.36,8.01,2.76s2.61,2.9,2.61,4.5c0,1-.31,1.84-.93,2.52-.62.68-1.39,1.02-2.31,1.02-.8,0-1.54-.24-2.22-.72-.16-.08-.28-.26-.36-.54-.36-1.48-1.03-3.03-2.01-4.65s-2.05-3.01-3.21-4.17c-.24-.24-.28-.44-.12-.6ZM967.98,181.91c.12-.12.3-.16.54-.12,3.56.56,6.19,1.57,7.89,3.03s2.55,2.99,2.55,4.59c0,1-.31,1.85-.93,2.55-.62.7-1.37,1.05-2.25,1.05s-1.62-.28-2.34-.84c-.16-.08-.28-.26-.36-.54-.32-1.52-.95-3.12-1.89-4.8-.94-1.68-1.97-3.12-3.09-4.32-.24-.24-.28-.44-.12-.6Z"/>
    <path class="cls-2" d="M1035.84,196.85c1.36-1.28,2.56-2.54,3.6-3.78.08-.16.19-.24.33-.24s.25.06.33.18l3.54,3.9c.6-1.48,1.36-3.68,2.28-6.6h-35.4c.04.36.06.88.06,1.56,0,1.76-.31,3.29-.93,4.59-.62,1.3-1.41,2.25-2.37,2.85-.72.48-1.48.72-2.28.72-.88,0-1.64-.29-2.28-.87-.64-.58-.96-1.39-.96-2.43,0-.76.23-1.43.69-2.01.46-.58,1.05-1.07,1.77-1.47,1.04-.68,1.92-1.74,2.64-3.18.72-1.44,1.08-3,1.08-4.68,0-.44-.02-.76-.06-.96v-.12c0-.12.04-.22.12-.3.08-.08.16-.12.24-.12.28,0,.48.12.6.36.68,1.68,1.16,3.16,1.44,4.44h24.66l1.08-2.1c.8-1.72,1.56-3.61,2.28-5.67.72-2.06,1.24-3.91,1.56-5.55.08-.36.3-.48.66-.36,3.16,1.24,5.33,2.16,6.51,2.76,1.18.6,1.77,1.04,1.77,1.32,0,.12-.08.21-.24.27-.16.06-.26.09-.3.09l-1.14.3c-3.36,3.52-6.78,6.5-10.26,8.94h8.88l1.74-1.98c.2-.24.48-.55.84-.93.36-.38.64-.66.84-.84.2-.18.38-.27.54-.27.32,0,1.35.83,3.09,2.49,1.74,1.66,2.81,2.87,3.21,3.63.12.16.08.34-.12.54-.2.2-.44.33-.72.39-.28.06-.72.11-1.32.15-1.2.92-2.7,1.91-4.5,2.97-1.8,1.06-3.5,1.95-5.1,2.67l1.56,1.5c.12.08.18.19.18.33s-.06.25-.18.33c-.2.12-.47.22-.81.3-.34.08-.75.14-1.23.18-3.2,1.76-6.8,3.44-10.8,5.04l.72.06c.4.08.54.26.42.54-.2.52-.82.88-1.86,1.08v3.96h12.48l1.8-2.64c.2-.28.48-.67.84-1.17.36-.5.65-.88.87-1.14.22-.26.41-.39.57-.39.36,0,1.47.79,3.33,2.37,1.86,1.58,2.97,2.71,3.33,3.39.12.2.12.4,0,.6-.24.44-.76.66-1.56.66h-21.66v10.56c0,1.84-.23,3.32-.69,4.44-.46,1.12-1.37,2.03-2.73,2.73-1.36.7-3.4,1.19-6.12,1.47h-.12c-.2,0-.34-.14-.42-.42-.12-1.12-.31-2.04-.57-2.76-.26-.72-.67-1.34-1.23-1.86-.64-.56-1.43-1.04-2.37-1.44-.94-.4-2.23-.76-3.87-1.08-.32-.08-.48-.24-.48-.48,0-.2.12-.3.36-.3.72,0,2.52.08,5.4.24,2.56.16,4.02.24,4.38.24.52,0,.87-.08,1.05-.24.18-.16.27-.46.27-.9v-10.2h-12.84c-2.56.04-5.42.3-8.58.78h-.18c-.16,0-.3-.1-.42-.3l-1.08-2.04s-.06-.12-.06-.24c0-.2.16-.3.48-.3,2.16.2,4.58.34,7.26.42h15.42c0-2.28-.12-4.32-.36-6.12,0-.16.04-.29.12-.39.08-.1.2-.13.36-.09l4.92.72c2.2-2.44,3.94-4.56,5.22-6.36h-13.38c-2.56.04-5.42.3-8.58.78h-.18c-.16,0-.3-.1-.42-.3l-1.08-2.1s-.06-.12-.06-.24c0-.2.14-.3.42-.3,2.2.2,4.64.34,7.32.42h16.44ZM1010.64,176.27c.16-.12.36-.14.6-.06,3.4.76,5.9,1.89,7.5,3.39s2.4,3.05,2.4,4.65c0,1.08-.32,1.99-.96,2.73-.64.74-1.46,1.11-2.46,1.11-.76,0-1.56-.3-2.4-.9-.16-.08-.28-.26-.36-.54-.2-1.56-.7-3.21-1.5-4.95-.8-1.74-1.72-3.35-2.76-4.83-.2-.32-.22-.52-.06-.6ZM1023.63,175.64c.02-.1.07-.17.15-.21.16-.12.36-.12.6,0,3.04.96,5.27,2.18,6.69,3.66,1.42,1.48,2.13,2.98,2.13,4.5,0,1.12-.35,2.07-1.05,2.85-.7.78-1.55,1.17-2.55,1.17-.92,0-1.88-.4-2.88-1.2-.16-.16-.24-.36-.24-.6-.04-1.6-.32-3.26-.84-4.98-.52-1.72-1.16-3.32-1.92-4.8-.08-.16-.11-.29-.09-.39Z"/>
    <path class="cls-2" d="M1116.48,224.69c.24.04.36.16.36.36,0,.28-.16.44-.48.48-1.28.28-2.39.91-3.33,1.89-.94.98-1.69,2.21-2.25,3.69-.12.36-.34.44-.66.24-5.28-2.48-9.64-5.58-13.08-9.3-5.52,4.36-12.3,7.52-20.34,9.48-.32.08-.52,0-.6-.24-.04-.04-.06-.1-.06-.18,0-.2.1-.34.3-.42,7.2-3.08,13.06-7.26,17.58-12.54-3.32-4.8-5.72-10.62-7.2-17.46h-1.26c-.36.04-.78.2-1.26.48-.32.24-.54.2-.66-.12l-1.32-2.46c-1.72,1.52-4.08,3.36-7.08,5.52v19.56c0,1.72-.17,3.1-.51,4.14s-1.04,1.88-2.1,2.52c-1.06.64-2.65,1.08-4.77,1.32h-.12c-.28,0-.42-.14-.42-.42-.12-2.04-.46-3.48-1.02-4.32-.36-.52-.83-.94-1.41-1.26-.58-.32-1.37-.6-2.37-.84-.28-.04-.42-.2-.42-.48,0-.24.12-.36.36-.36l3.12.12,2.22.12c.4,0,.68-.07.84-.21.16-.14.24-.41.24-.81v-14.46l-3.48,2.34c-.12.68-.44,1.18-.96,1.5l-.24.06c-.2,0-.34-.1-.42-.3l-2.58-7.14s-.06-.12-.06-.24c0-.2.12-.32.36-.36l7.38-2.22v-11.1h-2.22c-1.04.04-2.18.26-3.42.66-.28.12-.48.04-.6-.24l-1.02-1.98-.06-.24c0-.28.16-.38.48-.3,1,.16,2.48.28,4.44.36h2.4v-2.22c0-4.56-.24-8.46-.72-11.7,0-.4.18-.56.54-.48,3.12.72,5.25,1.28,6.39,1.68,1.14.4,1.71.76,1.71,1.08,0,.16-.16.34-.48.54l-1.08.66v10.44h.48l1.32-2.34c.16-.28.37-.64.63-1.08s.47-.76.63-.96c.16-.2.32-.3.48-.3.2,0,.64.32,1.32.96.68.64,1.38,1.36,2.1,2.16l-.66-1.26s-.06-.12-.06-.24c0-.2.16-.3.48-.3,2.16.2,4.58.34,7.26.42h4.56c0-4.2-.2-7.68-.6-10.44,0-.4.18-.56.54-.48,3.2.72,5.38,1.26,6.54,1.62,1.16.36,1.74.7,1.74,1.02,0,.16-.16.34-.48.54l-1.02.72v7.02h5.34l1.68-2.46c.16-.2.41-.55.75-1.05s.62-.87.84-1.11.41-.36.57-.36c.36,0,1.4.75,3.12,2.25,1.72,1.5,2.76,2.57,3.12,3.21.12.2.12.4,0,.6-.24.44-.74.66-1.5.66h-13.92v10.62h2.76l1.86-1.98c.28-.24.68-.63,1.2-1.17.52-.54.9-.81,1.14-.81.32,0,1.31.78,2.97,2.34,1.66,1.56,2.69,2.7,3.09,3.42.12.16.1.34-.06.54-.2.24-.47.41-.81.51-.34.1-.85.19-1.53.27-2.24,6.28-5.44,11.6-9.6,15.96,4.16,2.76,9.18,4.98,15.06,6.66ZM1089.96,198.95h3.72v-10.62h-3.9c-2.04.04-4.3.3-6.78.78.24.28.44.58.6.9.04.08.06.18.06.3,0,.28-.15.51-.45.69-.3.18-.65.27-1.05.27h-7.02v9l6.66-2.28c.36-.12.56-.08.6.12l.06.3-.12.06c2.12.24,4.66.4,7.62.48ZM1103.46,200.69h-15.6c1.84,5.36,4.84,9.94,9,13.74,2.96-4.16,5.16-8.74,6.6-13.74Z"/>
    <path class="cls-2" d="M1127.4,205.79c-1.96,2.04-3.82,3.72-5.58,5.04-.24.16-.46.14-.66-.06-.2-.2-.22-.42-.06-.66,2.08-2.88,4.04-6.42,5.88-10.62,1.76-4,2.84-7.56,3.24-10.68.04-.2.11-.32.21-.36.1-.04.23-.02.39.06,5,2.68,7.5,4.3,7.5,4.86,0,.16-.18.28-.54.36l-1.14.18c-1.2,1.96-2.48,3.8-3.84,5.52,1.6,1.16,2.4,1.96,2.4,2.4,0,.2-.2.4-.6.6l-.9.36v12.72c.08,5,.24,9.58.48,13.74,0,.24-.08.44-.24.6-.48.44-1.24.86-2.28,1.26-1.04.4-2.08.6-3.12.6-.56,0-1-.12-1.32-.36-.32-.24-.48-.52-.48-.84.16-2.36.3-4.65.42-6.87.12-2.22.2-5.13.24-8.73v-9.12ZM1130.31,175.25c.1-.04.23-.02.39.06l4.02,2.46c2.28,1.12,3.42,1.9,3.42,2.34,0,.2-.22.34-.66.42l-1.08.18c-1.68,2.12-3.76,4.25-6.24,6.39-2.48,2.14-5.08,3.97-7.8,5.49-.24.16-.44.14-.6-.06-.2-.2-.2-.42,0-.66,1.28-1.56,2.6-3.44,3.96-5.64.96-1.64,1.84-3.42,2.64-5.34.8-1.92,1.38-3.68,1.74-5.28.04-.2.11-.32.21-.36ZM1167.42,178.67c.2-.28.45-.64.75-1.08.3-.44.54-.76.72-.96.18-.2.35-.3.51-.3.32,0,1.25.68,2.79,2.04,1.54,1.36,2.49,2.36,2.85,3l.06.24c0,.32-.15.57-.45.75-.3.18-.67.27-1.11.27h-12.6c.04.16.06.36.06.6,0,.68-.18,1.27-.54,1.77-.36.5-.84.85-1.44,1.05l1.32,1.02c1.48,1.24,2.18,1.82,2.1,1.74.2.28.24.5.12.66-.24.4-.68.6-1.32.6h-9.6v24.66c.08,4.96.24,9.56.48,13.8,0,.2-.06.38-.18.54-.44.56-1.19,1.09-2.25,1.59-1.06.5-2.11.75-3.15.75-.56,0-1-.12-1.32-.36s-.48-.52-.48-.84c.16-2.36.3-4.65.42-6.87.12-2.22.2-5.13.24-8.73v-15.66c-.24.08-.42.12-.54.12-1.6,9.72-4.26,17.06-7.98,22.02-.2.28-.42.32-.66.12l-.12-.06c-.24-.12-.32-.34-.24-.66.92-3.04,1.72-6.88,2.4-11.52.32-2.36.48-4.94.48-7.74,0-1.28-.08-2.84-.24-4.68v-.06c0-.16.05-.27.15-.33.1-.06.21-.07.33-.03l6.42,1.14v-7.2h-2.58c-1.36.04-2.74.28-4.14.72h-.18c-.16,0-.3-.1-.42-.3l-1.02-1.92c-.04-.08-.06-.18-.06-.3,0-.2.14-.28.42-.24,1.68.2,3.4.32,5.16.36h2.82v-.54c0-4.56-.24-8.46-.72-11.7,0-.4.18-.56.54-.48,3,.68,5.06,1.22,6.18,1.62,1.12.4,1.68.76,1.68,1.08,0,.16-.14.34-.42.54l-1.02.72v8.76h2.22l2.46-3.06c-.16-.16-.24-.34-.24-.54-.08-1.08-.32-2.2-.72-3.36-.4-1.16-.88-2.22-1.44-3.18-.12-.28-.1-.48.06-.6.24-.16.46-.18.66-.06,2.72.84,4.58,1.96,5.58,3.36h5.7l1.5-2.28ZM1152.72,196.61c0-.2.1-.34.3-.42h.06c.28-.12.5-.08.66.12,2.56,2.48,4.41,4.93,5.55,7.35,1.14,2.42,1.71,4.69,1.71,6.81,0,1.76-.35,3.21-1.05,4.35-.7,1.14-1.51,1.71-2.43,1.71-.8,0-1.5-.46-2.1-1.38-.12-.24-.18-.42-.18-.54.08-2.8-.06-5.82-.42-9.06-.36-3.24-1.04-6.16-2.04-8.76-.04-.04-.06-.1-.06-.18ZM1162.44,196.37c-.96.04-1.98.26-3.06.66-.28.12-.48.04-.6-.24l-1.02-2.04-.06-.24c0-.24.16-.32.48-.24,1.8.2,3.64.32,5.52.36h2.88l1.62-2.4c.16-.24.4-.6.72-1.08.32-.48.58-.83.78-1.05.2-.22.38-.33.54-.33.36,0,1.36.73,3,2.19,1.64,1.46,2.62,2.51,2.94,3.15.08.16.12.26.12.3,0,.28-.17.51-.51.69-.34.18-.71.27-1.11.27h-3.78v27.24c0,1.64-.18,2.98-.54,4.02-.36,1.04-1.08,1.91-2.16,2.61-1.08.7-2.66,1.17-4.74,1.41h-.12c-.28,0-.42-.14-.42-.42-.08-1-.18-1.83-.3-2.49-.12-.66-.32-1.21-.6-1.65-.84-.96-2.16-1.64-3.96-2.04-.28-.04-.42-.2-.42-.48,0-.24.12-.36.36-.36.88,0,1.92.06,3.12.18l2.28.12c.4,0,.68-.09.84-.27.16-.18.24-.45.24-.81v-27.06h-2.04Z"/>
    <path class="cls-2" d="M1233.24,197.48c.84.82,1.64,1.7,2.4,2.64.76.94,1.14,1.55,1.14,1.83-.04.64-.54.96-1.5.96h-7.02v12.36c.08,5,.24,9.58.48,13.74,0,.24-.06.44-.18.6-.44.52-1.15.98-2.13,1.38-.98.4-2.15.6-3.51.6-.56,0-1.01-.12-1.35-.36-.34-.24-.51-.52-.51-.84.16-2.36.3-4.65.42-6.87.12-2.22.2-5.13.24-8.73v-11.88h-5.7c-.08,4.28-.52,8.1-1.32,11.46-.8,3.36-2.38,6.54-4.74,9.54-2.36,3-5.78,5.58-10.26,7.74-.28.16-.48.14-.6-.06-.16-.24-.12-.44.12-.6,2.8-2.44,4.96-5.12,6.48-8.04,1.52-2.92,2.55-5.97,3.09-9.15.54-3.18.83-6.81.87-10.89h-1.92c-.84.04-1.7.26-2.58.66l-.24.06c-.2,0-.34-.1-.42-.3l-1.26-2.52v8.1c.08,5,.24,9.58.48,13.74,0,.24-.08.44-.24.6-.48.4-1.28.79-2.4,1.17-1.12.38-2.1.57-2.94.57-.68,0-1.1-.3-1.26-.9,0-.24.02-.44.06-.6s.06-.34.06-.54.04-.48.12-.84v-1.44h-4.98v1.86l.18,3.12c.04.2.02.4-.06.6-.32.48-.92.92-1.8,1.32-.88.4-1.94.6-3.18.6-.44,0-.8-.12-1.08-.36-.28-.24-.42-.52-.42-.84.28-3.6.46-7.56.54-11.88v-6.6c-1.72,2.4-3.14,4.2-4.26,5.4-.16.24-.38.26-.66.06l-.06-.06c-.24-.16-.3-.38-.18-.66,3.76-7.28,6.32-17.5,7.68-30.66h-2.22c-1.04.04-2.18.26-3.42.66-.28.12-.48.04-.6-.24l-1.02-2.04s-.06-.12-.06-.24c0-.2.14-.3.42-.3,2.2.2,4.64.34,7.32.42h7.68l3.24-4.26c.16-.24.38-.26.66-.06l5.16,4.44h19.62l1.62-2.4c.16-.2.4-.54.72-1.02.32-.48.58-.83.78-1.05.2-.22.38-.33.54-.33.36,0,1.35.72,2.97,2.16,1.62,1.44,2.61,2.48,2.97,3.12l.06.24c0,.32-.15.57-.45.75-.3.18-.67.27-1.11.27h-5.46v18.48h.24l1.32-2.46c.16-.24.37-.59.63-1.05.26-.46.48-.81.66-1.05.18-.24.35-.36.51-.36.24,0,.78.41,1.62,1.23ZM1209.66,201.17v-18.48h-4.14c-.28,0-.42-.02-.42-.06l-.06-.06h-9.3c-.8,5.44-2.06,10.46-3.78,15.06l.96.42h3.6l1.32-1.56c.16-.16.37-.39.63-.69.26-.3.47-.52.63-.66.16-.14.32-.21.48-.21.36,0,1.26.57,2.7,1.71,1.44,1.14,2.34,2.01,2.7,2.61.12.16.08.34-.12.54-.4.4-.94.66-1.62.78v.12c1.24.24,2.7.4,4.38.48h2.04ZM1192.14,218.99h4.98v-19.2h-4.98v19.2ZM1216.02,201.17h5.7v-18.48h-5.7v18.48Z"/>
    <path class="cls-2" d="M1276.26,206.33c.2-.2.45-.48.75-.84.3-.36.54-.63.72-.81.18-.18.35-.27.51-.27.36,0,1.34.66,2.94,1.98,1.6,1.32,2.58,2.3,2.94,2.94.12.16.08.34-.12.54-.4.32-.96.54-1.68.66v11.88c0,.4.08.66.24.78.16.12.54.18,1.14.18h5.94c.28-.04.51-.11.69-.21.18-.1.35-.27.51-.51.48-.84,1.26-2.94,2.34-6.3.04-.28.18-.42.42-.42.2,0,.3.16.3.48l.18,6.48c.84.36,1.4.77,1.68,1.23.28.46.42,1.05.42,1.77,0,1.48-.78,2.59-2.34,3.33s-4.14,1.11-7.74,1.11h-4.44c-1.8,0-3.15-.18-4.05-.54-.9-.36-1.5-.96-1.8-1.8-.3-.84-.45-2.1-.45-3.78v-14.22h-7.8c-1.12,5.36-3.59,9.82-7.41,13.38s-9.71,6.24-17.67,8.04c-.28.04-.48-.02-.6-.18l-.06-.12c0-.2.12-.34.36-.42,5.68-2.36,9.92-5.28,12.72-8.76,2.8-3.48,4.58-7.46,5.34-11.94h-5.28c-2.56.04-5.42.3-8.58.78h-.18c-.16,0-.3-.1-.42-.3l-1.08-2.1s-.06-.12-.06-.24c0-.2.14-.3.42-.3,2.2.2,4.64.34,7.32.42h8.1c.08-1.2.12-2.16.12-2.88,0-2.16-.16-4.16-.48-6v-.18c0-.24.14-.34.42-.3l9.6.78c.16,0,.28.05.36.15s.1.23.06.39c-.32.72-1,1.14-2.04,1.26-.04,2-.24,4.26-.6,6.78h6.84l1.5-1.92ZM1286.46,181.37c.16-.16.41-.43.75-.81.34-.38.62-.66.84-.84.22-.18.41-.27.57-.27.32,0,1.3.81,2.94,2.43,1.64,1.62,2.68,2.79,3.12,3.51.12.24.06.44-.18.6-.2.16-.47.27-.81.33-.34.06-.75.09-1.23.09-1.08.84-2.44,1.73-4.08,2.67-1.64.94-3.2,1.73-4.68,2.37-.28.08-.48.06-.6-.06-.16-.16-.18-.36-.06-.6.52-1.32,1.16-3.26,1.92-5.82h-7.02v8.58c0,.4.09.66.27.78s.59.18,1.23.18h4.14c1.6,0,2.64-.02,3.12-.06.16-.04.36-.06.6-.06.52-.08.9-.24,1.14-.48.52-.52,1.16-1.74,1.92-3.66.12-.24.28-.36.48-.36s.3.16.3.48l.18,3.6c.84.36,1.42.75,1.74,1.17s.48.95.48,1.59c0,1-.31,1.78-.93,2.34-.62.56-1.71.96-3.27,1.2-1.56.24-3.76.36-6.6.36h-5.04c-1.84,0-3.22-.16-4.14-.48-.92-.32-1.54-.87-1.86-1.65-.32-.78-.48-1.95-.48-3.51v-10.02h-5.28c-1,5.16-3.24,9.27-6.72,12.33-3.48,3.06-8.46,5.27-14.94,6.63-.36.08-.56,0-.6-.24v-.18c0-.16.1-.28.3-.36,4.6-2,8.02-4.47,10.26-7.41,2.24-2.94,3.62-6.53,4.14-10.77h-6.3c.04,2.08-.28,3.86-.96,5.34-.68,1.48-1.6,2.56-2.76,3.24-.64.4-1.36.6-2.16.6-1,0-1.88-.32-2.64-.96-.76-.64-1.14-1.54-1.14-2.7,0-.8.25-1.53.75-2.19s1.17-1.21,2.01-1.65c1.2-.56,2.28-1.49,3.24-2.79.96-1.3,1.5-2.73,1.62-4.29,0-.32.12-.48.36-.48.28,0,.44.12.48.36.36,1.08.7,2.34,1.02,3.78h13.14c0-3-.14-5.5-.42-7.5,0-.4.18-.56.54-.48,3.12.68,5.28,1.21,6.48,1.59,1.2.38,1.8.71,1.8.99,0,.16-.14.32-.42.48l-.96.6v4.32h12.72l1.68-1.86Z"/>
    <path class="cls-2" d="M1352.91,190.67c1.34,1.08,2.17,1.9,2.49,2.46.12.16.08.34-.12.54-.4.32-1,.54-1.8.66-.2,1.56-.47,2.74-.81,3.54-.34.8-.91,1.42-1.71,1.86-.96.52-2.46.82-4.5.9l1.74,1.44c.28.2.3.42.06.66-.4.36-.96.62-1.68.78v5.82c.12,4.84.26,8.48.42,10.92,0,.24-.08.44-.24.6-.48.4-1.34.8-2.58,1.2-1.24.4-2.34.6-3.3.6h-.66c-.32,0-.48-.16-.48-.48v-1.98h-17.64l3.54,2.88c2.08,1.24,3.12,2.06,3.12,2.46,0,.2-.36.34-1.08.42l-1.62.12c-2.56,1.4-5.89,2.62-9.99,3.66s-8.25,1.72-12.45,2.04h-.12c-.2,0-.34-.12-.42-.36v-.12c0-.2.12-.34.36-.42,3.2-1.04,6.3-2.36,9.3-3.96,3.84-2.08,6.72-4.32,8.64-6.72h-3.36v1.44c0,.24-.29.54-.87.9-.58.36-1.32.67-2.22.93-.9.26-1.77.39-2.61.39-.44,0-.81-.12-1.11-.36-.3-.24-.45-.52-.45-.84.16-2.08.29-4.12.39-6.12s.17-4.52.21-7.56v-7.44c-2.36.88-5.26,1.66-8.7,2.34h-.12c-.2,0-.34-.1-.42-.3v-.12c0-.12.12-.24.36-.36,7-2.36,11.76-5.56,14.28-9.6h-5.1l-.48,2.04c-.04.24-.16.42-.36.54-.76.32-1.58.48-2.46.48-.72,0-1.62-.12-2.7-.36-.32-.08-.44-.28-.36-.6l.06-.24c.44-1.8.81-3.78,1.11-5.94.3-2.16.47-4.06.51-5.7,0-.44.18-.56.54-.36l6.54,2.76h5.22c.08-1.36.12-2.38.12-3.06v-1.08h-4.68c-2.48.04-5.22.3-8.22.78h-.12c-.2,0-.36-.1-.48-.3l-1.08-2.04-.06-.24c0-.2.14-.3.42-.3,2.16.2,4.58.34,7.26.42h6.96c0-1.88-.08-3.44-.24-4.68,0-.4.18-.56.54-.48,2.84.72,4.78,1.26,5.82,1.62s1.56.68,1.56.96c0,.12-.16.3-.48.54l-.96.6v1.44h5.82c0-1.88-.08-3.44-.24-4.68,0-.4.18-.56.54-.48,2.88.68,4.86,1.22,5.94,1.62,1.08.4,1.62.74,1.62,1.02,0,.16-.16.34-.48.54l-1.02.66v1.32h5.64l1.32-1.56c.2-.2.48-.52.84-.96.36-.44.66-.66.9-.66.36,0,1.31.58,2.85,1.74,1.54,1.16,2.49,2.04,2.85,2.64.12.16.08.34-.12.54-.44.44-1.06.74-1.86.9v1.74l.18,2.82c.08.28.04.46-.12.54-.4.4-1.14.79-2.22,1.17s-2.06.57-2.94.57h-.66c-.32,0-.48-.16-.48-.48v-1.5h-6.18v4.02h9.6l1.26-1.38c.16-.16.42-.43.78-.81.36-.38.66-.57.9-.57.36,0,1.21.54,2.55,1.62ZM1317.72,191.81c.56-1.24,1-2.58,1.32-4.02h-6.3c-.36,1.68-.62,3.02-.78,4.02h5.76ZM1347.78,193.49h-9.96v1.44l.18,2.22.06.24c0,.44-.6.88-1.8,1.32-1.2.44-2.44.66-3.72.66-.88,0-1.32-.4-1.32-1.2.08-.72.12-1.22.12-1.5l.12-1.2v-1.98h-8.7c-1.64,2.4-4.02,4.44-7.14,6.12l2.82,1.2h20.82l2.76-3.12c.16-.24.38-.26.66-.06l2.88,2.28c-.04-.84-.28-1.6-.72-2.28-.52-.56-1.42-1-2.7-1.32-.28-.04-.42-.22-.42-.54,0-.24.12-.36.36-.36.56,0,1.36.04,2.4.12l1.38.06c.6,0,1.04-.1,1.32-.3.28-.2.48-.8.6-1.8ZM1318.02,206.57h21.72v-4.08h-21.72v4.08ZM1318.02,212.51h21.72v-4.26h-21.72v4.26ZM1318.02,218.51h21.72v-4.32h-21.72v4.32ZM1325.1,187.79c-.24,1.28-.7,2.62-1.38,4.02h7.74v-4.02h-6.36ZM1325.64,183.11c0,1.08-.08,2.08-.24,3h6.06v-4.14h-5.82v1.14ZM1331.22,222.95c0-.32.18-.48.54-.48,5.2.08,9.4.45,12.6,1.11,3.2.66,5.48,1.44,6.84,2.34,1.36.9,2.04,1.85,2.04,2.85,0,.8-.41,1.49-1.23,2.07-.82.58-1.77.87-2.85.87s-2.14-.34-3.06-1.02c-1.56-1.32-3.58-2.64-6.06-3.96-2.48-1.32-5.3-2.44-8.46-3.36-.24-.08-.36-.22-.36-.42ZM1344,181.97h-6.18v4.14h6.18v-4.14Z"/>
    <path class="cls-2" d="M1422.84,202.91c.16-.28.4-.66.72-1.14.32-.48.58-.84.78-1.08.2-.24.38-.36.54-.36.32,0,1.32.76,3,2.28s2.7,2.6,3.06,3.24c.12.2.12.4,0,.6-.24.44-.74.66-1.5.66h-16.02c2,1.64,4.62,2.93,7.86,3.87,3.24.94,6.52,1.53,9.84,1.77.32.08.48.24.48.48v.12c0,.2-.1.4-.3.6-2.2,1.92-3.48,4.2-3.84,6.84-.08.36-.28.46-.6.3-3.08-1.32-5.99-3.23-8.73-5.73-2.74-2.5-4.97-5.25-6.69-8.25h-13.02c-2,3.24-4.79,6.06-8.37,8.46-3.58,2.4-7.75,4.38-12.51,5.94h-.18c-.2,0-.36-.08-.48-.24l-.06-.06s-.06-.12-.06-.24c0-.16.1-.3.3-.42,2.76-1.6,5.23-3.57,7.41-5.91,2.18-2.34,3.97-4.85,5.37-7.53h-4.26c-2.56.08-4.98.34-7.26.78h-.18c-.16,0-.3-.1-.42-.3l-1.08-2.04s-.06-.12-.06-.24c0-.2.16-.3.48-.3,2.16.2,4.58.34,7.26.42h5.82v-20.58h-3.54c-2.04.04-4.06.28-6.06.72-.32.08-.52,0-.6-.24l-1.08-2.04s-.06-.12-.06-.24c0-.2.16-.3.48-.3,2.08.2,4.44.34,7.08.42h3.78c0-2.92-.14-5.38-.42-7.38,0-.4.18-.56.54-.48,3.12.68,5.26,1.22,6.42,1.62,1.16.4,1.74.74,1.74,1.02,0,.16-.14.34-.42.54l-1.02.72v3.96h13.8c0-2.92-.14-5.38-.42-7.38,0-.4.18-.56.54-.48,3.16.68,5.34,1.22,6.54,1.62,1.2.4,1.8.74,1.8,1.02,0,.16-.16.34-.48.54l-1.08.72v3.96h2.52l1.5-2.4c.2-.28.45-.64.75-1.08.3-.44.54-.77.72-.99s.35-.33.51-.33c.36,0,1.34.71,2.94,2.13s2.56,2.45,2.88,3.09c.12.2.12.4,0,.6-.24.44-.74.66-1.5.66h-10.32v20.58h3.54l1.62-2.52ZM1411.26,215.87c.2-.24.45-.58.75-1.02.3-.44.54-.76.72-.96.18-.2.35-.3.51-.3.36,0,1.34.68,2.94,2.04,1.6,1.36,2.56,2.34,2.88,2.94.12.2.12.4,0,.6-.24.44-.74.66-1.5.66h-10.32v8.58h9.6l1.86-2.64c.24-.28.54-.67.9-1.17.36-.5.65-.87.87-1.11.22-.24.41-.36.57-.36.36,0,1.53.8,3.51,2.4,1.98,1.6,3.17,2.74,3.57,3.42l.12.24c0,.28-.16.51-.48.69s-.72.27-1.2.27h-36.48c-2.56.04-5.42.3-8.58.78h-.18c-.16,0-.3-.1-.42-.3l-1.08-2.1s-.06-.12-.06-.24c0-.2.14-.3.42-.3,2.2.2,4.64.34,7.32.42h12.72v-8.58h-3.78c-2.2.08-4.3.34-6.3.78h-.18c-.16,0-.3-.1-.42-.3l-1.02-2.04s-.06-.12-.06-.24c0-.2.14-.3.42-.3,2.2.2,4.64.34,7.32.42h4.02c0-2.84-.16-5.44-.48-7.8,0-.4.18-.56.54-.48,3.16.64,5.34,1.16,6.54,1.56,1.2.4,1.8.74,1.8,1.02,0,.12-.14.28-.42.48l-.96.66v4.56h2.46l1.56-2.28ZM1410.78,190.49v-5.64h-13.8v5.64h13.8ZM1410.78,192.23h-13.8v5.7h13.8v-5.7ZM1396.98,199.61v5.82h13.8v-5.82h-13.8Z"/>
    <path class="cls-2" d="M1488.69,225.32c1.3,1.5,2.11,2.59,2.43,3.27.04.2.02.4-.06.6-.24.44-.72.66-1.44.66h-42.84c-2.56.04-5.42.3-8.58.78h-.18c-.16,0-.3-.1-.42-.3l-1.02-2.04-.06-.24c0-.28.16-.38.48-.3,1.08.16,2.68.28,4.8.36h2.58v-6c0-4.36-.22-8.24-.66-11.64v-.12c0-.32.16-.42.48-.3l7.14,2.82h24.36l1.26-1.86c.16-.2.37-.48.63-.84.26-.36.47-.63.63-.81.16-.18.32-.27.48-.27.36,0,1.44.63,3.24,1.89,1.8,1.26,2.92,2.19,3.36,2.79.12.16.1.34-.06.54-.4.48-1.18.8-2.34.96v12.84h.24l1.32-2.52c.12-.2.32-.55.6-1.05.28-.5.51-.87.69-1.11s.35-.36.51-.36c.32,0,1.13.75,2.43,2.25ZM1438.68,199.37c-.16,0-.28-.12-.36-.36l-1.38-5.46v-.18c0-.24.14-.36.42-.36,2.16-.12,3.7-.22,4.62-.3v-6.42c0-2.04-.1-4.06-.3-6.06v-.12c0-.16.04-.27.12-.33.08-.06.2-.05.36.03l5.88,2.46h.42c.16-1.32.24-2.98.24-4.98v-1.8c0-.24.18-.36.54-.36,2.76.44,4.67.82,5.73,1.14,1.06.32,1.59.6,1.59.84,0,.12-.08.22-.24.3-.28.2-.44.3-.48.3l-.78.42c-1.28,1.36-2.82,2.74-4.62,4.14h5.28l1.08-1.68c.12-.16.29-.41.51-.75.22-.34.41-.59.57-.75s.32-.24.48-.24c.36,0,1.26.6,2.7,1.8,1.44,1.2,2.34,2.12,2.7,2.76.12.16.08.34-.12.54-.44.36-1.02.62-1.74.78v6.48l2.04-.18h.18c.2,0,.3.14.3.42v.24c0,.2-.12.34-.36.42l-2.16.54v11.46c0,1.44-.15,2.6-.45,3.48-.3.88-.9,1.59-1.8,2.13-.9.54-2.25.91-4.05,1.11h-.12c-.2,0-.34-.14-.42-.42-.08-1.64-.34-2.78-.78-3.42-.36-.48-.8-.88-1.32-1.2-.4.24-.88.44-1.44.6-.56.16-1.06.24-1.5.24h-.36c-.32,0-.48-.16-.48-.48v-4.5c0-1.84-.08-3.4-.24-4.68,0-.4.2-.54.6-.42,2.24.72,3.62,1.27,4.14,1.65s.6.69.24.93l-.54.36v5.04l1.92.06c.36,0,.61-.08.75-.24.14-.16.21-.4.21-.72v-9.48c-2.68.72-5.74,1.5-9.18,2.34-.24,3.44-1.03,6.57-2.37,9.39-1.34,2.82-3.61,5.25-6.81,7.29-.2.12-.4.08-.6-.12-.2-.2-.2-.42,0-.66,1.52-2,2.62-4.2,3.3-6.6.68-2.4,1.1-5.08,1.26-8.04l-1.8.42c-.2.52-.58.9-1.14,1.14l-.24.06ZM1447.2,184.01v8.4l9.06-.72v-7.68h-9.06ZM1448.46,185.03c.2-.12.4-.16.6-.12,1.76.36,3.07.9,3.93,1.62.86.72,1.29,1.48,1.29,2.28,0,.64-.23,1.19-.69,1.65-.46.46-1.01.69-1.65.69-.56,0-1.1-.2-1.62-.6-.2-.16-.3-.36-.3-.6-.04-.76-.21-1.53-.51-2.31-.3-.78-.65-1.45-1.05-2.01-.16-.28-.16-.48,0-.6ZM1450.74,228.11h4.38v-13.5h-4.38v13.5ZM1491.06,205.37c.32.08.48.2.48.36-.04.28-.18.44-.42.48-2,.8-3.32,2.6-3.96,5.4-.12.28-.32.4-.6.36-4.76-1.4-8.54-3.22-11.34-5.46-4.04,2.12-8.8,3.6-14.28,4.44h-.12c-.2,0-.34-.12-.42-.36-.04-.04-.06-.12-.06-.24,0-.2.12-.32.36-.36,4.72-1.48,8.66-3.48,11.82-6-1.8-1.96-3.26-4.4-4.38-7.32h-.96c-.2.04-.44.16-.72.36-.24.32-.46.3-.66-.06l-1.2-2.28-.66.3c-.28.12-.48.06-.6-.18-.12-.2-.1-.42.06-.66,1.36-1.56,2.24-3.23,2.64-5.01.4-1.78.6-3.81.6-6.09v-3c0-.64-.04-1.52-.12-2.64,0-.2.05-.34.15-.42.1-.08.23-.08.39,0l6,2.58h2.76l1.2-1.74c.12-.16.31-.41.57-.75.26-.34.47-.59.63-.75s.32-.24.48-.24c.32,0,1.11.58,2.37,1.74s2.05,2.06,2.37,2.7c.12.2.08.4-.12.6-.44.28-.94.48-1.5.6v4.74c0,.32.04.51.12.57.08.06.28.09.6.09h2.58c.36,0,.64-.16.84-.48.44-.88.98-2.42,1.62-4.62.04-.28.2-.42.48-.42.2,0,.3.16.3.48l.18,4.68c.6.28,1,.59,1.2.93.2.34.3.77.3,1.29,0,1.08-.54,1.88-1.62,2.4-1.08.52-2.8.78-5.16.78h-.54c2.88,2.4,4.32,3.92,4.32,4.56,0,.2-.2.36-.6.48l-1.08.24c-1.36,2.2-3.12,4.18-5.28,5.94,2.96.92,6.62,1.58,10.98,1.98ZM1461.06,228.11h4.62v-13.5h-4.62v13.5ZM1478.94,194.93l2.88-2.76h-1.14c-1.32,0-2.28-.14-2.88-.42-.6-.28-1-.73-1.2-1.35-.2-.62-.3-1.55-.3-2.79v-6.36h-4.14v1.74c0,5.24-2.4,9.08-7.2,11.52,2.24.2,4.74.34,7.5.42h6.48ZM1478.76,196.67h-9.24c1.4,1.84,3.32,3.44,5.76,4.8,1.4-1.52,2.56-3.12,3.48-4.8ZM1471.68,228.11h4.5v-13.5h-4.5v13.5Z"/>
    <path class="cls-2" d="M1511.73,226.19c-.06-.12-.09-.3-.09-.54,0-.48.14-.72.42-.72h.72c1.52,0,2.74-.34,3.66-1.02.92-.68,1.38-1.96,1.38-3.84v-31.68c0-1.88-.46-3.15-1.38-3.81s-2.14-.99-3.66-.99h-.72c-.16,0-.27-.06-.33-.18-.06-.12-.09-.3-.09-.54,0-.48.14-.72.42-.72l13.38-.06c4.52,0,7.64.02,9.36.06,2.64.04,5.08.48,7.32,1.32s4.03,2.05,5.37,3.63c1.34,1.58,2.01,3.41,2.01,5.49,0,2.68-1.11,4.85-3.33,6.51-2.22,1.66-4.99,2.89-8.31,3.69,3.92.84,7.25,2.19,9.99,4.05s4.11,4.31,4.11,7.35c0,2.48-.77,4.64-2.31,6.48-1.54,1.84-3.59,3.25-6.15,4.23-2.56.98-5.34,1.47-8.34,1.47l-9.96.06-13.14-.06c-.16,0-.27-.06-.33-.18ZM1527.12,201.89c5.28,0,8.86-.86,10.74-2.58,1.88-1.72,2.82-4.04,2.82-6.96,0-2.48-.83-4.51-2.49-6.09-1.66-1.58-4.17-2.37-7.53-2.37-1.76,0-3.02.29-3.78.87-.76.58-1.14,1.55-1.14,2.91v14.22h1.38ZM1531.98,224.57c3.4,0,6.11-.88,8.13-2.64,2.02-1.76,3.03-4.36,3.03-7.8,0-3.2-1.15-5.74-3.45-7.62-2.3-1.88-6.49-2.82-12.57-2.82h-1.38v17.1c0,1.44.38,2.43,1.14,2.97.76.54,2.04.81,3.84.81h1.26Z"/>
    <path class="cls-2" d="M1128.87,288.99c-.89-.58-1.99-1.54-3.31-2.9-1.32-1.36-2.57-3.28-3.74-5.78-1.18-2.5-1.76-5.41-1.76-8.75s.59-6.25,1.76-8.75c1.18-2.5,2.42-4.42,3.74-5.78,1.32-1.36,2.42-2.32,3.31-2.9.19-.12.32-.18.4-.18s.14.03.2.09c.06.06.09.13.09.2s-.08.22-.25.43c-.96,1.01-1.87,2.15-2.74,3.42-.86,1.27-1.66,3.05-2.38,5.35-.72,2.29-1.08,5-1.08,8.12s.35,5.74,1.04,7.99c.7,2.26,1.47,4.03,2.32,5.33.85,1.3,1.76,2.45,2.72,3.46l.22.25s.05.1.09.16c.04.06.05.11.05.16,0,.07-.03.13-.09.18s-.13.07-.2.07-.2-.06-.4-.18Z"/>
    <path class="cls-2" d="M1133.24,290.86c-.73-.34-1.3-.76-1.71-1.26s-.61-1.01-.61-1.51c0-.58.17-1.03.52-1.35.35-.32.74-.49,1.17-.49.67,0,1.32.28,1.94.83.34.26.8.77,1.4,1.51.31.36.58.64.81.83.23.19.46.29.7.29.19,0,.41-.07.65-.22l.25-.25c.48-.48.83-1.36,1.04-2.65.22-1.28.32-3.13.32-5.53v-18.54c0-1.15-.28-1.93-.85-2.32-.56-.4-1.3-.59-2.21-.59h-.47c-.17,0-.25-.14-.25-.43,0-.31.08-.47.25-.47h11.66c.19,0,.29.16.29.47,0,.29-.1.43-.29.43h-.43c-.89,0-1.61.2-2.18.61-.56.41-.85,1.18-.85,2.3l.04,18.76c0,2.5-.48,4.49-1.44,5.99-.96,1.5-2.11,2.56-3.44,3.17-1.33.61-2.61.92-3.83.92-.94,0-1.77-.17-2.5-.5Z"/>
    <path class="cls-2" d="M1156.26,284.35c-.31-.14-.61-.22-.9-.22-.31,0-.63.1-.95.29s-.69.48-1.1.86c-.1.1-.18.13-.25.11-.07-.02-.12-.1-.14-.22l-1.55-6.66-.07-.32s.03-.1.09-.14.12-.08.18-.11c.06-.02.1-.05.12-.07.05-.02.12-.04.22-.04s.23.1.4.29c2.69,4.08,5.94,6.12,9.76,6.12,1.54,0,2.83-.4,3.87-1.19,1.04-.79,1.57-1.97,1.57-3.53,0-1.82-1-3.18-2.99-4.07-.98-.43-2.3-.91-3.96-1.44-.22-.07-.76-.25-1.62-.54-.86-.29-1.63-.6-2.3-.94-2.83-1.44-4.25-3.6-4.25-6.48,0-1.08.25-2.21.76-3.38s1.39-2.19,2.65-3.04c1.26-.85,2.93-1.28,5.02-1.28.74,0,1.47.08,2.18.25.71.17,1.57.42,2.57.76.38.14.72.22,1.01.22.58,0,1.15-.3,1.73-.9.19-.19.32-.17.4.07l1.73,5.83.04.07c.05.17.04.29-.04.36-.05.05-.13.1-.25.14-.14.05-.25.07-.32.07-.12,0-.24-.07-.36-.22-.29-.48-.8-1.13-1.55-1.96s-1.75-1.61-3.01-2.34c-1.26-.73-2.67-1.1-4.23-1.1-1.39,0-2.46.29-3.2.88-.74.59-1.24,1.22-1.48,1.89s-.36,1.25-.36,1.73c0,1.54.79,2.72,2.38,3.56.5.26,1.17.55,2,.85.83.3,1.67.59,2.54.88,2.02.65,3.53,1.2,4.54,1.66,1.7.82,2.92,1.81,3.64,2.97.72,1.16,1.08,2.42,1.08,3.76,0,1.49-.37,2.83-1.1,4.03-.73,1.2-1.81,2.15-3.22,2.84-1.42.7-3.11,1.04-5.08,1.04-1.8,0-3.85-.46-6.16-1.37Z"/>
    <path class="cls-2" d="M1193.11,259.71c1.43.56,2.57,1.36,3.44,2.38.86,1.02,1.3,2.24,1.3,3.65,0,1.71-.54,3.09-1.6,4.16s-2.36,1.84-3.89,2.3c-1.52.47-3.08.74-4.66.81-.65.02-1.57.04-2.77.04h-1.4v8.42c0,1.13.28,1.9.83,2.3.55.41,1.28.61,2.2.61h.43c.17,0,.25.13.25.4,0,.31-.08.47-.25.47h-11.66c-.17,0-.25-.16-.25-.47,0-.26.08-.4.25-.4h.47c.89,0,1.61-.2,2.18-.61.56-.41.85-1.18.85-2.3v-18.97c0-1.13-.28-1.89-.83-2.29-.55-.4-1.28-.59-2.2-.59h-.47c-.17,0-.25-.16-.25-.47,0-.29.08-.43.25-.43h13.18c1.66.1,3.2.43,4.63.99ZM1191.24,270.18c.97-1.12,1.46-2.65,1.46-4.59,0-1.37-.34-2.5-1.03-3.38-.68-.89-1.51-1.52-2.47-1.91s-1.87-.58-2.74-.58c-1.97,0-2.95.77-2.95,2.3v9.97h2.7c2.38-.1,4.05-.7,5.02-1.82Z"/>
    <path class="cls-2" d="M1205.73,284.35c-.31-.14-.61-.22-.9-.22-.31,0-.63.1-.95.29s-.69.48-1.1.86c-.1.1-.18.13-.25.11-.07-.02-.12-.1-.14-.22l-1.55-6.66-.07-.32s.03-.1.09-.14.12-.08.18-.11c.06-.02.1-.05.12-.07.05-.02.12-.04.22-.04s.23.1.4.29c2.69,4.08,5.94,6.12,9.76,6.12,1.54,0,2.83-.4,3.87-1.19,1.04-.79,1.57-1.97,1.57-3.53,0-1.82-1-3.18-2.99-4.07-.98-.43-2.3-.91-3.96-1.44-.22-.07-.76-.25-1.62-.54-.86-.29-1.63-.6-2.3-.94-2.83-1.44-4.25-3.6-4.25-6.48,0-1.08.25-2.21.76-3.38s1.39-2.19,2.65-3.04c1.26-.85,2.93-1.28,5.02-1.28.74,0,1.47.08,2.18.25.71.17,1.57.42,2.57.76.38.14.72.22,1.01.22.58,0,1.15-.3,1.73-.9.19-.19.32-.17.4.07l1.73,5.83.04.07c.05.17.04.29-.04.36-.05.05-.13.1-.25.14-.14.05-.25.07-.32.07-.12,0-.24-.07-.36-.22-.29-.48-.8-1.13-1.55-1.96s-1.75-1.61-3.01-2.34c-1.26-.73-2.67-1.1-4.23-1.1-1.39,0-2.46.29-3.2.88-.74.59-1.24,1.22-1.48,1.89s-.36,1.25-.36,1.73c0,1.54.79,2.72,2.38,3.56.5.26,1.17.55,2,.85.83.3,1.67.59,2.54.88,2.02.65,3.53,1.2,4.54,1.66,1.7.82,2.92,1.81,3.64,2.97.72,1.16,1.08,2.42,1.08,3.76,0,1.49-.37,2.83-1.1,4.03-.73,1.2-1.81,2.15-3.22,2.84-1.42.7-3.11,1.04-5.08,1.04-1.8,0-3.85-.46-6.16-1.37Z"/>
    <path class="cls-2" d="M1244.71,264.55c.12-.17.26-.38.41-.65.16-.26.29-.46.4-.58s.21-.18.31-.18c.19,0,.73.41,1.6,1.24.88.83,1.41,1.43,1.6,1.82l.04.14c0,.19-.1.34-.29.45s-.41.16-.65.16h-4.79v2.02c1.75.6,3.04,1.34,3.87,2.21.83.88,1.24,1.75,1.24,2.61,0,.55-.16,1.01-.49,1.39-.32.37-.73.56-1.21.56-.43,0-.88-.16-1.33-.47-.07-.07-.13-.19-.18-.36-.22-1.42-.85-3.04-1.91-4.86v8.6c.05,3,.14,5.75.29,8.24,0,.14-.04.26-.11.36-.31.31-.77.59-1.37.85s-1.28.38-2.05.38c-.34,0-.6-.07-.79-.22-.19-.14-.29-.31-.29-.5.09-1.22.17-2.44.23-3.64.06-1.2.1-2.71.13-4.54v-4.46c-1.54,2.3-3.4,4.36-5.58,6.16-.14.12-.28.12-.4,0l-.04-.04c-.12-.12-.14-.25-.07-.4,1.27-1.8,2.39-3.92,3.35-6.35.96-2.44,1.71-4.95,2.27-7.54h-1.62c-.82.02-1.64.17-2.48.43h-.11c-.1,0-.18-.06-.25-.18l-.61-1.15s-.04-.11-.04-.18c0-.12.08-.17.25-.14,1.15.1,2.3.17,3.46.22h1.87v-5.65c-1.44.22-3.21.41-5.29.58-.19,0-.3-.08-.32-.25v-.07c0-.1.06-.18.18-.25,1.78-.65,3.62-1.49,5.53-2.52,1.91-1.03,3.44-1.99,4.59-2.88.14-.12.28-.12.4,0l4,3.67c.07.07.11.15.13.23.01.08-.03.14-.13.16-.19.1-.44.14-.76.14-.36,0-.78-.08-1.26-.25-.86.24-1.9.49-3.1.76v6.34h.54l.83-1.4ZM1262.53,274.02c.07-.17.19-.41.34-.74.16-.32.28-.56.38-.72.1-.16.19-.23.29-.23.14,0,.49.2,1.03.59.54.4,1.04.82,1.51,1.28.47.46.7.77.7.94s-.07.32-.22.45c-.14.13-.32.22-.54.27l-4.5.9v3.42c.07,2.86.16,4.99.25,6.41,0,.14-.04.25-.11.32-.24.34-.69.65-1.35.95s-1.31.45-1.96.45c-.36,0-.62-.07-.79-.22s-.25-.31-.25-.5c.14-2.11.24-4.26.29-6.44v-3.6l-10.76,2.16h-.11c-.1,0-.18-.06-.25-.18l-.25-.47s-.04-.07-.04-.14c0-.12.07-.19.22-.22l11.2-2.2v-13.75c0-2.74-.14-5.08-.43-7.02,0-.24.11-.34.32-.29,1.9.43,3.19.77,3.89,1.01.7.24,1.04.46,1.04.65,0,.1-.1.2-.29.32l-.61.43v17.89l.29-.07.72-1.66ZM1248.75,267.46c.07-.07.18-.1.32-.07,2.16.26,3.76.82,4.81,1.66s1.57,1.74,1.57,2.7c0,.6-.19,1.1-.56,1.51-.37.41-.83.61-1.39.61-.48,0-.92-.14-1.33-.43-.1-.05-.17-.16-.22-.32-.22-.89-.62-1.82-1.21-2.79-.59-.97-1.23-1.81-1.93-2.5-.14-.14-.17-.26-.07-.36ZM1249.43,258.57c.07-.07.18-.1.32-.07,2.14.34,3.71.94,4.73,1.82,1.02.88,1.53,1.79,1.53,2.75,0,.6-.19,1.11-.56,1.53-.37.42-.82.63-1.35.63s-.97-.17-1.4-.5c-.1-.05-.17-.16-.22-.32-.19-.91-.57-1.87-1.13-2.88-.56-1.01-1.18-1.87-1.85-2.59-.14-.14-.17-.26-.07-.36Z"/>
    <path class="cls-2" d="M1300.59,267.91c.5.49.98,1.02,1.44,1.58s.68.93.68,1.1c-.02.38-.32.58-.9.58h-4.21v7.42c.05,3,.14,5.75.29,8.24,0,.14-.04.26-.11.36-.26.31-.69.59-1.28.83s-1.29.36-2.11.36c-.34,0-.61-.07-.81-.22-.2-.14-.31-.31-.31-.5.1-1.42.18-2.79.25-4.12.07-1.33.12-3.08.14-5.24v-7.13h-3.42c-.05,2.57-.31,4.86-.79,6.88-.48,2.02-1.43,3.92-2.84,5.72-1.42,1.8-3.47,3.35-6.16,4.64-.17.1-.29.08-.36-.04-.1-.14-.07-.26.07-.36,1.68-1.46,2.98-3.07,3.89-4.82s1.53-3.58,1.85-5.49.5-4.09.52-6.53h-1.15c-.5.02-1.02.16-1.55.4l-.14.04c-.12,0-.2-.06-.25-.18l-.76-1.51v4.86c.05,3,.14,5.75.29,8.24,0,.14-.05.26-.14.36-.29.24-.77.47-1.44.7s-1.26.34-1.76.34c-.41,0-.66-.18-.76-.54,0-.14.01-.26.04-.36.02-.1.04-.2.04-.32s.02-.29.07-.5v-.86h-2.99v1.12l.11,1.87c.02.12.01.24-.04.36-.19.29-.55.55-1.08.79-.53.24-1.16.36-1.91.36-.26,0-.48-.07-.65-.22-.17-.14-.25-.31-.25-.5.17-2.16.28-4.54.32-7.13v-3.96c-1.03,1.44-1.88,2.52-2.56,3.24-.1.14-.23.16-.4.04l-.04-.04c-.14-.1-.18-.23-.11-.4,2.26-4.37,3.79-10.5,4.61-18.4h-1.33c-.62.02-1.31.16-2.05.4-.17.07-.29.02-.36-.14l-.61-1.22s-.04-.07-.04-.14c0-.12.08-.18.25-.18,1.32.12,2.78.2,4.39.25h4.61l1.94-2.56c.1-.14.23-.16.4-.04l3.1,2.66h11.77l.97-1.44c.1-.12.24-.32.43-.61.19-.29.35-.5.47-.63.12-.13.23-.2.32-.2.22,0,.81.43,1.78,1.3.97.86,1.57,1.49,1.78,1.87l.04.14c0,.19-.09.34-.27.45-.18.11-.4.16-.67.16h-3.28v11.09h.14l.79-1.48c.1-.14.22-.35.38-.63.16-.28.29-.49.4-.63.11-.14.21-.22.31-.22.14,0,.47.25.97.74ZM1286.44,270.13v-11.09h-2.48c-.17,0-.25-.01-.25-.04l-.04-.04h-5.58c-.48,3.26-1.24,6.28-2.27,9.04l.58.25h2.16l.79-.94c.1-.09.22-.23.38-.41.16-.18.28-.31.38-.4s.19-.13.29-.13c.21,0,.76.34,1.62,1.03.86.68,1.4,1.21,1.62,1.57.07.1.05.2-.07.32-.24.24-.56.4-.97.47v.07c.74.14,1.62.24,2.63.29h1.22ZM1275.93,280.82h2.99v-11.52h-2.99v11.52ZM1290.25,270.13h3.42v-11.09h-3.42v11.09Z"/>
    <path class="cls-2" d="M1336.39,263.83c.8.65,1.3,1.14,1.49,1.48.07.1.05.2-.07.32-.24.19-.6.32-1.08.4-.12.94-.28,1.64-.49,2.12-.2.48-.55.85-1.03,1.12-.58.31-1.48.49-2.7.54l1.04.86c.17.12.18.25.04.4-.24.22-.58.37-1.01.47v3.49c.07,2.9.16,5.09.25,6.55,0,.14-.05.26-.14.36-.29.24-.8.48-1.55.72-.74.24-1.4.36-1.98.36h-.4c-.19,0-.29-.1-.29-.29v-1.19h-10.58l2.12,1.73c1.25.74,1.87,1.24,1.87,1.48,0,.12-.22.2-.65.25l-.97.07c-1.54.84-3.53,1.57-5.99,2.2s-4.95,1.03-7.47,1.22h-.07c-.12,0-.2-.07-.25-.22v-.07c0-.12.07-.2.22-.25,1.92-.62,3.78-1.42,5.58-2.38,2.3-1.25,4.03-2.59,5.18-4.03h-2.02v.86c0,.14-.17.32-.52.54-.35.22-.79.4-1.33.56-.54.16-1.06.23-1.57.23-.26,0-.49-.07-.67-.22-.18-.14-.27-.31-.27-.5.1-1.25.17-2.47.23-3.67.06-1.2.1-2.71.13-4.54v-4.46c-1.42.53-3.16,1-5.22,1.4h-.07c-.12,0-.2-.06-.25-.18v-.07c0-.07.07-.14.22-.22,4.2-1.42,7.05-3.34,8.57-5.76h-3.06l-.29,1.22c-.02.14-.1.25-.21.32-.46.19-.95.29-1.48.29-.43,0-.97-.07-1.62-.22-.19-.05-.26-.17-.22-.36l.04-.14c.26-1.08.49-2.27.67-3.56.18-1.3.28-2.44.31-3.42,0-.26.11-.33.32-.22l3.92,1.66h3.13c.05-.82.07-1.43.07-1.84v-.65h-2.81c-1.49.02-3.13.18-4.93.47h-.07c-.12,0-.22-.06-.29-.18l-.65-1.22-.04-.14c0-.12.08-.18.25-.18,1.3.12,2.75.2,4.36.25h4.18c0-1.13-.05-2.06-.14-2.81,0-.24.11-.34.32-.29,1.7.43,2.87.76,3.49.97s.94.41.94.58c0,.07-.1.18-.29.32l-.58.36v.86h3.49c0-1.13-.05-2.06-.14-2.81,0-.24.11-.34.32-.29,1.73.41,2.92.73,3.56.97.65.24.97.44.97.61,0,.1-.1.2-.29.32l-.61.4v.79h3.38l.79-.94c.12-.12.29-.31.5-.58.22-.26.4-.4.54-.4.21,0,.79.35,1.71,1.04.92.7,1.49,1.22,1.71,1.58.07.1.05.21-.07.32-.26.26-.64.44-1.12.54v1.04l.11,1.69c.05.17.02.28-.07.32-.24.24-.68.47-1.33.7-.65.23-1.24.34-1.76.34h-.4c-.19,0-.29-.1-.29-.29v-.9h-3.71v2.41h5.76l.76-.83c.1-.1.25-.26.47-.49.22-.23.4-.34.54-.34.22,0,.73.32,1.53.97ZM1315.27,264.51c.33-.74.6-1.55.79-2.41h-3.78c-.22,1.01-.37,1.81-.47,2.41h3.46ZM1333.31,265.52h-5.98v.86l.11,1.33.04.14c0,.26-.36.53-1.08.79-.72.26-1.46.4-2.23.4-.53,0-.79-.24-.79-.72.05-.43.07-.73.07-.9l.07-.72v-1.19h-5.22c-.98,1.44-2.41,2.66-4.29,3.67l1.69.72h12.49l1.66-1.87c.1-.14.23-.16.4-.04l1.73,1.37c-.02-.5-.17-.96-.43-1.37-.31-.34-.85-.6-1.62-.79-.17-.02-.25-.13-.25-.32,0-.14.07-.22.22-.22.34,0,.81.02,1.44.07l.83.04c.36,0,.62-.06.79-.18.17-.12.29-.48.36-1.08ZM1315.45,273.37h13.03v-2.45h-13.03v2.45ZM1315.45,276.93h13.03v-2.56h-13.03v2.56ZM1315.45,280.53h13.03v-2.59h-13.03v2.59ZM1319.7,262.1c-.14.77-.42,1.57-.83,2.41h4.64v-2.41h-3.82ZM1320.03,259.29c0,.65-.05,1.25-.14,1.8h3.63v-2.48h-3.49v.68ZM1323.37,283.2c0-.19.11-.29.32-.29,3.12.05,5.64.27,7.56.67,1.92.4,3.29.86,4.1,1.4.82.54,1.22,1.11,1.22,1.71,0,.48-.25.89-.74,1.24s-1.06.52-1.71.52-1.29-.2-1.84-.61c-.94-.79-2.15-1.58-3.64-2.38s-3.18-1.46-5.08-2.02c-.14-.05-.22-.13-.22-.25ZM1331.04,258.61h-3.71v2.48h3.71v-2.48Z"/>
    <path class="cls-2" d="M1368.64,280.66c-.37,1.43-.63,2.44-.77,3.04l-.32,1.3c-.02.17-.13.25-.32.25h-15.8c-.19,0-.31-.07-.36-.22l-.11-.25c-.05-.12-.05-.24,0-.36.67-1.8,1.64-3.48,2.9-5.04,1.26-1.56,2.93-3.42,5.02-5.58,1.3-1.37,2.29-2.49,2.97-3.37.68-.88,1.21-1.76,1.58-2.66.37-.9.56-1.9.56-3.01,0-1.56-.41-2.8-1.24-3.71s-2.01-1.37-3.55-1.37c-1.1,0-2.04.23-2.81.7-.77.47-1.15,1.1-1.15,1.89,0,.34.07.61.22.83.14.22.36.47.65.76.31.31.55.59.7.85.16.25.23.58.23.99,0,.74-.25,1.33-.74,1.76-.49.43-1.11.65-1.85.65-.38,0-.79-.13-1.21-.4-.42-.26-.77-.64-1.04-1.13-.28-.49-.41-1.07-.41-1.75,0-1.03.33-2.05,1.01-3.04.67-1,1.63-1.81,2.88-2.45,1.25-.64,2.69-.95,4.32-.95,1.82,0,3.4.31,4.73.94s2.34,1.48,3.02,2.56,1.03,2.3,1.03,3.67c0,1.27-.26,2.38-.79,3.31-.53.94-1.2,1.73-2,2.39-.8.66-1.91,1.46-3.33,2.39-1.01.67-1.78,1.2-2.3,1.58-2.28,1.61-4.26,3.68-5.94,6.23h5.4c1.94,0,3.44-.1,4.48-.31s1.88-.58,2.5-1.13c.62-.55,1.21-1.4,1.76-2.56.02-.12.11-.18.25-.18.05,0,.12.02.21.07.12.05.21.09.27.13.06.04.09.09.09.16,0,.05-.03.13-.07.25-.07.41-.29,1.33-.67,2.75Z"/>
    <path class="cls-2" d="M1389.33,273.53c1.42,1.21,2.12,2.72,2.12,4.52,0,1.58-.49,2.96-1.48,4.12-.98,1.16-2.26,2.05-3.83,2.65-1.57.6-3.22.9-4.95.9s-3.13-.27-4.41-.81c-1.28-.54-2.28-1.27-2.99-2.18-.71-.91-1.06-1.88-1.06-2.92,0-.86.27-1.53.81-2,.54-.47,1.13-.7,1.78-.7.74,0,1.37.19,1.89.56.52.37.77.93.77,1.67,0,.31-.05.58-.16.79-.11.22-.28.48-.52.79-.38.38-.58.76-.58,1.12,0,.77.38,1.36,1.13,1.76.76.41,1.77.61,3.04.61,1.75,0,3.09-.64,4.01-1.91.92-1.27,1.39-2.84,1.39-4.72s-.46-3.25-1.37-4.34-2.32-1.64-4.21-1.64c-.22,0-.48.02-.79.07-.31.05-.59.07-.83.07-.26,0-.49-.08-.67-.23-.18-.16-.27-.37-.27-.63,0-.22.09-.4.27-.54.18-.14.4-.22.67-.22.24,0,.55.02.94.07l.9.04c1.2,0,2.24-.35,3.11-1.04s1.31-2.14,1.31-4.32c0-1.97-.43-3.37-1.28-4.19-.85-.83-1.91-1.24-3.19-1.24-.79,0-1.49.18-2.11.54-.61.36-.92.88-.92,1.55,0,.38.14.79.43,1.22.31.46.47.9.47,1.33,0,.62-.19,1.13-.58,1.53-.38.4-.91.59-1.58.59-.79,0-1.42-.25-1.89-.74-.47-.49-.7-1.19-.7-2.11,0-.82.33-1.63.99-2.45.66-.82,1.56-1.48,2.7-2,1.14-.52,2.39-.77,3.76-.77,1.58,0,3.05.25,4.39.76,1.34.5,2.42,1.24,3.22,2.21.8.97,1.21,2.13,1.21,3.47,0,1.56-.55,2.92-1.66,4.09-1.1,1.16-2.75,1.91-4.93,2.25,2.33.38,4.2,1.18,5.62,2.39Z"/>
    <path class="cls-2" d="M1423.45,284.82c0,.29-.08.43-.25.43h-12.06c-.17,0-.25-.14-.25-.43,0-.31.08-.47.25-.47.77,0,1.35-.08,1.75-.25.4-.17.59-.44.59-.83,0-.41-.28-1-.83-1.76l-4.03-5.22-2.99-3.85-1.26,1.3-1.01,1.04v6.7c0,1.13.28,1.89.83,2.29.55.4,1.28.59,2.2.59h.43c.17,0,.25.14.25.43,0,.31-.08.47-.25.47h-11.66c-.17,0-.25-.16-.25-.47,0-.29.08-.43.25-.43h.47c.91,0,1.64-.2,2.18-.61.54-.41.81-1.16.81-2.27v-18.97c0-1.13-.28-1.89-.83-2.29-.55-.4-1.27-.59-2.16-.59h-.47c-.17,0-.25-.16-.25-.47,0-.29.08-.43.25-.43h11.66c.19,0,.29.14.29.43,0,.31-.1.47-.29.47h-.43c-.94,0-1.67.2-2.21.59-.54.4-.81,1.16-.81,2.29v10.37c1.92-2.02,3.94-4.15,6.07-6.41,2.12-2.26,3.41-3.65,3.87-4.18.36-.43.54-.83.54-1.19,0-.46-.25-.82-.76-1.1-.5-.28-1.19-.41-2.05-.41-.17,0-.25-.16-.25-.47,0-.26.08-.4.25-.4h10.62c.19,0,.29.13.29.4,0,.31-.1.47-.29.47-2.23,0-4.3.91-6.19,2.74-.36.31-2.3,2.3-5.83,5.98l-.65.65,1.87,2.48c3.86,5.23,6.26,8.42,7.2,9.58.74.94,1.33,1.61,1.75,2.03s.89.74,1.42.97c.53.23,1.19.34,1.98.34.17,0,.25.16.25.47Z"/>
    <path class="cls-2" d="M1443.13,280.66c-.37,1.43-.63,2.44-.77,3.04l-.32,1.3c-.02.17-.13.25-.32.25h-15.8c-.19,0-.31-.07-.36-.22l-.11-.25c-.05-.12-.05-.24,0-.36.67-1.8,1.64-3.48,2.9-5.04,1.26-1.56,2.93-3.42,5.02-5.58,1.29-1.37,2.29-2.49,2.97-3.37.68-.88,1.21-1.76,1.58-2.66.37-.9.56-1.9.56-3.01,0-1.56-.41-2.8-1.24-3.71s-2.01-1.37-3.55-1.37c-1.1,0-2.04.23-2.81.7-.77.47-1.15,1.1-1.15,1.89,0,.34.07.61.22.83.14.22.36.47.65.76.31.31.55.59.7.85s.23.58.23.99c0,.74-.25,1.33-.74,1.76-.49.43-1.11.65-1.85.65-.38,0-.79-.13-1.21-.4-.42-.26-.77-.64-1.04-1.13s-.41-1.07-.41-1.75c0-1.03.33-2.05,1.01-3.04.67-1,1.63-1.81,2.88-2.45,1.25-.64,2.69-.95,4.32-.95,1.82,0,3.4.31,4.73.94s2.34,1.48,3.02,2.56c.68,1.08,1.03,2.3,1.03,3.67,0,1.27-.26,2.38-.79,3.31-.53.94-1.19,1.73-2,2.39-.8.66-1.91,1.46-3.33,2.39-1.01.67-1.78,1.2-2.3,1.58-2.28,1.61-4.26,3.68-5.94,6.23h5.4c1.94,0,3.44-.1,4.48-.31,1.04-.2,1.88-.58,2.5-1.13.62-.55,1.21-1.4,1.76-2.56.02-.12.11-.18.25-.18.05,0,.12.02.22.07.12.05.21.09.27.13.06.04.09.09.09.16,0,.05-.02.13-.07.25-.07.41-.29,1.33-.67,2.75Z"/>
    <path class="cls-2" d="M1463.97,272.61c.97.67,1.76,1.46,2.36,2.36s.9,1.95.9,3.15c0,1.58-.47,2.95-1.4,4.1-.94,1.15-2.14,2.02-3.62,2.61-1.48.59-3.03.88-4.66.88-1.73,0-3.37-.28-4.93-.85-1.56-.56-2.82-1.36-3.78-2.39-.96-1.03-1.44-2.21-1.44-3.53,0-1.44.53-2.66,1.58-3.67,1.06-1.01,2.57-1.98,4.54-2.92-1.66-.84-2.89-1.81-3.69-2.9s-1.21-2.45-1.21-4.09c0-1.08.32-2.17.95-3.26s1.59-1.99,2.86-2.7,2.82-1.06,4.64-1.06c1.42,0,2.77.25,4.07.74,1.3.49,2.34,1.18,3.13,2.07.79.89,1.19,1.92,1.19,3.1,0,1.37-.47,2.54-1.4,3.51-.94.97-2.23,1.85-3.89,2.65,1.56.79,2.83,1.52,3.8,2.2ZM1461.58,283.05c1.03-.94,1.55-2.11,1.55-3.53,0-.89-.41-1.71-1.22-2.48-.82-.77-1.78-1.45-2.9-2.05-1.12-.6-2.51-1.27-4.19-2.02-2.09,1.51-3.13,3.49-3.13,5.94,0,1.56.45,2.87,1.35,3.94.9,1.07,2.26,1.6,4.09,1.6,1.94,0,3.43-.47,4.46-1.4ZM1452.68,265.9c.36.54.85,1,1.46,1.39.61.38,1.52.86,2.72,1.44l2.02,1.01c1.1-.77,1.85-1.58,2.23-2.43.38-.85.58-1.79.58-2.83,0-.74-.19-1.49-.58-2.25s-.95-1.39-1.71-1.89-1.66-.76-2.72-.76-1.92.23-2.59.68c-.67.46-1.17,1.02-1.48,1.69-.31.67-.47,1.32-.47,1.94,0,.79.18,1.46.54,2Z"/>
    <path class="cls-2" d="M1487.28,273.53c1.42,1.21,2.12,2.72,2.12,4.52,0,1.58-.49,2.96-1.48,4.12s-2.26,2.05-3.83,2.65-3.22.9-4.95.9-3.13-.27-4.41-.81c-1.28-.54-2.28-1.27-2.99-2.18-.71-.91-1.06-1.88-1.06-2.92,0-.86.27-1.53.81-2,.54-.47,1.13-.7,1.78-.7.74,0,1.37.19,1.89.56s.77.93.77,1.67c0,.31-.05.58-.16.79s-.28.48-.52.79c-.38.38-.58.76-.58,1.12,0,.77.38,1.36,1.13,1.76.76.41,1.77.61,3.04.61,1.75,0,3.09-.64,4.01-1.91.92-1.27,1.39-2.84,1.39-4.72s-.46-3.25-1.37-4.34-2.32-1.64-4.21-1.64c-.21,0-.48.02-.79.07-.31.05-.59.07-.83.07-.26,0-.49-.08-.67-.23-.18-.16-.27-.37-.27-.63,0-.22.09-.4.27-.54.18-.14.4-.22.67-.22.24,0,.55.02.94.07l.9.04c1.2,0,2.24-.35,3.11-1.04.88-.7,1.31-2.14,1.31-4.32,0-1.97-.43-3.37-1.28-4.19-.85-.83-1.92-1.24-3.19-1.24-.79,0-1.49.18-2.11.54-.61.36-.92.88-.92,1.55,0,.38.14.79.43,1.22.31.46.47.9.47,1.33,0,.62-.19,1.13-.58,1.53-.38.4-.91.59-1.58.59-.79,0-1.42-.25-1.89-.74-.47-.49-.7-1.19-.7-2.11,0-.82.33-1.63.99-2.45.66-.82,1.56-1.48,2.7-2,1.14-.52,2.39-.77,3.76-.77,1.58,0,3.05.25,4.39.76,1.34.5,2.42,1.24,3.22,2.21.8.97,1.21,2.13,1.21,3.47,0,1.56-.55,2.92-1.66,4.09s-2.75,1.91-4.93,2.25c2.33.38,4.2,1.18,5.62,2.39Z"/>
    <path class="cls-2" d="M1498.75,284.65c-.4-.71-.59-1.5-.59-2.39,0-1.78.44-3.65,1.31-5.63.88-1.98,1.91-3.84,3.1-5.58,1.19-1.74,2.63-3.71,4.34-5.92l1.87-2.52h-8.21c-1.37,0-2.45.16-3.24.49-.79.32-1.42.81-1.89,1.46-.47.65-.93,1.58-1.39,2.81-.02.1-.06.16-.11.18-.05.02-.11.04-.18.04l-.22-.04c-.14-.02-.23-.06-.27-.11-.04-.05-.05-.11-.05-.18l.07-.36,1.8-7.96c.02-.17.12-.25.29-.25h16.16c.17,0,.29.07.36.22l.18.36c.07.14.05.28-.07.4-2.23,3.38-3.93,6.26-5.09,8.62-1.16,2.36-2,4.58-2.5,6.66-.5,2.08-.84,4.49-1.01,7.25-.05,1.15-.32,2.03-.83,2.63s-1.15.9-1.94.9c-.86,0-1.49-.35-1.89-1.06Z"/>
    <path class="cls-2" d="M1535.56,278.34v.76c0,.19-.1.29-.29.29h-4.28v2.48c0,1.66.92,2.48,2.77,2.48h.43c.17,0,.25.14.25.43,0,.31-.08.47-.25.47h-10.94c-.17,0-.25-.16-.25-.47,0-.29.08-.43.25-.43h.43c1.82,0,2.75-.83,2.77-2.48v-2.48h-10.58c-.19,0-.29-.1-.29-.29v-.86c0-.12.04-.23.11-.32l13.72-19.33s.11-.09.18-.13c.07-.04.14-.04.22-.02l.97.22c.17.05.25.16.25.32l-.04,19.08h4.28c.19,0,.29.1.29.29ZM1526.56,264.98l-9.25,13.07h9.18l.07-13.07Z"/>
    <path class="cls-2" d="M1539.01,288.45c.96-1.01,1.87-2.15,2.74-3.42.86-1.27,1.66-3.05,2.38-5.35.72-2.29,1.08-5,1.08-8.12s-.36-5.83-1.08-8.12c-.72-2.29-1.51-4.07-2.38-5.35-.87-1.27-1.78-2.41-2.74-3.42-.17-.17-.25-.31-.25-.43,0-.07.03-.14.09-.2s.11-.09.16-.09c.1,0,.24.06.43.18.91.62,2.02,1.6,3.31,2.93,1.29,1.33,2.54,3.25,3.73,5.74,1.19,2.5,1.78,5.41,1.78,8.75s-.59,6.25-1.78,8.75c-1.19,2.5-2.43,4.41-3.73,5.74-1.3,1.33-2.4,2.31-3.31,2.93-.19.12-.34.18-.43.18-.05,0-.1-.02-.16-.07-.06-.05-.09-.11-.09-.18,0-.12.08-.28.25-.47Z"/>
  </g>
  <text class="cls-7" transform="translate(1131.9595 370.7473)"><tspan x="0" y="0">最終成果報告展</tspan></text>
  <text class="cls-4" transform="translate(93.7298 1962.05)"><tspan x="0" y="0">高</tspan><tspan x="36" y="0">田</tspan><tspan x="72" y="0">馬</tspan><tspan x="108" y="0">場</tspan><tspan x="144" y="0">駅</tspan><tspan x="180" y="0">か</tspan><tspan x="216" y="0">ら</tspan><tspan x="252" y="0">徒</tspan><tspan class="cls-11" x="288" y="0">歩</tspan><tspan class="cls-11" x="333" y="-2.52">5</tspan><tspan x="358.09" y="0">分</tspan></text>
  <text class="cls-4" transform="translate(912.8982 2130.6369)"><tspan x="0" y="0">主</tspan><tspan x="36" y="0">催</tspan><tspan x="72" y="0">：</tspan><tspan x="108" y="0">ソ</tspan><tspan x="144" y="0">ン</tspan><tspan x="180" y="-2.52"> </tspan><tspan x="188.42" y="0">ヨ</tspan><tspan x="224.42" y="0">ン</tspan><tspan x="260.42" y="0">ア</tspan><tspan x="296.42" y="0">＋</tspan><tspan x="332.42" y="-2.52">Aff</tspan><tspan class="cls-17" x="379.51" y="-2.52">e</tspan><tspan x="394.09" y="-2.52">ctive </tspan><tspan class="cls-18" x="469.83" y="-2.52">D</tspan><tspan x="494.78" y="-2.52">esign Lab</tspan></text>
  <text class="cls-4" transform="translate(96.5037 1794.3059)"><tspan x="0" y="0">会</tspan><tspan x="36" y="0">場</tspan><tspan class="cls-12" x="72" y="0">：</tspan></text>
  <text class="cls-3" transform="translate(92.534 2164.6538)"><tspan class="cls-15" x="0" y="0">7</tspan><tspan x="37.82" y="0">.</tspan><tspan x="57.02" y="0">31</tspan></text>
  <text class="cls-3" transform="translate(211.8968 2272.216)"><tspan x="0" y="0">8</tspan><tspan x="47.23" y="0">.</tspan><tspan x="66.43" y="0">2</tspan></text>
  <text class="cls-9" transform="translate(870.1336 1360.5891)"><tspan x="0" y="0">　　　　someho</tspan><tspan class="cls-14" x="421.14" y="0">w</tspan><tspan x="458.82" y="0">, </tspan><tspan x="0" y="105">my h</tspan><tspan class="cls-16" x="121.14" y="105">e</tspan><tspan x="145.86" y="105">art is </tspan><tspan x="0" y="210">　　　with those things</tspan></text>
  <polyline class="cls-13" points="107.51 2194 107.51 2254.06 187.45 2254.06"/>
</svg>